{"glyphs":{"0":{"ha":869,"x_min":97,"x_max":772,"o":"m 435 -21 q 261 23 338 -21 q 141 143 185 67 q 97 317 97 219 l 97 683 q 141 857 97 781 q 261 977 185 933 q 435 1021 338 1021 q 608 977 532 1021 q 728 857 685 933 q 772 683 772 781 l 772 317 q 728 143 772 219 q 608 23 685 67 q 435 -21 532 -21 m 435 98 q 542 126 494 98 q 618 203 590 155 q 647 310 647 251 l 647 691 q 618 798 647 750 q 542 874 590 846 q 435 903 494 903 q 328 874 376 903 q 251 798 280 846 q 223 691 223 750 l 223 310 q 251 203 223 251 q 328 126 280 155 q 435 98 376 98 z "},"1":{"ha":564,"x_min":83,"x_max":397,"o":"m 272 0 l 272 863 l 83 749 l 83 888 l 272 1000 l 397 1000 l 397 0 l 272 0 z "},"2":{"ha":803,"x_min":69,"x_max":734,"o":"m 69 1 l 70 112 l 514 511 q 589 606 569 561 q 608 698 608 651 q 581 802 608 756 q 509 876 555 849 q 406 903 464 903 q 300 875 347 903 q 227 800 253 847 q 201 699 200 753 l 74 699 q 118 866 74 793 q 237 980 162 938 q 408 1021 313 1021 q 575 978 501 1021 q 691 862 649 935 q 734 697 734 789 q 718 583 734 631 q 667 495 701 535 q 582 408 633 454 l 213 77 l 197 119 l 734 119 l 734 1 l 69 1 z "},"3":{"ha":781,"x_min":56,"x_max":698,"o":"m 372 -19 q 233 8 297 -19 q 123 86 169 35 q 56 206 77 136 l 174 240 q 251 134 197 170 q 371 99 304 98 q 477 127 432 100 q 546 200 522 153 q 571 308 571 247 q 515 459 571 401 q 369 517 460 517 q 317 510 344 517 q 266 490 290 503 l 206 588 l 577 924 l 593 882 l 95 882 l 95 1000 l 685 1000 l 685 881 l 369 578 l 367 622 q 541 590 467 629 q 657 476 615 550 q 698 308 698 403 q 655 138 698 212 q 538 23 612 65 q 372 -19 465 -19 z "},"4":{"ha":828,"x_min":69,"x_max":758,"o":"m 529 0 l 529 184 l 69 184 l 69 301 l 399 1000 l 540 1000 l 210 301 l 529 301 l 529 583 l 654 583 l 654 301 l 758 301 l 758 184 l 654 184 l 654 0 l 529 0 z "},"5":{"ha":806,"x_min":69,"x_max":737,"o":"m 393 -21 q 250 11 316 -21 q 136 99 183 43 q 69 228 90 155 l 188 260 q 233 175 201 210 q 307 119 265 139 q 397 99 350 99 q 507 129 458 99 q 584 207 556 158 q 613 315 613 256 q 583 424 613 375 q 504 501 553 473 q 397 530 455 530 q 284 502 331 530 q 210 435 237 475 l 100 477 l 131 1000 l 667 1000 l 667 883 l 190 883 l 245 934 l 219 515 l 192 551 q 292 619 234 595 q 410 644 350 644 q 577 600 503 644 q 694 482 651 557 q 737 315 737 408 q 690 146 737 222 q 564 25 642 70 q 393 -21 486 -21 z "},"6":{"ha":863,"x_min":97,"x_max":779,"o":"m 438 -21 q 266 25 343 -21 q 143 150 188 71 q 97 330 97 230 l 97 663 q 143 848 97 767 q 268 975 188 929 q 449 1020 347 1020 q 603 986 532 1020 q 723 890 674 953 l 631 808 q 553 877 601 851 q 449 903 505 903 q 332 871 383 903 q 252 788 281 840 q 223 676 223 736 l 223 476 l 196 506 q 307 606 240 569 q 453 644 374 644 q 620 600 546 644 q 736 482 694 556 q 779 314 779 407 q 733 145 779 221 q 609 24 686 69 q 438 -21 531 -21 m 438 99 q 547 127 498 99 q 625 205 597 156 q 654 314 654 254 q 625 423 654 374 q 548 501 597 472 q 439 530 499 530 q 330 501 379 530 q 252 423 281 472 q 223 314 223 374 q 252 206 223 255 q 330 128 281 157 q 438 99 378 99 z "},"7":{"ha":712,"x_min":56,"x_max":642,"o":"m 150 0 l 510 881 l 56 881 l 56 1000 l 642 1000 l 642 881 l 283 0 l 150 0 z "},"8":{"ha":821,"x_min":83,"x_max":738,"o":"m 410 -21 q 240 18 314 -21 q 125 125 167 56 q 83 285 83 194 q 126 447 83 375 q 255 558 169 519 l 253 513 q 145 609 183 547 q 108 747 108 672 q 147 893 108 832 q 253 988 185 954 q 410 1021 322 1021 q 566 988 498 1021 q 673 893 634 954 q 712 747 712 832 q 676 610 712 672 q 567 513 641 549 l 565 558 q 694 448 651 520 q 738 285 738 375 q 695 125 738 194 q 580 18 653 56 q 410 -21 506 -21 m 410 97 q 552 145 497 97 q 606 285 606 194 q 552 426 606 378 q 410 474 499 474 q 268 426 322 474 q 214 285 214 378 q 268 145 214 194 q 410 97 322 97 m 410 593 q 533 632 486 593 q 581 747 581 670 q 533 863 581 824 q 410 901 486 901 q 286 863 334 901 q 239 747 239 824 q 286 632 239 670 q 410 593 334 593 z "},"9":{"ha":863,"x_min":83,"x_max":765,"o":"m 424 1020 q 597 974 520 1020 q 720 849 674 928 q 765 669 765 770 l 765 337 q 720 151 765 232 q 595 25 675 71 q 413 -21 516 -21 q 260 13 331 -21 q 140 110 189 47 l 232 192 q 310 123 263 149 q 413 97 358 97 q 531 128 480 97 q 611 212 582 160 q 640 323 640 263 l 640 524 l 667 493 q 556 393 624 431 q 410 356 489 356 q 243 399 317 356 q 126 518 169 443 q 83 685 83 592 q 130 855 83 778 q 254 975 176 931 q 424 1020 331 1020 m 424 901 q 316 872 365 901 q 238 794 267 843 q 208 685 208 745 q 237 577 208 626 q 315 499 266 528 q 424 469 364 469 q 533 499 483 469 q 611 577 582 528 q 640 685 640 626 q 611 793 640 744 q 533 872 582 842 q 424 901 484 901 z "},"A":{"ha":897,"x_min":28,"x_max":869,"o":"m 28 0 l 363 1000 l 535 1000 l 869 0 l 741 0 l 428 928 l 467 928 l 156 0 l 28 0 m 189 234 l 189 350 l 708 350 l 708 234 l 189 234 z "},"Á":{"ha":897,"x_min":28,"x_max":869,"o":"m 511 1115 l 410 1115 l 501 1344 l 602 1344 l 511 1115 m 28 0 l 363 1000 l 535 1000 l 869 0 l 741 0 l 428 928 l 467 928 l 156 0 l 28 0 m 189 234 l 189 350 l 708 350 l 708 234 l 189 234 z "},"Ă":{"ha":897,"x_min":28,"x_max":869,"o":"m 449 1088 q 354 1113 397 1088 q 285 1182 311 1139 q 260 1277 260 1225 l 360 1277 q 386 1214 360 1240 q 449 1188 413 1188 q 513 1214 487 1188 q 539 1277 539 1240 l 639 1277 q 614 1182 639 1225 q 545 1113 588 1139 q 449 1088 502 1088 m 28 0 l 363 1000 l 535 1000 l 869 0 l 741 0 l 428 928 l 467 928 l 156 0 l 28 0 m 189 234 l 189 350 l 708 350 l 708 234 l 189 234 z "},"Ắ":{"ha":897,"x_min":28,"x_max":869,"o":"m 449 1088 q 353 1113 397 1088 q 285 1182 310 1139 q 259 1277 259 1225 l 359 1277 q 385 1214 359 1240 q 449 1188 412 1188 q 512 1214 486 1188 q 538 1277 538 1240 l 638 1277 q 613 1182 638 1225 q 544 1113 588 1139 q 449 1088 501 1088 m 499 1323 l 399 1323 l 490 1552 l 590 1552 l 499 1323 m 28 0 l 363 1000 l 535 1000 l 869 0 l 741 0 l 428 928 l 467 928 l 156 0 l 28 0 m 189 234 l 189 350 l 708 350 l 708 234 l 189 234 z "},"Ặ":{"ha":897,"x_min":28,"x_max":869,"o":"m 381 -267 l 381 -140 l 517 -140 l 517 -267 l 381 -267 m 449 1088 q 354 1113 397 1088 q 285 1182 311 1139 q 260 1277 260 1224 l 360 1277 q 386 1214 360 1240 q 449 1188 413 1188 q 513 1214 487 1188 q 539 1277 539 1240 l 639 1277 q 614 1182 639 1224 q 545 1113 588 1139 q 449 1088 501 1088 m 28 0 l 363 1000 l 535 1000 l 869 0 l 741 0 l 428 928 l 467 928 l 156 0 l 28 0 m 189 234 l 189 350 l 708 350 l 708 234 l 189 234 z "},"Ằ":{"ha":897,"x_min":28,"x_max":869,"o":"m 449 1088 q 353 1113 397 1088 q 285 1182 310 1139 q 259 1277 259 1225 l 359 1277 q 385 1214 359 1240 q 449 1188 411 1188 q 512 1214 486 1188 q 538 1277 538 1240 l 638 1277 q 613 1182 638 1225 q 544 1113 588 1139 q 449 1088 501 1088 m 399 1323 l 308 1552 l 408 1552 l 499 1323 l 399 1323 m 28 0 l 363 1000 l 535 1000 l 869 0 l 741 0 l 428 928 l 467 928 l 156 0 l 28 0 m 189 234 l 189 350 l 708 350 l 708 234 l 189 234 z "},"Ẳ":{"ha":897,"x_min":28,"x_max":869,"o":"m 449 1088 q 353 1113 397 1088 q 285 1182 310 1139 q 259 1277 259 1225 l 359 1277 q 385 1214 359 1240 q 449 1188 412 1188 q 512 1214 486 1188 q 538 1277 538 1240 l 638 1277 q 613 1182 638 1225 q 544 1113 588 1139 q 449 1088 501 1088 m 344 1478 l 308 1542 q 383 1584 340 1573 q 467 1580 426 1594 q 531 1518 508 1565 q 547 1448 549 1481 q 527 1387 544 1415 q 483 1340 510 1359 q 426 1313 456 1321 l 393 1367 q 453 1414 434 1384 q 456 1476 473 1443 q 424 1503 444 1499 q 384 1500 405 1508 q 344 1478 363 1493 m 28 0 l 363 1000 l 535 1000 l 869 0 l 741 0 l 428 928 l 467 928 l 156 0 l 28 0 m 189 234 l 189 350 l 708 350 l 708 234 l 189 234 z "},"Ẵ":{"ha":897,"x_min":28,"x_max":869,"o":"m 546 1319 q 487 1332 515 1319 q 432 1362 458 1345 q 382 1391 406 1378 q 338 1404 358 1404 q 305 1382 313 1404 q 305 1333 297 1360 l 222 1333 q 233 1451 205 1403 q 329 1499 262 1499 q 389 1486 360 1499 q 444 1457 417 1474 q 494 1427 471 1440 q 538 1415 518 1415 q 571 1436 562 1415 q 571 1487 580 1458 l 654 1487 q 643 1369 672 1419 q 546 1319 615 1319 m 436 1088 q 340 1113 383 1088 q 272 1182 297 1139 q 247 1277 247 1225 l 347 1277 q 373 1214 347 1240 q 436 1188 399 1188 q 500 1214 474 1188 q 526 1277 526 1240 l 626 1277 q 600 1182 626 1225 q 531 1113 574 1139 q 436 1088 488 1088 m 28 0 l 363 1000 l 535 1000 l 869 0 l 741 0 l 428 928 l 467 928 l 156 0 l 28 0 m 189 234 l 189 350 l 708 350 l 708 234 l 189 234 z "},"Â":{"ha":897,"x_min":28,"x_max":869,"o":"m 224 1115 l 393 1313 l 503 1313 l 672 1115 l 551 1115 l 448 1236 l 345 1115 l 224 1115 m 28 0 l 363 1000 l 535 1000 l 869 0 l 741 0 l 428 928 l 467 928 l 156 0 l 28 0 m 189 234 l 189 350 l 708 350 l 708 234 l 189 234 z "},"Ấ":{"ha":897,"x_min":28,"x_max":869,"o":"m 223 1115 l 392 1313 l 502 1313 l 672 1115 l 550 1115 l 447 1236 l 344 1115 l 223 1115 m 747 1260 l 646 1260 l 737 1490 l 838 1490 l 747 1260 m 28 0 l 363 1000 l 535 1000 l 869 0 l 741 0 l 428 928 l 467 928 l 156 0 l 28 0 m 189 234 l 189 350 l 708 350 l 708 234 l 189 234 z "},"Ậ":{"ha":897,"x_min":28,"x_max":869,"o":"m 381 -267 l 381 -140 l 517 -140 l 517 -267 l 381 -267 m 224 1115 l 393 1313 l 503 1313 l 672 1115 l 551 1115 l 448 1236 l 345 1115 l 224 1115 m 28 0 l 363 1000 l 535 1000 l 869 0 l 741 0 l 428 928 l 467 928 l 156 0 l 28 0 m 189 234 l 189 350 l 708 350 l 708 234 l 189 234 z "},"Ầ":{"ha":897,"x_min":28,"x_max":869,"o":"m 223 1115 l 392 1313 l 502 1313 l 672 1115 l 550 1115 l 447 1236 l 344 1115 l 223 1115 m 647 1260 l 556 1490 l 657 1490 l 748 1260 l 647 1260 m 28 0 l 363 1000 l 535 1000 l 869 0 l 741 0 l 428 928 l 467 928 l 156 0 l 28 0 m 189 234 l 189 350 l 708 350 l 708 234 l 189 234 z "},"Ẩ":{"ha":897,"x_min":28,"x_max":869,"o":"m 224 1115 l 393 1313 l 503 1313 l 672 1115 l 551 1115 l 448 1236 l 345 1115 l 224 1115 m 662 1284 l 626 1347 q 701 1389 658 1378 q 784 1385 744 1399 q 849 1324 825 1370 q 864 1253 867 1287 q 844 1192 862 1219 q 800 1145 827 1164 q 743 1117 773 1126 l 710 1172 q 771 1219 751 1189 q 773 1282 790 1249 q 742 1309 761 1304 q 701 1306 722 1313 q 662 1284 680 1299 m 28 0 l 363 1000 l 535 1000 l 869 0 l 741 0 l 428 928 l 467 928 l 156 0 l 28 0 m 189 234 l 189 350 l 708 350 l 708 234 l 189 234 z "},"Ẫ":{"ha":897,"x_min":28,"x_max":869,"o":"m 222 1115 l 392 1313 l 501 1313 l 671 1115 l 549 1115 l 447 1236 l 344 1115 l 222 1115 m 560 1347 q 501 1360 530 1347 q 446 1390 473 1373 q 396 1419 419 1406 q 352 1432 372 1432 q 319 1410 326 1432 q 319 1361 311 1388 l 236 1361 q 247 1479 219 1431 q 344 1527 276 1527 q 403 1514 374 1527 q 458 1485 432 1501 q 508 1455 485 1468 q 553 1442 532 1442 q 585 1464 576 1442 q 585 1515 594 1485 l 669 1515 q 658 1397 686 1447 q 560 1347 629 1347 m 28 0 l 363 1000 l 535 1000 l 869 0 l 741 0 l 428 928 l 467 928 l 156 0 l 28 0 m 189 234 l 189 350 l 708 350 l 708 234 l 189 234 z "},"Ä":{"ha":897,"x_min":28,"x_max":869,"o":"m 523 1136 l 523 1261 l 648 1261 l 648 1136 l 523 1136 m 251 1136 l 251 1261 l 376 1261 l 376 1136 l 251 1136 m 28 0 l 363 1000 l 535 1000 l 869 0 l 741 0 l 428 928 l 467 928 l 156 0 l 28 0 m 189 234 l 189 350 l 708 350 l 708 234 l 189 234 z "},"Ạ":{"ha":897,"x_min":28,"x_max":869,"o":"m 381 -267 l 381 -140 l 517 -140 l 517 -267 l 381 -267 m 28 0 l 363 1000 l 535 1000 l 869 0 l 741 0 l 428 928 l 467 928 l 156 0 l 28 0 m 189 234 l 189 350 l 708 350 l 708 234 l 189 234 z "},"À":{"ha":897,"x_min":28,"x_max":869,"o":"m 386 1115 l 295 1344 l 396 1344 l 487 1115 l 386 1115 m 869 0 l 741 0 l 431 928 l 469 928 l 156 0 l 28 0 l 363 1000 l 535 1000 l 869 0 m 708 234 l 189 234 l 189 350 l 708 350 l 708 234 z "},"Ả":{"ha":897,"x_min":28,"x_max":869,"o":"m 361 1284 l 325 1347 q 400 1389 357 1378 q 484 1385 443 1399 q 548 1324 524 1370 q 564 1253 566 1287 q 544 1192 561 1219 q 499 1145 526 1164 q 442 1117 472 1126 l 410 1172 q 470 1219 451 1189 q 472 1282 490 1249 q 441 1309 460 1304 q 400 1306 422 1313 q 361 1284 379 1299 m 28 0 l 363 1000 l 535 1000 l 869 0 l 741 0 l 428 928 l 467 928 l 156 0 l 28 0 m 189 234 l 189 350 l 708 350 l 708 234 l 189 234 z "},"Ā":{"ha":897,"x_min":28,"x_max":869,"o":"m 272 1167 l 272 1268 l 627 1268 l 627 1167 l 272 1167 m 28 0 l 363 1000 l 535 1000 l 869 0 l 741 0 l 428 928 l 467 928 l 156 0 l 28 0 m 189 234 l 189 350 l 708 350 l 708 234 l 189 234 z "},"Ą":{"ha":897,"x_min":28,"x_max":872,"o":"m 749 -334 q 678 -314 710 -334 q 629 -262 647 -294 q 610 -193 610 -230 q 637 -98 610 -147 q 709 -7 664 -50 q 808 69 753 37 l 869 0 q 792 -57 827 -24 q 735 -124 756 -90 q 713 -185 713 -158 q 728 -223 713 -208 q 762 -237 742 -237 q 792 -229 776 -237 q 822 -207 808 -221 l 872 -269 q 815 -317 848 -301 q 749 -334 783 -334 m 28 0 l 363 1000 l 535 1000 l 869 0 l 741 0 l 428 928 l 467 928 l 156 0 l 28 0 m 189 234 l 189 350 l 708 350 l 708 234 l 189 234 z "},"Å":{"ha":897,"x_min":28,"x_max":869,"o":"m 449 1080 q 369 1102 406 1080 q 310 1160 332 1124 q 288 1241 288 1197 q 310 1322 288 1285 q 368 1380 332 1358 q 449 1402 405 1402 q 531 1380 494 1402 q 589 1322 567 1358 q 610 1241 610 1285 q 589 1160 610 1197 q 531 1102 567 1124 q 449 1080 494 1080 m 449 1165 q 504 1187 482 1165 q 526 1241 526 1210 q 504 1295 526 1273 q 449 1317 482 1317 q 395 1295 418 1317 q 373 1241 373 1273 q 395 1187 373 1210 q 449 1165 418 1165 m 28 0 l 363 1000 l 535 1000 l 869 0 l 741 0 l 428 928 l 467 928 l 156 0 l 28 0 m 189 234 l 189 350 l 708 350 l 708 234 l 189 234 z "},"Ã":{"ha":897,"x_min":28,"x_max":869,"o":"m 557 1151 q 498 1164 526 1151 q 443 1194 469 1177 q 393 1223 417 1210 q 349 1236 369 1236 q 316 1214 324 1236 q 316 1165 308 1192 l 233 1165 q 244 1283 216 1235 q 340 1331 273 1331 q 400 1318 372 1331 q 455 1289 428 1306 q 506 1259 482 1272 q 549 1247 529 1247 q 582 1268 573 1247 q 582 1319 591 1290 l 665 1319 q 654 1201 683 1251 q 557 1151 626 1151 m 28 0 l 363 1000 l 535 1000 l 869 0 l 741 0 l 428 928 l 467 928 l 156 0 l 28 0 m 189 234 l 189 350 l 708 350 l 708 234 l 189 234 z "},"Æ":{"ha":1285,"x_min":28,"x_max":1215,"o":"m 28 0 l 363 1000 l 628 1000 l 628 883 l 403 883 l 466 927 l 156 0 l 28 0 m 189 234 l 189 350 l 674 350 l 674 234 l 189 234 m 583 0 l 583 1000 l 1215 1000 l 1215 883 l 707 883 l 707 569 l 1132 569 l 1132 452 l 707 452 l 707 117 l 1215 117 l 1215 0 l 583 0 z "},"B":{"ha":860,"x_min":97,"x_max":819,"o":"m 97 0 l 97 1000 l 487 1000 q 640 963 576 1000 q 737 866 703 926 q 771 737 771 806 q 729 594 771 656 q 617 510 688 533 l 615 544 q 765 450 712 519 q 819 286 819 381 q 783 135 819 199 q 680 35 747 71 q 522 0 613 0 l 97 0 m 222 118 l 498 118 q 597 139 553 118 q 666 197 641 159 q 692 287 692 234 q 669 378 692 338 q 606 442 647 418 q 512 466 565 466 l 222 466 l 222 118 m 222 583 l 485 583 q 566 602 530 583 q 623 656 601 621 q 644 737 644 690 q 600 842 644 801 q 485 883 556 883 l 222 883 l 222 583 z "},"C":{"ha":1004,"x_min":42,"x_max":949,"o":"m 508 -21 q 255 45 359 -21 q 96 228 151 111 q 42 500 42 346 q 96 772 42 654 q 255 955 151 889 q 508 1021 359 1021 q 794 933 682 1021 q 949 695 906 844 l 823 662 q 714 838 792 774 q 508 903 635 903 q 322 852 397 903 q 210 711 248 801 q 172 500 173 620 q 209 290 172 381 q 322 148 247 199 q 508 97 397 97 q 714 162 635 97 q 823 338 792 227 l 949 305 q 794 68 906 156 q 508 -21 682 -21 z "},"Ć":{"ha":1004,"x_min":42,"x_max":949,"o":"m 570 1115 l 469 1115 l 560 1344 l 661 1344 l 570 1115 m 508 -21 q 255 45 359 -21 q 96 228 151 111 q 42 500 42 346 q 96 772 42 654 q 255 955 151 889 q 508 1021 359 1021 q 794 933 682 1021 q 949 695 906 844 l 823 662 q 714 838 792 774 q 508 903 635 903 q 322 852 397 903 q 210 711 248 801 q 172 500 173 620 q 209 290 172 381 q 322 148 247 199 q 508 97 397 97 q 714 162 635 97 q 823 338 792 227 l 949 305 q 794 68 906 156 q 508 -21 682 -21 z "},"Č":{"ha":1004,"x_min":42,"x_max":949,"o":"m 301 1313 l 423 1313 l 526 1191 l 628 1313 l 750 1313 l 581 1115 l 471 1115 l 301 1313 m 508 -21 q 255 45 359 -21 q 96 228 151 111 q 42 500 42 346 q 96 772 42 654 q 255 955 151 889 q 508 1021 359 1021 q 794 933 682 1021 q 949 695 906 844 l 823 662 q 714 838 792 774 q 508 903 635 903 q 322 852 397 903 q 210 711 248 801 q 172 500 173 620 q 209 290 172 381 q 322 148 247 199 q 508 97 397 97 q 714 162 635 97 q 823 338 792 227 l 949 305 q 794 68 906 156 q 508 -21 682 -21 z "},"Ç":{"ha":1004,"x_min":42,"x_max":949,"o":"m 497 -334 q 448 -327 471 -334 q 406 -311 426 -321 l 435 -231 q 486 -242 467 -242 q 525 -227 511 -242 q 538 -194 538 -212 q 510 -150 538 -163 q 447 -126 483 -136 l 497 17 l 581 17 l 549 -74 q 610 -122 587 -92 q 633 -197 633 -152 q 592 -295 633 -256 q 497 -334 552 -334 m 508 -21 q 255 45 359 -21 q 96 228 151 111 q 42 500 42 346 q 96 772 42 654 q 255 955 151 889 q 508 1021 359 1021 q 794 933 682 1021 q 949 695 906 844 l 823 662 q 714 838 792 774 q 508 903 635 903 q 322 852 397 903 q 210 711 248 801 q 172 500 173 620 q 209 290 172 381 q 322 148 247 199 q 508 97 397 97 q 714 162 635 97 q 823 338 792 227 l 949 305 q 794 68 906 156 q 508 -21 682 -21 z "},"Ĉ":{"ha":1004,"x_min":42,"x_max":949,"o":"m 283 1115 l 453 1313 l 563 1313 l 732 1115 l 610 1115 l 508 1236 l 405 1115 l 283 1115 m 508 -21 q 255 45 359 -21 q 96 228 151 111 q 42 500 42 346 q 96 772 42 654 q 255 955 151 889 q 508 1021 359 1021 q 794 933 682 1021 q 949 695 906 844 l 823 662 q 714 838 792 774 q 508 903 635 903 q 322 852 397 903 q 210 711 248 801 q 172 500 173 620 q 209 290 172 381 q 322 148 247 199 q 508 97 397 97 q 714 162 635 97 q 823 338 792 227 l 949 305 q 794 68 906 156 q 508 -21 682 -21 z "},"Ċ":{"ha":1004,"x_min":42,"x_max":949,"o":"m 450 1156 l 450 1292 l 586 1292 l 586 1156 l 450 1156 m 508 -21 q 255 45 359 -21 q 96 228 151 111 q 42 500 42 346 q 96 772 42 654 q 255 955 151 889 q 508 1021 359 1021 q 794 933 682 1021 q 949 695 906 844 l 823 662 q 714 838 792 774 q 508 903 635 903 q 322 852 397 903 q 210 711 248 801 q 172 500 173 620 q 209 290 172 381 q 322 148 247 199 q 508 97 397 97 q 714 162 635 97 q 823 338 792 227 l 949 305 q 794 68 906 156 q 508 -21 682 -21 z "},"D":{"ha":946,"x_min":97,"x_max":883,"o":"m 97 0 l 97 1000 l 406 1000 q 459 999 421 1000 q 532 994 497 999 q 726 909 648 978 q 844 734 804 840 q 883 500 883 628 q 844 266 883 372 q 726 91 804 160 q 532 6 648 22 q 459 1 497 2 q 406 0 420 0 l 97 0 m 224 118 l 406 118 q 465 120 432 118 q 522 126 497 122 q 654 194 603 141 q 728 328 705 248 q 752 500 752 408 q 728 674 752 594 q 653 807 704 754 q 522 874 603 860 q 464 881 497 879 q 406 882 431 882 l 224 882 l 224 118 z "},"Ð":{"ha":941,"x_min":14,"x_max":878,"o":"m 14 449 l 14 551 l 462 551 l 462 449 l 14 449 m 92 0 l 92 1000 l 401 1000 q 454 999 416 1000 q 527 994 492 999 q 721 909 643 978 q 839 734 799 840 q 878 500 878 628 q 839 266 878 372 q 721 91 799 160 q 527 6 643 22 q 454 1 492 2 q 401 0 415 0 l 92 0 m 219 118 l 401 118 q 460 120 427 118 q 517 126 492 122 q 649 194 599 141 q 724 328 700 248 q 747 500 747 408 q 723 674 747 594 q 649 807 699 754 q 517 874 598 860 q 459 881 492 879 q 401 882 426 882 l 219 882 l 219 118 z "},"Ď":{"ha":946,"x_min":97,"x_max":883,"o":"m 192 1313 l 314 1313 l 417 1191 l 519 1313 l 641 1313 l 472 1115 l 362 1115 l 192 1313 m 97 0 l 97 1000 l 406 1000 q 459 999 421 1000 q 532 994 497 999 q 726 909 648 978 q 844 734 804 840 q 883 500 883 628 q 844 266 883 372 q 726 91 804 160 q 532 6 648 22 q 459 1 497 2 q 406 0 420 0 l 97 0 m 224 118 l 406 118 q 465 120 432 118 q 522 126 497 122 q 654 194 603 141 q 728 328 705 248 q 752 500 752 408 q 728 674 752 594 q 653 807 704 754 q 522 874 603 860 q 464 881 497 879 q 406 882 431 882 l 224 882 l 224 118 z "},"Đ":{"ha":941,"x_min":14,"x_max":878,"o":"m 14 449 l 14 551 l 462 551 l 462 449 l 14 449 m 92 0 l 92 1000 l 401 1000 q 454 999 416 1000 q 527 994 492 999 q 721 909 643 978 q 839 734 799 840 q 878 500 878 628 q 839 266 878 372 q 721 91 799 160 q 527 6 643 22 q 454 1 492 2 q 401 0 415 0 l 92 0 m 219 118 l 401 118 q 460 120 427 118 q 517 126 492 122 q 649 194 599 141 q 724 328 700 248 q 747 500 747 408 q 723 674 747 594 q 649 807 699 754 q 517 874 598 860 q 459 881 492 879 q 401 882 426 882 l 219 882 l 219 118 z "},"E":{"ha":799,"x_min":97,"x_max":729,"o":"m 97 0 l 97 1000 l 729 1000 l 729 883 l 221 883 l 221 569 l 646 569 l 646 452 l 221 452 l 221 117 l 729 117 l 729 0 l 97 0 z "},"É":{"ha":799,"x_min":97,"x_max":729,"o":"m 481 1115 l 381 1115 l 472 1344 l 572 1344 l 481 1115 m 97 0 l 97 1000 l 729 1000 l 729 883 l 221 883 l 221 569 l 646 569 l 646 452 l 221 452 l 221 117 l 729 117 l 729 0 l 97 0 z "},"Ě":{"ha":799,"x_min":97,"x_max":729,"o":"m 193 1313 l 315 1313 l 417 1191 l 520 1313 l 642 1313 l 472 1115 l 363 1115 l 193 1313 m 97 0 l 97 1000 l 729 1000 l 729 883 l 221 883 l 221 569 l 646 569 l 646 452 l 221 452 l 221 117 l 729 117 l 729 0 l 97 0 z "},"Ê":{"ha":799,"x_min":97,"x_max":729,"o":"m 181 1115 l 350 1313 l 460 1313 l 629 1115 l 508 1115 l 405 1236 l 302 1115 l 181 1115 m 97 0 l 97 1000 l 729 1000 l 729 883 l 221 883 l 221 569 l 646 569 l 646 452 l 221 452 l 221 117 l 729 117 l 729 0 l 97 0 z "},"Ế":{"ha":799,"x_min":97,"x_max":800,"o":"m 185 1115 l 355 1313 l 465 1313 l 634 1115 l 513 1115 l 410 1236 l 307 1115 l 185 1115 m 709 1260 l 608 1260 l 699 1490 l 800 1490 l 709 1260 m 97 0 l 97 1000 l 729 1000 l 729 883 l 221 883 l 221 569 l 646 569 l 646 452 l 221 452 l 221 117 l 729 117 l 729 0 l 97 0 z "},"Ệ":{"ha":799,"x_min":97,"x_max":729,"o":"m 345 -267 l 345 -140 l 481 -140 l 481 -267 l 345 -267 m 181 1115 l 350 1313 l 460 1313 l 629 1115 l 508 1115 l 405 1236 l 302 1115 l 181 1115 m 97 0 l 97 1000 l 729 1000 l 729 883 l 221 883 l 221 569 l 646 569 l 646 452 l 221 452 l 221 117 l 729 117 l 729 0 l 97 0 z "},"Ề":{"ha":799,"x_min":97,"x_max":736,"o":"m 211 1115 l 381 1313 l 490 1313 l 660 1115 l 538 1115 l 435 1236 l 333 1115 l 211 1115 m 635 1260 l 544 1490 l 645 1490 l 736 1260 l 635 1260 m 97 0 l 97 1000 l 729 1000 l 729 883 l 221 883 l 221 569 l 646 569 l 646 452 l 221 452 l 221 117 l 729 117 l 729 0 l 97 0 z "},"Ể":{"ha":833,"x_min":97,"x_max":837,"o":"m 194 1115 l 363 1313 l 473 1313 l 642 1115 l 521 1115 l 418 1236 l 315 1115 l 194 1115 m 632 1284 l 596 1347 q 671 1389 628 1378 q 755 1385 714 1399 q 819 1324 795 1370 q 834 1253 837 1287 q 815 1192 832 1219 q 770 1145 797 1164 q 713 1117 743 1126 l 681 1172 q 741 1219 722 1189 q 743 1282 760 1249 q 712 1309 731 1304 q 671 1306 692 1313 q 632 1284 650 1299 m 97 0 l 97 1000 l 729 1000 l 729 883 l 221 883 l 221 569 l 646 569 l 646 452 l 221 452 l 221 117 l 729 117 l 729 0 l 97 0 z "},"Ễ":{"ha":799,"x_min":97,"x_max":729,"o":"m 186 1115 l 356 1313 l 465 1313 l 635 1115 l 513 1115 l 410 1236 l 308 1115 l 186 1115 m 524 1347 q 465 1360 494 1347 q 410 1390 437 1373 q 360 1419 383 1406 q 316 1432 336 1432 q 283 1410 290 1432 q 283 1361 275 1388 l 200 1361 q 211 1479 183 1431 q 308 1527 240 1527 q 367 1514 338 1527 q 422 1485 396 1501 q 472 1455 449 1468 q 517 1442 496 1442 q 549 1464 540 1442 q 549 1515 558 1485 l 633 1515 q 622 1397 650 1447 q 524 1347 593 1347 m 97 0 l 97 1000 l 729 1000 l 729 883 l 221 883 l 221 569 l 646 569 l 646 452 l 221 452 l 221 117 l 729 117 l 729 0 l 97 0 z "},"Ë":{"ha":799,"x_min":97,"x_max":729,"o":"m 476 1136 l 476 1261 l 601 1261 l 601 1136 l 476 1136 m 203 1136 l 203 1261 l 328 1261 l 328 1136 l 203 1136 m 97 0 l 97 1000 l 729 1000 l 729 883 l 221 883 l 221 569 l 646 569 l 646 452 l 221 452 l 221 117 l 729 117 l 729 0 l 97 0 z "},"Ė":{"ha":799,"x_min":97,"x_max":729,"o":"m 348 1156 l 348 1292 l 484 1292 l 484 1156 l 348 1156 m 97 0 l 97 1000 l 729 1000 l 729 883 l 221 883 l 221 569 l 646 569 l 646 452 l 221 452 l 221 117 l 729 117 l 729 0 l 97 0 z "},"Ẹ":{"ha":833,"x_min":97,"x_max":729,"o":"m 345 -267 l 345 -140 l 481 -140 l 481 -267 l 345 -267 m 97 0 l 97 1000 l 729 1000 l 729 883 l 221 883 l 221 569 l 646 569 l 646 452 l 221 452 l 221 117 l 729 117 l 729 0 l 97 0 z "},"È":{"ha":799,"x_min":97,"x_max":729,"o":"m 382 1115 l 291 1344 l 392 1344 l 483 1115 l 382 1115 m 97 0 l 97 1000 l 729 1000 l 729 883 l 221 883 l 221 569 l 646 569 l 646 452 l 221 452 l 221 117 l 729 117 l 729 0 l 97 0 z "},"Ẻ":{"ha":799,"x_min":97,"x_max":729,"o":"m 338 1284 l 301 1347 q 376 1389 333 1378 q 460 1385 419 1399 q 524 1324 500 1370 q 539 1253 542 1287 q 519 1192 537 1219 q 475 1145 502 1164 q 418 1117 449 1126 l 385 1172 q 446 1219 426 1189 q 448 1282 466 1249 q 417 1309 436 1304 q 376 1306 397 1313 q 338 1284 355 1299 m 97 0 l 97 1000 l 729 1000 l 729 883 l 221 883 l 221 569 l 646 569 l 646 452 l 221 452 l 221 117 l 729 117 l 729 0 l 97 0 z "},"Ē":{"ha":799,"x_min":97,"x_max":729,"o":"m 239 1167 l 239 1268 l 594 1268 l 594 1167 l 239 1167 m 97 0 l 97 1000 l 729 1000 l 729 883 l 221 883 l 221 569 l 646 569 l 646 452 l 221 452 l 221 117 l 729 117 l 729 0 l 97 0 z "},"Ę":{"ha":799,"x_min":97,"x_max":731,"o":"m 608 -334 q 538 -314 569 -334 q 489 -262 507 -294 q 470 -193 470 -230 q 497 -98 470 -147 q 568 -7 524 -50 q 668 69 613 37 l 729 0 q 651 -57 687 -24 q 594 -124 616 -90 q 573 -185 573 -158 q 588 -223 573 -208 q 622 -237 602 -237 q 652 -229 636 -237 q 681 -207 667 -221 l 731 -269 q 675 -317 708 -301 q 608 -334 642 -334 m 97 0 l 97 1000 l 729 1000 l 729 883 l 221 883 l 221 569 l 646 569 l 646 452 l 221 452 l 221 117 l 729 117 l 729 0 l 97 0 z "},"Ẽ":{"ha":799,"x_min":97,"x_max":729,"o":"m 515 1117 q 456 1130 484 1117 q 400 1159 427 1142 q 350 1189 374 1176 q 306 1201 326 1201 q 273 1180 281 1201 q 274 1131 265 1158 l 190 1131 q 201 1248 173 1200 q 298 1297 230 1297 q 357 1284 328 1297 q 413 1254 386 1271 q 463 1225 439 1238 q 507 1212 486 1212 q 540 1233 531 1212 q 540 1284 549 1255 l 623 1284 q 612 1166 640 1216 q 515 1117 583 1117 m 97 0 l 97 1000 l 729 1000 l 729 883 l 221 883 l 221 569 l 646 569 l 646 452 l 221 452 l 221 117 l 729 117 l 729 0 l 97 0 z "},"F":{"ha":708,"x_min":97,"x_max":681,"o":"m 97 0 l 97 1000 l 681 1000 l 681 876 l 221 876 l 221 562 l 597 562 l 597 438 l 221 438 l 221 0 l 97 0 z "},"G":{"ha":992,"x_min":42,"x_max":950,"o":"m 502 -21 q 315 15 399 -21 q 169 119 230 51 q 75 283 108 187 q 42 500 42 379 q 99 776 42 660 q 259 957 156 893 q 502 1020 363 1020 q 773 942 670 1020 q 915 728 876 864 l 790 703 q 687 848 758 794 q 508 902 615 902 q 323 852 397 903 q 211 711 249 802 q 173 500 174 620 q 210 290 172 381 q 322 149 247 200 q 508 97 397 98 q 671 134 605 97 q 773 242 737 172 q 817 413 809 313 l 604 413 l 604 515 l 947 515 q 950 482 949 501 q 950 456 950 463 q 899 211 950 319 q 748 41 848 103 q 502 -21 649 -21 z "},"Ğ":{"ha":992,"x_min":42,"x_max":950,"o":"m 506 1088 q 411 1113 453 1088 q 342 1182 368 1139 q 317 1277 317 1225 l 417 1277 q 443 1214 417 1240 q 506 1188 469 1188 q 570 1214 544 1188 q 596 1277 596 1240 l 696 1277 q 670 1182 696 1225 q 601 1113 644 1139 q 506 1088 558 1088 m 502 -21 q 315 15 399 -21 q 169 119 230 51 q 75 283 108 187 q 42 500 42 379 q 99 776 42 660 q 259 957 156 893 q 502 1020 363 1020 q 773 942 670 1020 q 915 728 876 864 l 790 703 q 687 848 758 794 q 508 902 615 902 q 323 852 397 903 q 211 711 249 802 q 173 500 174 620 q 210 290 172 381 q 322 149 247 200 q 508 97 397 98 q 671 134 605 97 q 773 242 737 172 q 817 413 809 313 l 604 413 l 604 515 l 947 515 q 950 482 949 501 q 950 456 950 463 q 899 211 950 319 q 748 41 848 103 q 502 -21 649 -21 z "},"Ĝ":{"ha":992,"x_min":42,"x_max":950,"o":"m 269 1115 l 438 1313 l 548 1313 l 717 1115 l 596 1115 l 493 1236 l 390 1115 l 269 1115 m 502 -21 q 315 15 399 -21 q 169 119 230 51 q 75 283 108 187 q 42 500 42 379 q 99 776 42 660 q 259 957 156 893 q 502 1020 363 1020 q 773 942 670 1020 q 915 728 876 864 l 790 703 q 687 848 758 794 q 508 902 615 902 q 323 852 397 903 q 211 711 249 802 q 173 500 174 620 q 210 290 172 381 q 322 149 247 200 q 508 97 397 98 q 671 134 605 97 q 773 242 737 172 q 817 413 809 313 l 604 413 l 604 515 l 947 515 q 950 482 949 501 q 950 456 950 463 q 899 211 950 319 q 748 41 848 103 q 502 -21 649 -21 z "},"Ģ":{"ha":992,"x_min":42,"x_max":950,"o":"m 451 -396 l 451 -335 q 478 -331 460 -335 q 509 -311 495 -326 q 522 -270 524 -297 l 451 -270 l 451 -140 l 582 -140 l 582 -270 q 543 -363 582 -331 q 451 -396 503 -396 m 502 -21 q 315 15 399 -21 q 169 119 230 51 q 75 283 108 187 q 42 500 42 379 q 99 776 42 660 q 259 957 156 893 q 502 1020 363 1020 q 773 942 670 1020 q 915 728 876 864 l 790 703 q 687 848 758 794 q 508 902 615 902 q 323 852 397 903 q 211 711 249 802 q 173 500 174 620 q 210 290 172 381 q 322 149 247 200 q 508 97 397 98 q 671 134 605 97 q 773 242 737 172 q 817 413 809 313 l 604 413 l 604 515 l 947 515 q 950 482 949 501 q 950 456 950 463 q 899 211 950 319 q 748 41 848 103 q 502 -21 649 -21 z "},"Ġ":{"ha":992,"x_min":42,"x_max":950,"o":"m 449 1156 l 449 1292 l 585 1292 l 585 1156 l 449 1156 m 502 -21 q 315 15 399 -21 q 169 119 230 51 q 75 283 108 187 q 42 500 42 379 q 99 776 42 660 q 259 957 156 893 q 502 1020 363 1020 q 773 942 670 1020 q 915 728 876 864 l 790 703 q 687 848 758 794 q 508 902 615 902 q 323 852 397 903 q 211 711 249 802 q 173 500 174 620 q 210 290 172 381 q 322 149 247 200 q 508 97 397 98 q 671 134 605 97 q 773 242 737 172 q 817 413 809 313 l 604 413 l 604 515 l 947 515 q 950 482 949 501 q 950 456 950 463 q 899 211 950 319 q 748 41 848 103 q 502 -21 649 -21 z "},"H":{"ha":968,"x_min":97,"x_max":871,"o":"m 97 0 l 97 1000 l 221 1000 l 221 559 l 747 559 l 747 1000 l 871 1000 l 871 0 l 747 0 l 747 442 l 221 442 l 221 0 l 97 0 z "},"Ħ":{"ha":996,"x_min":14,"x_max":982,"o":"m 111 0 l 111 1000 l 235 1000 l 235 559 l 761 559 l 761 1000 l 885 1000 l 885 0 l 761 0 l 761 442 l 235 442 l 235 0 l 111 0 m 14 689 l 14 806 l 982 806 l 982 689 l 14 689 z "},"Ĥ":{"ha":968,"x_min":97,"x_max":871,"o":"m 258 1115 l 428 1313 l 538 1313 l 707 1115 l 585 1115 l 483 1236 l 380 1115 l 258 1115 m 97 0 l 97 1000 l 221 1000 l 221 559 l 747 559 l 747 1000 l 871 1000 l 871 0 l 747 0 l 747 442 l 221 442 l 221 0 l 97 0 z "},"I":{"ha":346,"x_min":111,"x_max":235,"o":"m 111 0 l 111 1000 l 235 1000 l 235 0 l 111 0 z "},"Í":{"ha":346,"x_min":111,"x_max":317,"o":"m 226 1115 l 125 1115 l 216 1344 l 317 1344 l 226 1115 m 111 0 l 111 1000 l 235 1000 l 235 0 l 111 0 z "},"Î":{"ha":346,"x_min":-53,"x_max":396,"o":"m -53 1115 l 117 1313 l 226 1313 l 396 1115 l 274 1115 l 172 1236 l 69 1115 l -53 1115 m 111 0 l 111 1000 l 235 1000 l 235 0 l 111 0 z "},"Ï":{"ha":346,"x_min":-26,"x_max":372,"o":"m 247 1136 l 247 1261 l 372 1261 l 372 1136 l 247 1136 m -26 1136 l -26 1261 l 99 1261 l 99 1136 l -26 1136 m 111 0 l 111 1000 l 235 1000 l 235 0 l 111 0 z "},"İ":{"ha":346,"x_min":105,"x_max":241,"o":"m 105 1156 l 105 1292 l 241 1292 l 241 1156 l 105 1156 m 111 0 l 111 1000 l 235 1000 l 235 0 l 111 0 z "},"Ị":{"ha":346,"x_min":105,"x_max":241,"o":"m 105 -267 l 105 -140 l 241 -140 l 241 -267 l 105 -267 m 111 0 l 111 1000 l 235 1000 l 235 0 l 111 0 z "},"Ì":{"ha":346,"x_min":30,"x_max":235,"o":"m 121 1115 l 30 1344 l 131 1344 l 222 1115 l 121 1115 m 111 0 l 111 1000 l 235 1000 l 235 0 l 111 0 z "},"Ỉ":{"ha":346,"x_min":42,"x_max":283,"o":"m 78 1284 l 42 1347 q 117 1389 74 1378 q 200 1385 160 1399 q 265 1324 241 1370 q 280 1253 283 1287 q 260 1192 278 1219 q 216 1145 243 1164 q 159 1117 189 1126 l 126 1172 q 187 1219 167 1189 q 189 1282 206 1249 q 158 1309 177 1304 q 117 1306 138 1313 q 78 1284 96 1299 m 111 0 l 111 1000 l 235 1000 l 235 0 l 111 0 z "},"Ī":{"ha":346,"x_min":-5,"x_max":351,"o":"m -5 1167 l -5 1268 l 351 1268 l 351 1167 l -5 1167 m 111 0 l 111 1000 l 235 1000 l 235 0 l 111 0 z "},"Į":{"ha":346,"x_min":-24,"x_max":237,"o":"m 114 -334 q 44 -314 75 -334 q -6 -262 13 -294 q -24 -193 -24 -230 q 2 -98 -24 -147 q 74 -7 29 -50 q 174 69 119 37 l 235 0 q 157 -57 192 -24 q 100 -124 122 -90 q 78 -185 78 -158 q 93 -223 78 -208 q 127 -237 108 -237 q 157 -229 142 -237 q 187 -207 173 -221 l 237 -269 q 181 -317 213 -301 q 114 -334 148 -334 m 111 0 l 111 1000 l 235 1000 l 235 0 l 111 0 z "},"Ĩ":{"ha":346,"x_min":-60,"x_max":407,"o":"m 281 1117 q 222 1130 251 1117 q 167 1159 194 1142 q 117 1189 140 1176 q 73 1201 93 1201 q 40 1180 47 1201 q 40 1131 32 1158 l -43 1131 q -32 1248 -60 1200 q 65 1297 -3 1297 q 124 1284 95 1297 q 179 1254 153 1271 q 229 1225 206 1238 q 274 1212 253 1212 q 306 1233 297 1212 q 306 1284 315 1255 l 390 1284 q 378 1166 407 1216 q 281 1117 350 1117 m 111 0 l 111 1000 l 235 1000 l 235 0 l 111 0 z "},"J":{"ha":661,"x_min":0,"x_max":549,"o":"m 278 -20 q 100 37 173 -20 q 0 190 27 94 l 123 219 q 177 133 134 168 q 275 97 219 97 q 349 115 311 97 q 406 173 386 133 q 422 234 420 201 q 424 314 424 268 l 424 1000 l 549 1000 l 549 314 q 549 237 549 271 q 542 172 549 203 q 517 109 535 141 q 416 11 479 43 q 278 -20 353 -20 z "},"Ĵ":{"ha":661,"x_min":0,"x_max":710,"o":"m 261 1115 l 431 1313 l 540 1313 l 710 1115 l 588 1115 l 485 1236 l 383 1115 l 261 1115 m 278 -20 q 100 37 173 -20 q 0 190 27 94 l 123 219 q 177 133 134 168 q 275 97 219 97 q 349 115 311 97 q 406 173 386 133 q 422 234 420 201 q 424 314 424 268 l 424 1000 l 549 1000 l 549 314 q 549 237 549 271 q 542 172 549 203 q 517 109 535 141 q 416 11 479 43 q 278 -20 353 -20 z "},"K":{"ha":849,"x_min":97,"x_max":849,"o":"m 97 0 l 97 1000 l 221 1000 l 221 531 l 658 1000 l 814 1000 l 360 515 l 849 0 l 690 0 l 221 489 l 221 0 l 97 0 z "},"Ķ":{"ha":849,"x_min":97,"x_max":849,"o":"m 385 -396 l 385 -335 q 412 -331 394 -335 q 443 -311 429 -326 q 456 -270 458 -297 l 385 -270 l 385 -140 l 516 -140 l 516 -270 q 477 -363 516 -331 q 385 -396 438 -396 m 97 0 l 97 1000 l 221 1000 l 221 531 l 658 1000 l 814 1000 l 360 515 l 849 0 l 690 0 l 221 489 l 221 0 l 97 0 z "},"L":{"ha":719,"x_min":111,"x_max":699,"o":"m 111 0 l 111 1000 l 235 1000 l 235 117 l 699 117 l 699 0 l 111 0 z "},"Ĺ":{"ha":719,"x_min":111,"x_max":699,"o":"m 226 1115 l 125 1115 l 216 1344 l 317 1344 l 226 1115 m 111 0 l 111 1000 l 235 1000 l 235 117 l 699 117 l 699 0 l 111 0 z "},"Ľ":{"ha":719,"x_min":111,"x_max":699,"o":"m 111 0 l 111 1000 l 235 1000 l 235 117 l 699 117 l 699 0 l 111 0 m 448 694 l 456 752 q 499 763 485 750 q 518 799 514 776 q 519 850 522 822 l 448 850 l 448 1007 l 584 1007 l 584 829 q 548 719 584 756 q 448 694 513 683 z "},"Ļ":{"ha":719,"x_min":111,"x_max":699,"o":"m 340 -396 l 340 -335 q 366 -331 349 -335 q 398 -311 383 -326 q 410 -270 412 -297 l 340 -270 l 340 -140 l 470 -140 l 470 -270 q 431 -363 470 -331 q 340 -396 392 -396 m 111 0 l 111 1000 l 235 1000 l 235 117 l 699 117 l 699 0 l 111 0 z "},"Ł":{"ha":733,"x_min":53,"x_max":713,"o":"m 53 268 l 53 405 l 486 653 l 486 517 l 53 268 m 125 0 l 125 1000 l 249 1000 l 249 117 l 713 117 l 713 0 l 125 0 z "},"M":{"ha":1174,"x_min":97,"x_max":1077,"o":"m 97 0 l 97 1000 l 210 1000 l 588 203 l 963 1000 l 1077 1000 l 1077 1 l 960 1 l 960 728 l 620 0 l 554 0 l 215 728 l 215 0 l 97 0 z "},"N":{"ha":966,"x_min":97,"x_max":869,"o":"m 97 0 l 97 1000 l 222 1000 l 744 219 l 744 1000 l 869 1000 l 869 0 l 744 0 l 222 782 l 222 0 l 97 0 z "},"Ń":{"ha":966,"x_min":97,"x_max":869,"o":"m 546 1115 l 445 1115 l 536 1344 l 637 1344 l 546 1115 m 97 0 l 97 1000 l 222 1000 l 744 219 l 744 1000 l 869 1000 l 869 0 l 744 0 l 222 782 l 222 0 l 97 0 z "},"Ň":{"ha":966,"x_min":97,"x_max":869,"o":"m 274 1313 l 396 1313 l 499 1191 l 601 1313 l 723 1313 l 553 1115 l 444 1115 l 274 1313 m 97 0 l 97 1000 l 222 1000 l 744 219 l 744 1000 l 869 1000 l 869 0 l 744 0 l 222 782 l 222 0 l 97 0 z "},"Ņ":{"ha":966,"x_min":97,"x_max":869,"o":"m 432 -396 l 432 -335 q 458 -331 441 -335 q 490 -311 476 -326 q 503 -270 504 -297 l 432 -270 l 432 -140 l 563 -140 l 563 -270 q 523 -363 563 -331 q 432 -396 484 -396 m 97 0 l 97 1000 l 222 1000 l 744 219 l 744 1000 l 869 1000 l 869 0 l 744 0 l 222 782 l 222 0 l 97 0 z "},"Ŋ":{"ha":966,"x_min":97,"x_max":869,"o":"m 744 1000 l 869 1000 l 869 -127 q 831 -250 869 -210 q 712 -290 792 -290 q 671 -288 692 -290 q 628 -280 650 -285 l 628 -182 q 658 -185 647 -184 q 677 -186 668 -186 q 742 -165 722 -186 q 762 -93 762 -144 q 750 -25 762 -59 q 706 57 738 8 l 222 782 l 222 0 l 97 0 l 97 1000 l 222 1000 l 744 219 l 744 1000 z "},"Ñ":{"ha":966,"x_min":97,"x_max":869,"o":"m 608 1117 q 549 1130 578 1117 q 494 1159 521 1142 q 444 1189 468 1176 q 400 1201 421 1201 q 367 1180 375 1201 q 367 1131 360 1158 l 284 1131 q 296 1248 267 1200 q 392 1297 324 1297 q 451 1284 423 1297 q 507 1254 480 1271 q 557 1225 533 1238 q 601 1212 581 1212 q 633 1233 624 1212 q 633 1284 642 1255 l 717 1284 q 706 1166 734 1216 q 608 1117 677 1117 m 97 0 l 97 1000 l 222 1000 l 744 219 l 744 1000 l 869 1000 l 869 0 l 744 0 l 222 782 l 222 0 l 97 0 z "},"O":{"ha":1017,"x_min":42,"x_max":975,"o":"m 508 -21 q 255 45 359 -21 q 96 228 151 111 q 42 500 42 346 q 96 772 42 654 q 255 955 151 889 q 508 1021 359 1021 q 763 955 658 1021 q 921 772 867 889 q 975 500 975 654 q 921 228 975 346 q 763 45 867 111 q 508 -21 658 -21 m 508 97 q 695 148 620 97 q 807 290 769 199 q 844 500 844 381 q 807 710 844 620 q 695 851 769 801 q 508 903 620 902 q 323 853 397 903 q 211 711 249 802 q 173 500 174 620 q 210 290 172 381 q 322 149 247 200 q 508 97 397 98 z "},"Ó":{"ha":1017,"x_min":42,"x_max":975,"o":"m 569 1115 l 469 1115 l 560 1344 l 660 1344 l 569 1115 m 508 -21 q 255 45 359 -21 q 96 228 151 111 q 42 500 42 346 q 96 772 42 654 q 255 955 151 889 q 508 1021 359 1021 q 763 955 658 1021 q 921 772 867 889 q 975 500 975 654 q 921 228 975 346 q 763 45 867 111 q 508 -21 658 -21 m 508 97 q 695 148 620 97 q 807 290 769 199 q 844 500 844 381 q 807 710 844 620 q 695 851 769 801 q 508 903 620 902 q 323 853 397 903 q 211 711 249 802 q 173 500 174 620 q 210 290 172 381 q 322 149 247 200 q 508 97 397 98 z "},"Ô":{"ha":1017,"x_min":42,"x_max":975,"o":"m 283 1115 l 452 1313 l 562 1313 l 731 1115 l 610 1115 l 507 1236 l 404 1115 l 283 1115 m 508 -21 q 255 45 359 -21 q 96 228 151 111 q 42 500 42 346 q 96 772 42 654 q 255 955 151 889 q 508 1021 359 1021 q 763 955 658 1021 q 921 772 867 889 q 975 500 975 654 q 921 228 975 346 q 763 45 867 111 q 508 -21 658 -21 m 508 97 q 695 148 620 97 q 807 290 769 199 q 844 500 844 381 q 807 710 844 620 q 695 851 769 801 q 508 903 620 902 q 323 853 397 903 q 211 711 249 802 q 173 500 174 620 q 210 290 172 381 q 322 149 247 200 q 508 97 397 98 z "},"Ố":{"ha":1017,"x_min":42,"x_max":975,"o":"m 293 1115 l 463 1313 l 572 1313 l 742 1115 l 620 1115 l 517 1236 l 415 1115 l 293 1115 m 817 1260 l 716 1260 l 807 1490 l 908 1490 l 817 1260 m 508 -21 q 255 45 359 -21 q 96 228 151 111 q 42 500 42 346 q 96 772 42 654 q 255 955 151 889 q 508 1021 359 1021 q 763 955 658 1021 q 921 772 867 889 q 975 500 975 654 q 921 228 975 346 q 763 45 867 111 q 508 -21 658 -21 m 508 97 q 695 148 620 97 q 807 290 769 199 q 844 500 844 381 q 807 710 844 620 q 695 851 769 801 q 508 903 620 902 q 323 853 397 903 q 211 711 249 802 q 173 500 174 620 q 210 290 172 381 q 322 149 247 200 q 508 97 397 98 z "},"Ộ":{"ha":1017,"x_min":42,"x_max":975,"o":"m 283 1115 l 452 1313 l 562 1313 l 731 1115 l 610 1115 l 507 1236 l 404 1115 l 283 1115 m 440 -267 l 440 -140 l 576 -140 l 576 -267 l 440 -267 m 508 -21 q 255 45 359 -21 q 96 228 151 111 q 42 500 42 346 q 96 772 42 654 q 255 955 151 889 q 508 1021 359 1021 q 763 955 658 1021 q 921 772 867 889 q 975 500 975 654 q 921 228 975 346 q 763 45 867 111 q 508 -21 658 -21 m 508 97 q 695 148 620 97 q 807 290 769 199 q 844 500 844 381 q 807 710 844 620 q 695 851 769 801 q 508 903 620 902 q 323 853 397 903 q 211 711 249 802 q 173 500 174 620 q 210 290 172 381 q 322 149 247 200 q 508 97 397 98 z "},"Ồ":{"ha":1017,"x_min":42,"x_max":975,"o":"m 283 1115 l 453 1313 l 563 1313 l 732 1115 l 610 1115 l 508 1236 l 405 1115 l 283 1115 m 708 1260 l 617 1490 l 717 1490 l 808 1260 l 708 1260 m 508 -21 q 255 45 359 -21 q 96 228 151 111 q 42 500 42 346 q 96 772 42 654 q 255 955 151 889 q 508 1021 359 1021 q 763 955 658 1021 q 921 772 867 889 q 975 500 975 654 q 921 228 975 346 q 763 45 867 111 q 508 -21 658 -21 m 508 97 q 695 148 620 97 q 807 290 769 199 q 844 500 844 381 q 807 710 844 620 q 695 851 769 801 q 508 903 620 902 q 323 853 397 903 q 211 711 249 802 q 173 500 174 620 q 210 290 172 381 q 322 149 247 200 q 508 97 397 98 z "},"Ổ":{"ha":1017,"x_min":42,"x_max":975,"o":"m 295 1115 l 465 1313 l 574 1313 l 744 1115 l 622 1115 l 519 1236 l 417 1115 l 295 1115 m 733 1284 l 697 1347 q 772 1389 729 1378 q 856 1385 815 1399 q 920 1324 897 1370 q 936 1253 938 1287 q 916 1192 933 1219 q 872 1145 899 1164 q 815 1117 844 1126 l 782 1172 q 842 1219 823 1189 q 844 1282 862 1249 q 813 1309 833 1304 q 773 1306 794 1313 q 733 1284 751 1299 m 508 -21 q 255 45 359 -21 q 96 228 151 111 q 42 500 42 346 q 96 772 42 654 q 255 955 151 889 q 508 1021 359 1021 q 763 955 658 1021 q 921 772 867 889 q 975 500 975 654 q 921 228 975 346 q 763 45 867 111 q 508 -21 658 -21 m 508 97 q 695 148 620 97 q 807 290 769 199 q 844 500 844 381 q 807 710 844 620 q 695 851 769 801 q 508 903 620 902 q 323 853 397 903 q 211 711 249 802 q 173 500 174 620 q 210 290 172 381 q 322 149 247 200 q 508 97 397 98 z "},"Ỗ":{"ha":1017,"x_min":42,"x_max":975,"o":"m 278 1115 l 448 1313 l 558 1313 l 727 1115 l 606 1115 l 503 1236 l 400 1115 l 278 1115 m 617 1347 q 558 1360 586 1347 q 502 1390 529 1373 q 452 1419 476 1406 q 408 1432 428 1432 q 375 1410 383 1432 q 376 1361 367 1388 l 292 1361 q 303 1479 275 1431 q 400 1527 332 1527 q 459 1514 431 1527 q 515 1485 488 1501 q 565 1455 541 1468 q 609 1442 588 1442 q 642 1464 633 1442 q 642 1515 651 1485 l 725 1515 q 714 1397 742 1447 q 617 1347 685 1347 m 508 -21 q 255 45 359 -21 q 96 228 151 111 q 42 500 42 346 q 96 772 42 654 q 255 955 151 889 q 508 1021 359 1021 q 763 955 658 1021 q 921 772 867 889 q 975 500 975 654 q 921 228 975 346 q 763 45 867 111 q 508 -21 658 -21 m 508 97 q 695 148 620 97 q 807 290 769 199 q 844 500 844 381 q 807 710 844 620 q 695 851 769 801 q 508 903 620 902 q 323 853 397 903 q 211 711 249 802 q 173 500 174 620 q 210 290 172 381 q 322 149 247 200 q 508 97 397 98 z "},"Ö":{"ha":1017,"x_min":42,"x_max":975,"o":"m 582 1136 l 582 1261 l 707 1261 l 707 1136 l 582 1136 m 310 1136 l 310 1261 l 435 1261 l 435 1136 l 310 1136 m 508 -21 q 255 45 359 -21 q 96 228 151 111 q 42 500 42 346 q 96 772 42 654 q 255 955 151 889 q 508 1021 359 1021 q 763 955 658 1021 q 921 772 867 889 q 975 500 975 654 q 921 228 975 346 q 763 45 867 111 q 508 -21 658 -21 m 508 97 q 695 148 620 97 q 807 290 769 199 q 844 500 844 381 q 807 710 844 620 q 695 851 769 801 q 508 903 620 902 q 323 853 397 903 q 211 711 249 802 q 173 500 174 620 q 210 290 172 381 q 322 149 247 200 q 508 97 397 98 z "},"Ọ":{"ha":1017,"x_min":42,"x_max":975,"o":"m 432 -267 l 432 -140 l 568 -140 l 568 -267 l 432 -267 m 508 -21 q 255 45 359 -21 q 96 228 151 111 q 42 500 42 346 q 96 772 42 654 q 255 955 151 889 q 508 1021 359 1021 q 763 955 658 1021 q 921 772 867 889 q 975 500 975 654 q 921 228 975 346 q 763 45 867 111 q 508 -21 658 -21 m 508 97 q 695 148 620 97 q 807 290 769 199 q 844 500 844 381 q 807 710 844 620 q 695 851 769 801 q 508 903 620 902 q 323 853 397 903 q 211 711 249 802 q 173 500 174 620 q 210 290 172 381 q 322 149 247 200 q 508 97 397 98 z "},"Ò":{"ha":1017,"x_min":42,"x_max":975,"o":"m 451 1115 l 360 1344 l 461 1344 l 552 1115 l 451 1115 m 508 -21 q 255 45 359 -21 q 96 228 151 111 q 42 500 42 346 q 96 772 42 654 q 255 955 151 889 q 508 1021 359 1021 q 763 955 658 1021 q 921 772 867 889 q 975 500 975 654 q 921 228 975 346 q 763 45 867 111 q 508 -21 658 -21 m 508 97 q 695 148 620 97 q 807 290 769 199 q 844 500 844 381 q 807 710 844 620 q 695 851 769 801 q 508 903 620 902 q 323 853 397 903 q 211 711 249 802 q 173 500 174 620 q 210 290 172 381 q 322 149 247 200 q 508 97 397 98 z "},"Ỏ":{"ha":1017,"x_min":42,"x_max":975,"o":"m 447 1284 l 411 1347 q 486 1389 443 1378 q 570 1385 529 1399 q 634 1324 610 1370 q 650 1253 652 1287 q 630 1192 647 1219 q 585 1145 613 1164 q 528 1117 558 1126 l 496 1172 q 556 1219 537 1189 q 558 1282 576 1249 q 527 1309 547 1304 q 486 1306 508 1313 q 447 1284 465 1299 m 508 -21 q 255 45 359 -21 q 96 228 151 111 q 42 500 42 346 q 96 772 42 654 q 255 955 151 889 q 508 1021 359 1021 q 763 955 658 1021 q 921 772 867 889 q 975 500 975 654 q 921 228 975 346 q 763 45 867 111 q 508 -21 658 -21 m 508 97 q 695 148 620 97 q 807 290 769 199 q 844 500 844 381 q 807 710 844 620 q 695 851 769 801 q 508 903 620 902 q 323 853 397 903 q 211 711 249 802 q 173 500 174 620 q 210 290 172 381 q 322 149 247 200 q 508 97 397 98 z "},"Ơ":{"ha":1017,"x_min":42,"x_max":975,"o":"m 782 1126 l 881 1126 q 877 1017 890 1063 q 822 945 865 970 q 733 923 786 924 q 635 949 680 922 l 635 1007 q 692 997 669 998 q 735 1005 715 995 q 778 1056 772 1023 q 782 1126 785 1089 m 508 -21 q 255 45 359 -21 q 96 228 151 111 q 42 500 42 346 q 96 772 42 654 q 255 955 151 889 q 508 1021 359 1021 q 763 955 658 1021 q 921 772 867 889 q 975 500 975 654 q 921 228 975 346 q 763 45 867 111 q 508 -21 658 -21 m 508 97 q 695 148 620 97 q 807 290 769 199 q 844 500 844 381 q 807 710 844 620 q 695 851 769 801 q 508 903 620 902 q 323 853 397 903 q 211 711 249 802 q 173 500 174 620 q 210 290 172 381 q 322 149 247 200 q 508 97 397 98 z "},"Ớ":{"ha":1017,"x_min":42,"x_max":975,"o":"m 782 1126 l 881 1126 q 877 1017 890 1063 q 822 945 865 970 q 733 923 786 924 q 635 949 680 922 l 635 1007 q 692 997 669 998 q 735 1005 715 995 q 778 1056 772 1023 q 782 1126 785 1089 m 569 1115 l 469 1115 l 560 1344 l 660 1344 l 569 1115 m 508 -21 q 255 45 359 -21 q 96 228 151 111 q 42 500 42 346 q 96 772 42 654 q 255 955 151 889 q 508 1021 359 1021 q 763 955 658 1021 q 921 772 867 889 q 975 500 975 654 q 921 228 975 346 q 763 45 867 111 q 508 -21 658 -21 m 508 97 q 695 148 620 97 q 807 290 769 199 q 844 500 844 381 q 807 710 844 620 q 695 851 769 801 q 508 903 620 902 q 323 853 397 903 q 211 711 249 802 q 173 500 174 620 q 210 290 172 381 q 322 149 247 200 q 508 97 397 98 z "},"Ợ":{"ha":1017,"x_min":42,"x_max":975,"o":"m 449 -267 l 449 -140 l 585 -140 l 585 -267 l 449 -267 m 782 1126 l 881 1126 q 877 1017 890 1063 q 822 945 865 970 q 733 923 786 924 q 635 949 680 922 l 635 1007 q 692 997 669 998 q 735 1005 715 995 q 778 1056 772 1023 q 782 1126 785 1089 m 508 -21 q 255 45 359 -21 q 96 228 151 111 q 42 500 42 346 q 96 772 42 654 q 255 955 151 889 q 508 1021 359 1021 q 763 955 658 1021 q 921 772 867 889 q 975 500 975 654 q 921 228 975 346 q 763 45 867 111 q 508 -21 658 -21 m 508 97 q 695 148 620 97 q 807 290 769 199 q 844 500 844 381 q 807 710 844 620 q 695 851 769 801 q 508 903 620 902 q 323 853 397 903 q 211 711 249 802 q 173 500 174 620 q 210 290 172 381 q 322 149 247 200 q 508 97 397 98 z "},"Ờ":{"ha":1017,"x_min":42,"x_max":975,"o":"m 782 1126 l 881 1126 q 877 1017 890 1063 q 822 945 865 970 q 733 923 786 924 q 635 949 680 922 l 635 1007 q 692 997 669 998 q 735 1005 715 995 q 778 1056 772 1023 q 782 1126 785 1089 m 451 1115 l 360 1344 l 461 1344 l 552 1115 l 451 1115 m 508 -21 q 255 45 359 -21 q 96 228 151 111 q 42 500 42 346 q 96 772 42 654 q 255 955 151 889 q 508 1021 359 1021 q 763 955 658 1021 q 921 772 867 889 q 975 500 975 654 q 921 228 975 346 q 763 45 867 111 q 508 -21 658 -21 m 508 97 q 695 148 620 97 q 807 290 769 199 q 844 500 844 381 q 807 710 844 620 q 695 851 769 801 q 508 903 620 902 q 323 853 397 903 q 211 711 249 802 q 173 500 174 620 q 210 290 172 381 q 322 149 247 200 q 508 97 397 98 z "},"Ở":{"ha":1017,"x_min":42,"x_max":975,"o":"m 782 1126 l 881 1126 q 877 1017 890 1063 q 822 945 865 970 q 733 923 786 924 q 635 949 680 922 l 635 1007 q 692 997 669 998 q 735 1005 715 995 q 778 1056 772 1023 q 782 1126 785 1089 m 447 1284 l 411 1347 q 486 1389 443 1378 q 570 1385 529 1399 q 634 1324 610 1370 q 650 1253 652 1287 q 630 1192 647 1219 q 585 1145 613 1164 q 528 1117 558 1126 l 496 1172 q 556 1219 537 1189 q 558 1282 576 1249 q 527 1309 547 1304 q 486 1306 508 1313 q 447 1284 465 1299 m 508 -21 q 255 45 359 -21 q 96 228 151 111 q 42 500 42 346 q 96 772 42 654 q 255 955 151 889 q 508 1021 359 1021 q 763 955 658 1021 q 921 772 867 889 q 975 500 975 654 q 921 228 975 346 q 763 45 867 111 q 508 -21 658 -21 m 508 97 q 695 148 620 97 q 807 290 769 199 q 844 500 844 381 q 807 710 844 620 q 695 851 769 801 q 508 903 620 902 q 323 853 397 903 q 211 711 249 802 q 173 500 174 620 q 210 290 172 381 q 322 149 247 200 q 508 97 397 98 z "},"Ỡ":{"ha":1017,"x_min":42,"x_max":975,"o":"m 782 1126 l 881 1126 q 877 1017 890 1063 q 822 945 865 970 q 733 923 786 924 q 635 949 680 922 l 635 1007 q 692 997 669 998 q 735 1005 715 995 q 778 1056 772 1023 q 782 1126 785 1089 m 508 -21 q 255 45 359 -21 q 96 228 151 111 q 42 500 42 346 q 96 772 42 654 q 255 955 151 889 q 508 1021 359 1021 q 763 955 658 1021 q 921 772 867 889 q 975 500 975 654 q 921 228 975 346 q 763 45 867 111 q 508 -21 658 -21 m 508 97 q 695 148 620 97 q 807 290 769 199 q 844 500 844 381 q 807 710 844 620 q 695 851 769 801 q 508 903 620 902 q 323 853 397 903 q 211 711 249 802 q 173 500 174 620 q 210 290 172 381 q 322 149 247 200 q 508 97 397 98 m 616 1117 q 557 1130 585 1117 q 502 1159 528 1142 q 451 1189 475 1176 q 408 1201 428 1201 q 374 1180 382 1201 q 375 1131 367 1158 l 292 1131 q 303 1248 274 1200 q 399 1297 331 1297 q 459 1284 430 1297 q 514 1254 488 1271 q 564 1225 540 1238 q 608 1212 588 1212 q 641 1233 632 1212 q 641 1284 650 1255 l 724 1284 q 713 1166 742 1216 q 616 1117 685 1117 z "},"Ő":{"ha":1017,"x_min":42,"x_max":975,"o":"m 688 1115 l 587 1115 l 678 1344 l 778 1344 l 688 1115 m 419 1115 l 318 1115 l 409 1344 l 510 1344 l 419 1115 m 508 -21 q 255 45 359 -21 q 96 228 151 111 q 42 500 42 346 q 96 772 42 654 q 255 955 151 889 q 508 1021 359 1021 q 763 955 658 1021 q 921 772 867 889 q 975 500 975 654 q 921 228 975 346 q 763 45 867 111 q 508 -21 658 -21 m 508 97 q 695 148 620 97 q 807 290 769 199 q 844 500 844 381 q 807 710 844 620 q 695 851 769 801 q 508 903 620 902 q 323 853 397 903 q 211 711 249 802 q 173 500 174 620 q 210 290 172 381 q 322 149 247 200 q 508 97 397 98 z "},"Ō":{"ha":1017,"x_min":42,"x_max":975,"o":"m 331 1167 l 331 1268 l 686 1268 l 686 1167 l 331 1167 m 508 -21 q 255 45 359 -21 q 96 228 151 111 q 42 500 42 346 q 96 772 42 654 q 255 955 151 889 q 508 1021 359 1021 q 763 955 658 1021 q 921 772 867 889 q 975 500 975 654 q 921 228 975 346 q 763 45 867 111 q 508 -21 658 -21 m 508 97 q 695 148 620 97 q 807 290 769 199 q 844 500 844 381 q 807 710 844 620 q 695 851 769 801 q 508 903 620 902 q 323 853 397 903 q 211 711 249 802 q 173 500 174 620 q 210 290 172 381 q 322 149 247 200 q 508 97 397 98 z "},"Ø":{"ha":1017,"x_min":36,"x_max":994,"o":"m 124 -18 l 36 61 l 160 198 l 180 217 l 766 859 l 777 874 l 906 1016 l 994 937 l 854 782 l 840 770 l 253 126 l 240 108 l 124 -18 m 508 -21 q 255 45 359 -21 q 96 228 151 111 q 42 500 42 346 q 96 772 42 654 q 255 955 151 889 q 508 1021 359 1021 q 763 955 658 1021 q 921 772 867 889 q 975 500 975 654 q 921 228 975 346 q 763 45 867 111 q 508 -21 658 -21 m 508 97 q 695 148 620 97 q 807 290 769 199 q 844 500 844 381 q 807 710 844 620 q 695 851 769 801 q 508 903 620 902 q 323 853 397 903 q 211 711 249 802 q 173 500 174 620 q 210 290 172 381 q 322 149 247 200 q 508 97 397 98 z "},"Õ":{"ha":1017,"x_min":42,"x_max":975,"o":"m 508 -21 q 255 45 359 -21 q 96 228 151 111 q 42 500 42 346 q 96 772 42 654 q 255 955 151 889 q 508 1021 359 1021 q 763 955 658 1021 q 921 772 867 889 q 975 500 975 654 q 921 228 975 346 q 763 45 867 111 q 508 -21 658 -21 m 508 97 q 695 148 620 97 q 807 290 769 199 q 844 500 844 381 q 807 710 844 620 q 695 851 769 801 q 508 903 620 902 q 323 853 397 903 q 211 711 249 802 q 173 500 174 620 q 210 290 172 381 q 322 149 247 200 q 508 97 397 98 m 626 1117 q 567 1130 596 1117 q 513 1159 539 1142 q 463 1189 486 1176 q 418 1201 439 1201 q 385 1180 393 1201 q 385 1131 378 1158 l 302 1131 q 314 1248 285 1200 q 410 1297 342 1297 q 469 1284 441 1297 q 525 1254 498 1271 q 575 1225 551 1238 q 619 1212 599 1212 q 651 1233 642 1212 q 651 1284 660 1255 l 735 1284 q 724 1166 752 1216 q 626 1117 695 1117 z "},"Œ":{"ha":1552,"x_min":42,"x_max":1483,"o":"m 508 -21 q 255 45 359 -21 q 96 228 151 111 q 42 500 42 346 q 96 772 42 654 q 255 955 151 889 q 508 1021 359 1021 q 763 955 658 1021 q 921 772 867 889 q 975 500 975 654 q 921 228 975 346 q 763 45 867 111 q 508 -21 658 -21 m 508 97 q 695 148 620 97 q 807 290 769 199 q 844 500 844 381 q 807 710 844 620 q 695 851 769 801 q 508 903 620 902 q 323 853 397 903 q 211 711 249 802 q 173 500 174 620 q 210 290 172 381 q 322 149 247 200 q 508 97 397 98 m 851 0 l 851 1000 l 1483 1000 l 1483 883 l 974 883 l 974 569 l 1399 569 l 1399 452 l 974 452 l 974 117 l 1483 117 l 1483 0 l 851 0 z "},"P":{"ha":855,"x_min":97,"x_max":813,"o":"m 97 0 l 97 1000 l 492 1000 q 527 999 507 1000 q 566 994 547 998 q 702 939 647 982 q 785 830 758 896 q 813 685 813 765 q 785 540 813 606 q 702 431 757 474 q 566 375 647 388 q 527 371 547 372 q 492 369 507 369 l 221 369 l 221 0 l 97 0 m 221 487 l 488 487 q 518 488 501 487 q 551 493 535 490 q 629 534 599 504 q 673 603 659 563 q 687 685 687 643 q 673 766 687 726 q 629 836 659 806 q 551 876 599 866 q 518 882 535 881 q 488 883 501 883 l 221 883 l 221 487 z "},"Þ":{"ha":842,"x_min":97,"x_max":801,"o":"m 97 0 l 97 1000 l 222 1000 l 222 815 l 483 815 q 588 797 537 815 q 661 761 626 785 q 720 706 695 738 q 780 610 758 665 q 801 500 801 556 q 782 394 801 446 q 728 301 762 343 q 621 217 686 249 q 483 185 556 185 l 222 185 l 222 0 l 97 0 m 222 303 l 483 303 q 563 323 523 303 q 630 376 603 342 q 663 435 651 403 q 674 500 675 467 q 659 574 673 538 q 619 636 645 610 q 557 680 594 663 q 483 697 520 697 l 222 697 l 222 303 z "},"Q":{"ha":1017,"x_min":42,"x_max":975,"o":"m 882 -20 l 609 251 l 690 333 l 962 61 l 882 -20 m 508 -21 q 255 45 359 -21 q 96 228 151 111 q 42 500 42 346 q 96 772 42 654 q 255 955 151 889 q 508 1021 359 1021 q 763 955 658 1021 q 921 772 867 889 q 975 500 975 654 q 921 228 975 346 q 763 45 867 111 q 508 -21 658 -21 m 508 97 q 695 148 620 97 q 807 290 769 199 q 844 500 844 381 q 807 710 844 620 q 695 851 769 801 q 508 903 620 902 q 323 853 397 903 q 211 711 249 802 q 173 500 174 620 q 210 290 172 381 q 322 149 247 200 q 508 97 397 98 z "},"R":{"ha":890,"x_min":97,"x_max":834,"o":"m 97 0 l 97 1000 l 492 1000 q 527 999 507 1000 q 566 994 547 998 q 702 939 647 982 q 785 830 758 896 q 813 685 813 765 q 753 484 813 569 q 576 377 692 399 l 528 369 l 221 369 l 221 0 l 97 0 m 692 0 l 495 407 l 617 444 l 834 0 l 692 0 m 221 487 l 488 487 q 518 488 501 487 q 551 493 535 490 q 629 534 599 504 q 673 603 659 563 q 687 685 687 643 q 673 766 687 726 q 629 836 659 806 q 551 876 599 866 q 518 882 535 881 q 488 883 501 883 l 221 883 l 221 487 z "},"Ŕ":{"ha":890,"x_min":97,"x_max":834,"o":"m 465 1115 l 365 1115 l 456 1344 l 556 1344 l 465 1115 m 97 0 l 97 1000 l 492 1000 q 527 999 507 1000 q 566 994 547 998 q 702 939 647 982 q 785 830 758 896 q 813 685 813 765 q 753 484 813 569 q 576 377 692 399 l 528 369 l 221 369 l 221 0 l 97 0 m 692 0 l 495 407 l 617 444 l 834 0 l 692 0 m 221 487 l 488 487 q 518 488 501 487 q 551 493 535 490 q 629 534 599 504 q 673 603 659 563 q 687 685 687 643 q 673 766 687 726 q 629 836 659 806 q 551 876 599 866 q 518 882 535 881 q 488 883 501 883 l 221 883 l 221 487 z "},"Ř":{"ha":890,"x_min":97,"x_max":834,"o":"m 183 1313 l 305 1313 l 408 1191 l 510 1313 l 632 1313 l 463 1115 l 353 1115 l 183 1313 m 97 0 l 97 1000 l 492 1000 q 527 999 507 1000 q 566 994 547 998 q 702 939 647 982 q 785 830 758 896 q 813 685 813 765 q 753 484 813 569 q 576 377 692 399 l 528 369 l 221 369 l 221 0 l 97 0 m 692 0 l 495 407 l 617 444 l 834 0 l 692 0 m 221 487 l 488 487 q 518 488 501 487 q 551 493 535 490 q 629 534 599 504 q 673 603 659 563 q 687 685 687 643 q 673 766 687 726 q 629 836 659 806 q 551 876 599 866 q 518 882 535 881 q 488 883 501 883 l 221 883 l 221 487 z "},"Ŗ":{"ha":890,"x_min":97,"x_max":834,"o":"m 372 -396 l 372 -335 q 399 -331 381 -335 q 430 -311 416 -326 q 443 -270 444 -297 l 372 -270 l 372 -140 l 503 -140 l 503 -270 q 464 -363 503 -331 q 372 -396 424 -396 m 97 0 l 97 1000 l 492 1000 q 527 999 507 1000 q 566 994 547 998 q 702 939 647 982 q 785 830 758 896 q 813 685 813 765 q 753 484 813 569 q 576 377 692 399 l 528 369 l 221 369 l 221 0 l 97 0 m 692 0 l 495 407 l 617 444 l 834 0 l 692 0 m 221 487 l 488 487 q 518 488 501 487 q 551 493 535 490 q 629 534 599 504 q 673 603 659 563 q 687 685 687 643 q 673 766 687 726 q 629 836 659 806 q 551 876 599 866 q 518 882 535 881 q 488 883 501 883 l 221 883 l 221 487 z "},"S":{"ha":875,"x_min":49,"x_max":826,"o":"m 452 -21 q 261 15 346 -21 q 120 118 176 51 q 49 277 65 185 l 176 297 q 277 150 201 203 q 458 97 354 97 q 580 118 526 97 q 667 178 635 139 q 699 272 699 218 q 687 330 699 306 q 656 370 676 353 q 611 399 636 388 q 559 419 586 411 l 304 494 q 224 526 263 507 q 154 574 185 545 q 106 643 124 603 q 88 740 88 684 q 134 891 88 828 q 259 988 180 954 q 438 1020 338 1021 q 618 984 538 1019 q 750 884 697 949 q 820 728 802 819 l 689 705 q 643 810 678 766 q 553 878 607 854 q 436 903 500 902 q 326 883 375 903 q 247 827 276 863 q 218 745 218 792 q 244 671 218 699 q 309 627 271 643 q 385 600 348 610 l 575 545 q 650 520 608 536 q 733 475 693 504 q 800 399 774 447 q 826 279 826 351 q 798 151 826 207 q 717 57 769 94 q 598 -1 666 19 q 452 -21 530 -21 z "},"Ś":{"ha":875,"x_min":49,"x_max":826,"o":"m 495 1115 l 394 1115 l 485 1344 l 586 1344 l 495 1115 m 452 -21 q 261 15 346 -21 q 120 118 176 51 q 49 277 65 185 l 176 297 q 277 150 201 203 q 458 97 354 97 q 580 118 526 97 q 667 178 635 139 q 699 272 699 218 q 687 330 699 306 q 656 370 676 353 q 611 399 636 388 q 559 419 586 411 l 304 494 q 224 526 263 507 q 154 574 185 545 q 106 643 124 603 q 88 740 88 684 q 134 891 88 828 q 259 988 180 954 q 438 1020 338 1021 q 618 984 538 1019 q 750 884 697 949 q 820 728 802 819 l 689 705 q 643 810 678 766 q 553 878 607 854 q 436 903 500 902 q 326 883 375 903 q 247 827 276 863 q 218 745 218 792 q 244 671 218 699 q 309 627 271 643 q 385 600 348 610 l 575 545 q 650 520 608 536 q 733 475 693 504 q 800 399 774 447 q 826 279 826 351 q 798 151 826 207 q 717 57 769 94 q 598 -1 666 19 q 452 -21 530 -21 z "},"Š":{"ha":875,"x_min":49,"x_max":826,"o":"m 231 1313 l 352 1313 l 455 1191 l 558 1313 l 679 1313 l 510 1115 l 400 1115 l 231 1313 m 452 -21 q 261 15 346 -21 q 120 118 176 51 q 49 277 65 185 l 176 297 q 277 150 201 203 q 458 97 354 97 q 580 118 526 97 q 667 178 635 139 q 699 272 699 218 q 687 330 699 306 q 656 370 676 353 q 611 399 636 388 q 559 419 586 411 l 304 494 q 224 526 263 507 q 154 574 185 545 q 106 643 124 603 q 88 740 88 684 q 134 891 88 828 q 259 988 180 954 q 438 1020 338 1021 q 618 984 538 1019 q 750 884 697 949 q 820 728 802 819 l 689 705 q 643 810 678 766 q 553 878 607 854 q 436 903 500 902 q 326 883 375 903 q 247 827 276 863 q 218 745 218 792 q 244 671 218 699 q 309 627 271 643 q 385 600 348 610 l 575 545 q 650 520 608 536 q 733 475 693 504 q 800 399 774 447 q 826 279 826 351 q 798 151 826 207 q 717 57 769 94 q 598 -1 666 19 q 452 -21 530 -21 z "},"Ş":{"ha":875,"x_min":49,"x_max":826,"o":"m 439 -334 q 391 -327 413 -334 q 348 -311 368 -321 l 378 -231 q 428 -242 409 -242 q 467 -227 453 -242 q 481 -194 481 -212 q 453 -150 481 -163 q 389 -126 425 -136 l 440 17 l 524 17 l 491 -74 q 552 -122 529 -92 q 575 -197 575 -152 q 535 -295 575 -256 q 439 -334 494 -334 m 452 -21 q 261 15 346 -21 q 120 118 176 51 q 49 277 65 185 l 176 297 q 277 150 201 203 q 458 97 354 97 q 580 118 526 97 q 667 178 635 139 q 699 272 699 218 q 687 330 699 306 q 656 370 676 353 q 611 399 636 388 q 559 419 586 411 l 304 494 q 224 526 263 507 q 154 574 185 545 q 106 643 124 603 q 88 740 88 684 q 134 891 88 828 q 259 988 180 954 q 438 1020 338 1021 q 618 984 538 1019 q 750 884 697 949 q 820 728 802 819 l 689 705 q 643 810 678 766 q 553 878 607 854 q 436 903 500 902 q 326 883 375 903 q 247 827 276 863 q 218 745 218 792 q 244 671 218 699 q 309 627 271 643 q 385 600 348 610 l 575 545 q 650 520 608 536 q 733 475 693 504 q 800 399 774 447 q 826 279 826 351 q 798 151 826 207 q 717 57 769 94 q 598 -1 666 19 q 452 -21 530 -21 z "},"Ŝ":{"ha":875,"x_min":49,"x_max":826,"o":"m 224 1115 l 394 1313 l 503 1313 l 673 1115 l 551 1115 l 449 1236 l 346 1115 l 224 1115 m 452 -21 q 261 15 346 -21 q 120 118 176 51 q 49 277 65 185 l 176 297 q 277 150 201 203 q 458 97 354 97 q 580 118 526 97 q 667 178 635 139 q 699 272 699 218 q 687 330 699 306 q 656 370 676 353 q 611 399 636 388 q 559 419 586 411 l 304 494 q 224 526 263 507 q 154 574 185 545 q 106 643 124 603 q 88 740 88 684 q 134 891 88 828 q 259 988 180 954 q 438 1020 338 1021 q 618 984 538 1019 q 750 884 697 949 q 820 728 802 819 l 689 705 q 643 810 678 766 q 553 878 607 854 q 436 903 500 902 q 326 883 375 903 q 247 827 276 863 q 218 745 218 792 q 244 671 218 699 q 309 627 271 643 q 385 600 348 610 l 575 545 q 650 520 608 536 q 733 475 693 504 q 800 399 774 447 q 826 279 826 351 q 798 151 826 207 q 717 57 769 94 q 598 -1 666 19 q 452 -21 530 -21 z "},"Ș":{"ha":875,"x_min":49,"x_max":826,"o":"m 406 -396 l 406 -335 q 432 -331 415 -335 q 464 -311 449 -326 q 476 -270 478 -297 l 406 -270 l 406 -140 l 536 -140 l 536 -270 q 497 -363 536 -331 q 406 -396 458 -396 m 452 -21 q 261 15 346 -21 q 120 118 176 51 q 49 277 65 185 l 176 297 q 277 150 201 203 q 458 97 354 97 q 580 118 526 97 q 667 178 635 139 q 699 272 699 218 q 687 330 699 306 q 656 370 676 353 q 611 399 636 388 q 559 419 586 411 l 304 494 q 224 526 263 507 q 154 574 185 545 q 106 643 124 603 q 88 740 88 684 q 134 891 88 828 q 259 988 180 954 q 438 1020 338 1021 q 618 984 538 1019 q 750 884 697 949 q 820 728 802 819 l 689 705 q 643 810 678 766 q 553 878 607 854 q 436 903 500 902 q 326 883 375 903 q 247 827 276 863 q 218 745 218 792 q 244 671 218 699 q 309 627 271 643 q 385 600 348 610 l 575 545 q 650 520 608 536 q 733 475 693 504 q 800 399 774 447 q 826 279 826 351 q 798 151 826 207 q 717 57 769 94 q 598 -1 666 19 q 452 -21 530 -21 z "},"ẞ":{"ha":1003,"x_min":97,"x_max":919,"o":"m 602 -21 q 526 -15 559 -21 q 465 0 493 -9 l 465 122 q 527 107 497 111 q 590 102 557 102 q 695 123 649 102 q 770 185 742 144 q 797 290 797 227 q 764 395 797 353 q 674 460 731 438 q 543 483 617 482 l 526 569 l 695 853 q 616 888 661 873 q 511 902 572 902 q 332 851 401 902 q 240 713 263 799 q 227 630 231 674 q 224 541 224 585 l 224 0 l 97 0 l 97 588 q 102 690 97 647 q 118 767 108 733 q 206 917 146 861 q 344 997 266 972 q 505 1021 422 1021 q 653 1002 588 1021 q 767 958 717 984 q 853 906 816 931 l 664 574 q 788 530 729 565 q 883 434 846 494 q 919 287 919 374 q 836 62 919 145 q 602 -21 753 -21 z "},"T":{"ha":833,"x_min":14,"x_max":819,"o":"m 355 0 l 355 883 l 14 883 l 14 1000 l 819 1000 l 819 883 l 478 883 l 478 0 l 355 0 z "},"Ŧ":{"ha":833,"x_min":14,"x_max":819,"o":"m 104 438 l 104 562 l 729 562 l 729 438 l 104 438 m 355 0 l 355 883 l 14 883 l 14 1000 l 819 1000 l 819 883 l 478 883 l 478 0 l 355 0 z "},"Ť":{"ha":833,"x_min":14,"x_max":819,"o":"m 191 1313 l 313 1313 l 415 1191 l 518 1313 l 640 1313 l 470 1115 l 360 1115 l 191 1313 m 355 0 l 355 883 l 14 883 l 14 1000 l 819 1000 l 819 883 l 478 883 l 478 0 l 355 0 z "},"Ţ":{"ha":833,"x_min":14,"x_max":819,"o":"m 355 0 l 355 883 l 14 883 l 14 1000 l 819 1000 l 819 883 l 478 883 l 478 0 l 355 0 m 376 -339 q 328 -332 351 -339 q 285 -316 306 -326 l 315 -236 q 366 -247 347 -247 q 405 -232 391 -247 q 418 -199 418 -217 q 390 -155 418 -168 q 326 -131 363 -141 l 377 12 l 461 13 l 428 -79 q 490 -127 467 -97 q 513 -202 513 -157 q 472 -300 513 -261 q 376 -339 432 -339 z "},"Ț":{"ha":833,"x_min":14,"x_max":819,"o":"m 351 -396 l 351 -335 q 378 -331 360 -335 q 409 -311 395 -326 q 422 -270 424 -297 l 351 -270 l 351 -140 l 482 -140 l 482 -270 q 443 -363 482 -331 q 351 -396 403 -396 m 355 0 l 355 883 l 14 883 l 14 1000 l 819 1000 l 819 883 l 478 883 l 478 0 l 355 0 z "},"U":{"ha":983,"x_min":97,"x_max":886,"o":"m 492 -21 q 287 27 376 -21 q 148 161 198 75 q 97 365 97 248 l 97 999 l 222 1000 l 222 375 q 246 252 222 304 q 310 165 270 199 q 397 113 349 130 q 492 96 444 96 q 588 113 540 96 q 675 165 635 131 q 738 252 714 199 q 761 375 761 305 l 761 1000 l 886 1000 l 886 365 q 836 162 886 249 q 697 27 785 75 q 492 -21 608 -21 z "},"Ú":{"ha":983,"x_min":97,"x_max":886,"o":"m 533 1115 l 433 1115 l 524 1344 l 624 1344 l 533 1115 m 492 -21 q 287 27 376 -21 q 148 161 198 75 q 97 365 97 248 l 97 999 l 222 1000 l 222 375 q 246 252 222 304 q 310 165 270 199 q 397 113 349 130 q 492 96 444 96 q 588 113 540 96 q 675 165 635 131 q 738 252 714 199 q 761 375 761 305 l 761 1000 l 886 1000 l 886 365 q 836 162 886 249 q 697 27 785 75 q 492 -21 608 -21 z "},"Ŭ":{"ha":983,"x_min":97,"x_max":886,"o":"m 492 1088 q 397 1113 440 1088 q 328 1182 353 1139 q 302 1277 302 1225 l 402 1277 q 428 1214 402 1240 q 492 1188 455 1188 q 555 1214 529 1188 q 581 1277 581 1240 l 681 1277 q 656 1182 681 1225 q 588 1113 631 1139 q 492 1088 544 1088 m 492 -21 q 287 27 376 -21 q 148 161 198 75 q 97 365 97 248 l 97 999 l 222 1000 l 222 375 q 246 252 222 304 q 310 165 270 199 q 397 113 349 130 q 492 96 444 96 q 588 113 540 96 q 675 165 635 131 q 738 252 714 199 q 761 375 761 305 l 761 1000 l 886 1000 l 886 365 q 836 162 886 249 q 697 27 785 75 q 492 -21 608 -21 z "},"Û":{"ha":983,"x_min":97,"x_max":886,"o":"m 266 1115 l 435 1313 l 545 1313 l 715 1115 l 593 1115 l 490 1236 l 388 1115 l 266 1115 m 492 -21 q 287 27 376 -21 q 148 161 198 75 q 97 365 97 248 l 97 999 l 222 1000 l 222 375 q 246 252 222 304 q 310 165 270 199 q 397 113 349 130 q 492 96 444 96 q 588 113 540 96 q 675 165 635 131 q 738 252 714 199 q 761 375 761 305 l 761 1000 l 886 1000 l 886 365 q 836 162 886 249 q 697 27 785 75 q 492 -21 608 -21 z "},"Ü":{"ha":983,"x_min":97,"x_max":886,"o":"m 565 1136 l 565 1261 l 690 1261 l 690 1136 l 565 1136 m 293 1136 l 293 1261 l 418 1261 l 418 1136 l 293 1136 m 492 -21 q 287 27 376 -21 q 148 161 198 75 q 97 365 97 248 l 97 999 l 222 1000 l 222 375 q 246 252 222 304 q 310 165 270 199 q 397 113 349 130 q 492 96 444 96 q 588 113 540 96 q 675 165 635 131 q 738 252 714 199 q 761 375 761 305 l 761 1000 l 886 1000 l 886 365 q 836 162 886 249 q 697 27 785 75 q 492 -21 608 -21 z "},"Ụ":{"ha":983,"x_min":97,"x_max":886,"o":"m 438 -267 l 438 -140 l 574 -140 l 574 -267 l 438 -267 m 492 -21 q 287 27 376 -21 q 148 161 198 75 q 97 365 97 248 l 97 999 l 222 1000 l 222 375 q 246 252 222 304 q 310 165 270 199 q 397 113 349 130 q 492 96 444 96 q 588 113 540 96 q 675 165 635 131 q 738 252 714 199 q 761 375 761 305 l 761 1000 l 886 1000 l 886 365 q 836 162 886 249 q 697 27 785 75 q 492 -21 608 -21 z "},"Ù":{"ha":983,"x_min":97,"x_max":886,"o":"m 456 1115 l 365 1344 l 465 1344 l 556 1115 l 456 1115 m 492 -21 q 287 27 376 -21 q 148 161 198 75 q 97 365 97 248 l 97 999 l 222 1000 l 222 375 q 246 252 222 304 q 310 165 270 199 q 397 113 349 130 q 492 96 444 96 q 588 113 540 96 q 675 165 635 131 q 738 252 714 199 q 761 375 761 305 l 761 1000 l 886 1000 l 886 365 q 836 162 886 249 q 697 27 785 75 q 492 -21 608 -21 z "},"Ủ":{"ha":983,"x_min":97,"x_max":886,"o":"m 422 1284 l 385 1347 q 460 1389 417 1378 q 544 1385 503 1399 q 608 1324 584 1370 q 623 1253 626 1287 q 603 1192 621 1219 q 559 1145 586 1164 q 502 1117 533 1126 l 469 1172 q 530 1219 510 1189 q 532 1282 550 1249 q 501 1309 520 1304 q 460 1306 481 1313 q 422 1284 439 1299 m 492 -21 q 287 27 376 -21 q 148 161 198 75 q 97 365 97 248 l 97 999 l 222 1000 l 222 375 q 246 252 222 304 q 310 165 270 199 q 397 113 349 130 q 492 96 444 96 q 588 113 540 96 q 675 165 635 131 q 738 252 714 199 q 761 375 761 305 l 761 1000 l 886 1000 l 886 365 q 836 162 886 249 q 697 27 785 75 q 492 -21 608 -21 z "},"Ư":{"ha":983,"x_min":97,"x_max":1042,"o":"m 934 1125 l 1033 1125 q 1029 1017 1042 1062 q 975 945 1015 972 q 895 922 940 923 q 808 926 850 920 l 808 1000 q 838 1001 823 1001 q 869 1004 853 1001 q 927 1050 918 1014 q 934 1125 936 1085 m 492 -21 q 287 27 376 -21 q 148 161 198 75 q 97 365 97 248 l 97 999 l 222 1000 l 222 375 q 246 252 222 304 q 310 165 270 199 q 397 113 349 130 q 492 96 444 96 q 588 113 540 96 q 675 165 635 131 q 738 252 714 199 q 761 375 761 305 l 761 1000 l 886 1000 l 886 365 q 836 162 886 249 q 697 27 785 75 q 492 -21 608 -21 z "},"Ứ":{"ha":983,"x_min":97,"x_max":1042,"o":"m 934 1125 l 1033 1125 q 1029 1017 1042 1062 q 975 945 1015 972 q 895 922 940 923 q 808 926 850 920 l 808 1000 q 838 1001 823 1001 q 869 1004 853 1001 q 927 1050 918 1014 q 934 1125 936 1085 m 533 1115 l 433 1115 l 524 1344 l 624 1344 l 533 1115 m 492 -21 q 287 27 376 -21 q 148 161 198 75 q 97 365 97 248 l 97 999 l 222 1000 l 222 375 q 246 252 222 304 q 310 165 270 199 q 397 113 349 130 q 492 96 444 96 q 588 113 540 96 q 675 165 635 131 q 738 252 714 199 q 761 375 761 305 l 761 1000 l 886 1000 l 886 365 q 836 162 886 249 q 697 27 785 75 q 492 -21 608 -21 z "},"Ự":{"ha":983,"x_min":97,"x_max":1042,"o":"m 429 -267 l 429 -140 l 565 -140 l 565 -267 l 429 -267 m 934 1125 l 1033 1125 q 1029 1017 1042 1062 q 975 945 1015 972 q 895 922 940 923 q 808 926 850 920 l 808 1000 q 838 1001 823 1001 q 869 1004 853 1001 q 927 1050 918 1014 q 934 1125 936 1085 m 492 -21 q 287 27 376 -21 q 148 161 198 75 q 97 365 97 248 l 97 999 l 222 1000 l 222 375 q 246 252 222 304 q 310 165 270 199 q 397 113 349 130 q 492 96 444 96 q 588 113 540 96 q 675 165 635 131 q 738 252 714 199 q 761 375 761 305 l 761 1000 l 886 1000 l 886 365 q 836 162 886 249 q 697 27 785 75 q 492 -21 608 -21 z "},"Ừ":{"ha":983,"x_min":97,"x_max":1042,"o":"m 934 1125 l 1033 1125 q 1029 1017 1042 1062 q 975 945 1015 972 q 895 922 940 923 q 808 926 850 920 l 808 1000 q 838 1001 823 1001 q 869 1004 853 1001 q 927 1050 918 1014 q 934 1125 936 1085 m 456 1115 l 365 1344 l 465 1344 l 556 1115 l 456 1115 m 492 -21 q 287 27 376 -21 q 148 161 198 75 q 97 365 97 248 l 97 999 l 222 1000 l 222 375 q 246 252 222 304 q 310 165 270 199 q 397 113 349 130 q 492 96 444 96 q 588 113 540 96 q 675 165 635 131 q 738 252 714 199 q 761 375 761 305 l 761 1000 l 886 1000 l 886 365 q 836 162 886 249 q 697 27 785 75 q 492 -21 608 -21 z "},"Ử":{"ha":983,"x_min":97,"x_max":1042,"o":"m 934 1125 l 1033 1125 q 1029 1017 1042 1062 q 975 945 1015 972 q 895 922 940 923 q 808 926 850 920 l 808 1000 q 838 1001 823 1001 q 869 1004 853 1001 q 927 1050 918 1014 q 934 1125 936 1085 m 422 1284 l 385 1347 q 460 1389 417 1378 q 544 1385 503 1399 q 608 1324 584 1370 q 623 1253 626 1287 q 603 1192 621 1219 q 559 1145 586 1164 q 502 1117 533 1126 l 469 1172 q 530 1219 510 1189 q 532 1282 550 1249 q 501 1309 520 1304 q 460 1306 481 1313 q 422 1284 439 1299 m 492 -21 q 287 27 376 -21 q 148 161 198 75 q 97 365 97 248 l 97 999 l 222 1000 l 222 375 q 246 252 222 304 q 310 165 270 199 q 397 113 349 130 q 492 96 444 96 q 588 113 540 96 q 675 165 635 131 q 738 252 714 199 q 761 375 761 305 l 761 1000 l 886 1000 l 886 365 q 836 162 886 249 q 697 27 785 75 q 492 -21 608 -21 z "},"Ữ":{"ha":983,"x_min":97,"x_max":1042,"o":"m 934 1125 l 1033 1125 q 1029 1017 1042 1062 q 975 945 1015 972 q 895 922 940 923 q 808 926 850 920 l 808 1000 q 838 1001 823 1001 q 869 1004 853 1001 q 927 1050 918 1014 q 934 1125 936 1085 m 492 -21 q 287 27 376 -21 q 148 161 198 75 q 97 365 97 248 l 97 999 l 222 1000 l 222 375 q 246 252 222 304 q 310 165 270 199 q 397 113 349 130 q 492 96 444 96 q 588 113 540 96 q 675 165 635 131 q 738 252 714 199 q 761 375 761 305 l 761 1000 l 886 1000 l 886 365 q 836 162 886 249 q 697 27 785 75 q 492 -21 608 -21 m 610 1117 q 551 1130 580 1117 q 496 1159 523 1142 q 446 1189 469 1176 q 402 1201 422 1201 q 369 1180 376 1201 q 369 1131 361 1158 l 286 1131 q 297 1248 269 1200 q 394 1297 326 1297 q 453 1284 424 1297 q 508 1254 482 1271 q 558 1225 535 1238 q 603 1212 582 1212 q 635 1233 626 1212 q 635 1284 644 1255 l 719 1284 q 708 1166 736 1216 q 610 1117 679 1117 z "},"Ű":{"ha":983,"x_min":97,"x_max":886,"o":"m 664 1115 l 563 1115 l 654 1344 l 755 1344 l 664 1115 m 395 1115 l 294 1115 l 385 1344 l 486 1344 l 395 1115 m 492 -21 q 287 27 376 -21 q 148 161 198 75 q 97 365 97 248 l 97 999 l 222 1000 l 222 375 q 246 252 222 304 q 310 165 270 199 q 397 113 349 130 q 492 96 444 96 q 588 113 540 96 q 675 165 635 131 q 738 252 714 199 q 761 375 761 305 l 761 1000 l 886 1000 l 886 365 q 836 162 886 249 q 697 27 785 75 q 492 -21 608 -21 z "},"Ū":{"ha":983,"x_min":97,"x_max":886,"o":"m 314 1167 l 314 1268 l 669 1268 l 669 1167 l 314 1167 m 492 -21 q 287 27 376 -21 q 148 161 198 75 q 97 365 97 248 l 97 999 l 222 1000 l 222 375 q 246 252 222 304 q 310 165 270 199 q 397 113 349 130 q 492 96 444 96 q 588 113 540 96 q 675 165 635 131 q 738 252 714 199 q 761 375 761 305 l 761 1000 l 886 1000 l 886 365 q 836 162 886 249 q 697 27 785 75 q 492 -21 608 -21 z "},"Ų":{"ha":983,"x_min":97,"x_max":886,"o":"m 492 -21 q 287 27 376 -21 q 148 161 198 75 q 97 365 97 248 l 97 999 l 222 1000 l 222 375 q 246 252 222 304 q 310 165 270 199 q 397 113 349 130 q 492 96 444 96 q 588 113 540 96 q 675 165 635 131 q 738 252 714 199 q 761 375 761 305 l 761 1000 l 886 1000 l 886 365 q 836 162 886 249 q 697 27 785 75 q 492 -21 608 -21 m 606 -288 q 535 -268 567 -288 q 486 -216 504 -249 q 467 -147 467 -184 q 494 -52 467 -101 q 566 39 521 -4 q 665 115 610 83 l 726 46 q 649 -11 684 22 q 592 -78 613 -44 q 570 -140 570 -112 q 585 -177 570 -162 q 619 -192 599 -192 q 649 -183 633 -192 q 678 -161 665 -175 l 728 -224 q 672 -272 705 -255 q 606 -288 640 -288 z "},"Ů":{"ha":983,"x_min":97,"x_max":886,"o":"m 494 1080 q 414 1102 451 1080 q 355 1160 377 1124 q 333 1241 333 1197 q 355 1322 333 1285 q 414 1380 377 1358 q 494 1402 451 1402 q 576 1380 540 1402 q 634 1322 613 1358 q 656 1241 656 1285 q 634 1160 656 1197 q 576 1102 613 1124 q 494 1080 540 1080 m 494 1165 q 549 1187 527 1165 q 571 1241 571 1210 q 549 1295 571 1273 q 494 1317 527 1317 q 441 1295 463 1317 q 418 1241 418 1273 q 441 1187 418 1210 q 494 1165 463 1165 m 492 -21 q 287 27 376 -21 q 148 161 198 75 q 97 365 97 248 l 97 999 l 222 1000 l 222 375 q 246 252 222 304 q 310 165 270 199 q 397 113 349 130 q 492 96 444 96 q 588 113 540 96 q 675 165 635 131 q 738 252 714 199 q 761 375 761 305 l 761 1000 l 886 1000 l 886 365 q 836 162 886 249 q 697 27 785 75 q 492 -21 608 -21 z "},"Ũ":{"ha":983,"x_min":97,"x_max":886,"o":"m 492 -21 q 287 27 376 -21 q 148 161 198 75 q 97 365 97 248 l 97 999 l 222 1000 l 222 375 q 246 252 222 304 q 310 165 270 199 q 397 113 349 130 q 492 96 444 96 q 588 113 540 96 q 675 165 635 131 q 738 252 714 199 q 761 375 761 305 l 761 1000 l 886 1000 l 886 365 q 836 162 886 249 q 697 27 785 75 q 492 -21 608 -21 m 608 1117 q 549 1130 578 1117 q 494 1159 521 1142 q 444 1189 468 1176 q 400 1201 421 1201 q 367 1180 375 1201 q 367 1131 360 1158 l 284 1131 q 296 1248 267 1200 q 392 1297 324 1297 q 451 1284 423 1297 q 507 1254 480 1271 q 557 1225 533 1238 q 601 1212 581 1212 q 633 1233 624 1212 q 633 1284 642 1255 l 717 1284 q 706 1166 734 1216 q 608 1117 677 1117 z "},"V":{"ha":856,"x_min":7,"x_max":849,"o":"m 342 0 l 7 1000 l 135 1000 l 426 131 l 720 1000 l 849 1000 l 514 0 l 342 0 z "},"W":{"ha":1318,"x_min":21,"x_max":1297,"o":"m 310 0 l 21 1000 l 150 1000 l 372 209 l 594 999 l 724 1000 l 946 209 l 1167 1000 l 1297 1000 l 1008 0 l 884 0 l 659 784 l 434 0 l 310 0 z "},"Ẃ":{"ha":1318,"x_min":21,"x_max":1297,"o":"m 717 1115 l 616 1115 l 707 1344 l 808 1344 l 717 1115 m 310 0 l 21 1000 l 150 1000 l 372 209 l 594 999 l 724 1000 l 946 209 l 1167 1000 l 1297 1000 l 1008 0 l 884 0 l 659 784 l 434 0 l 310 0 z "},"Ŵ":{"ha":1318,"x_min":21,"x_max":1297,"o":"m 434 1115 l 603 1313 l 713 1313 l 883 1115 l 761 1115 l 658 1236 l 556 1115 l 434 1115 m 310 0 l 21 1000 l 150 1000 l 372 209 l 594 999 l 724 1000 l 946 209 l 1167 1000 l 1297 1000 l 1008 0 l 884 0 l 659 784 l 434 0 l 310 0 z "},"Ẅ":{"ha":1318,"x_min":21,"x_max":1297,"o":"m 733 1136 l 733 1261 l 858 1261 l 858 1136 l 733 1136 m 461 1136 l 461 1261 l 586 1261 l 586 1136 l 461 1136 m 310 0 l 21 1000 l 150 1000 l 372 209 l 594 999 l 724 1000 l 946 209 l 1167 1000 l 1297 1000 l 1008 0 l 884 0 l 659 784 l 434 0 l 310 0 z "},"Ẁ":{"ha":1318,"x_min":21,"x_max":1297,"o":"m 602 1115 l 511 1344 l 612 1344 l 703 1115 l 602 1115 m 310 0 l 21 1000 l 150 1000 l 372 209 l 594 999 l 724 1000 l 946 209 l 1167 1000 l 1297 1000 l 1008 0 l 884 0 l 659 784 l 434 0 l 310 0 z "},"X":{"ha":865,"x_min":14,"x_max":851,"o":"m 14 0 l 358 506 l 23 1000 l 174 1000 l 433 610 l 691 1000 l 842 1000 l 508 506 l 851 0 l 700 0 l 433 401 l 165 0 l 14 0 z "},"Y":{"ha":798,"x_min":0,"x_max":798,"o":"m 337 0 l 337 416 l 0 1000 l 144 1000 l 399 558 l 654 1000 l 798 1000 l 462 416 l 462 0 l 337 0 z "},"Ý":{"ha":798,"x_min":0,"x_max":798,"o":"m 440 1115 l 339 1115 l 430 1344 l 531 1344 l 440 1115 m 337 0 l 337 416 l 0 1000 l 144 1000 l 399 558 l 654 1000 l 798 1000 l 462 416 l 462 0 l 337 0 z "},"Ŷ":{"ha":798,"x_min":0,"x_max":798,"o":"m 174 1115 l 343 1313 l 453 1313 l 622 1115 l 501 1115 l 398 1236 l 295 1115 l 174 1115 m 337 0 l 337 416 l 0 1000 l 144 1000 l 399 558 l 654 1000 l 798 1000 l 462 416 l 462 0 l 337 0 z "},"Ÿ":{"ha":798,"x_min":0,"x_max":798,"o":"m 473 1136 l 473 1261 l 598 1261 l 598 1136 l 473 1136 m 201 1136 l 201 1261 l 326 1261 l 326 1136 l 201 1136 m 337 0 l 337 416 l 0 1000 l 144 1000 l 399 558 l 654 1000 l 798 1000 l 462 416 l 462 0 l 337 0 z "},"Ỵ":{"ha":798,"x_min":0,"x_max":798,"o":"m 331 -267 l 331 -140 l 467 -140 l 467 -267 l 331 -267 m 337 0 l 337 416 l 0 1000 l 144 1000 l 399 558 l 654 1000 l 798 1000 l 462 416 l 462 0 l 337 0 z "},"Ỳ":{"ha":798,"x_min":0,"x_max":798,"o":"m 352 1115 l 261 1344 l 362 1344 l 453 1115 l 352 1115 m 337 0 l 337 416 l 0 1000 l 144 1000 l 399 558 l 654 1000 l 798 1000 l 462 416 l 462 0 l 337 0 z "},"Ỷ":{"ha":798,"x_min":0,"x_max":798,"o":"m 316 1284 l 280 1347 q 355 1389 312 1378 q 439 1385 398 1399 q 503 1324 479 1370 q 518 1253 521 1287 q 499 1192 516 1219 q 454 1145 481 1164 q 397 1117 427 1126 l 365 1172 q 425 1219 406 1189 q 427 1282 444 1249 q 396 1309 415 1304 q 355 1306 376 1313 q 316 1284 334 1299 m 337 0 l 337 416 l 0 1000 l 144 1000 l 399 558 l 654 1000 l 798 1000 l 462 416 l 462 0 l 337 0 z "},"Ỹ":{"ha":798,"x_min":0,"x_max":798,"o":"m 515 1117 q 456 1130 484 1117 q 400 1159 427 1142 q 350 1189 374 1176 q 306 1201 326 1201 q 273 1180 281 1201 q 274 1131 265 1158 l 190 1131 q 201 1248 173 1200 q 298 1297 230 1297 q 357 1284 328 1297 q 413 1254 386 1271 q 463 1225 439 1238 q 507 1212 486 1212 q 540 1233 531 1212 q 540 1284 549 1255 l 623 1284 q 612 1166 640 1216 q 515 1117 583 1117 m 337 0 l 337 416 l 0 1000 l 144 1000 l 399 558 l 654 1000 l 798 1000 l 462 416 l 462 0 l 337 0 z "},"Z":{"ha":876,"x_min":69,"x_max":806,"o":"m 69 0 l 69 22 l 598 883 l 90 883 l 90 1000 l 806 1000 l 806 976 l 281 117 l 799 117 l 799 0 l 69 0 z "},"Ź":{"ha":876,"x_min":69,"x_max":806,"o":"m 487 1115 l 386 1115 l 477 1344 l 578 1344 l 487 1115 m 69 0 l 69 22 l 598 883 l 90 883 l 90 1000 l 806 1000 l 806 976 l 281 117 l 799 117 l 799 0 l 69 0 z "},"Ž":{"ha":876,"x_min":69,"x_max":806,"o":"m 233 1313 l 355 1313 l 458 1191 l 560 1313 l 682 1313 l 513 1115 l 403 1115 l 233 1313 m 69 0 l 69 22 l 598 883 l 90 883 l 90 1000 l 806 1000 l 806 976 l 281 117 l 799 117 l 799 0 l 69 0 z "},"Ż":{"ha":876,"x_min":69,"x_max":806,"o":"m 399 1156 l 399 1292 l 535 1292 l 535 1156 l 399 1156 m 69 0 l 69 22 l 598 883 l 90 883 l 90 1000 l 806 1000 l 806 976 l 281 117 l 799 117 l 799 0 l 69 0 z "},"a":{"ha":781,"x_min":56,"x_max":698,"o":"m 310 -21 q 170 10 226 -21 q 84 92 113 41 q 56 203 56 142 q 78 305 56 262 q 142 377 101 349 q 240 423 183 406 q 359 448 293 438 q 494 468 426 459 q 621 485 562 477 l 576 460 q 536 608 578 560 q 392 656 494 656 q 273 625 324 656 q 201 524 222 594 l 83 560 q 188 715 110 658 q 393 771 266 771 q 568 734 495 771 q 674 624 642 698 q 694 549 690 590 q 698 464 698 508 l 698 0 l 588 0 l 588 180 l 614 163 q 495 26 572 72 q 310 -21 419 -21 m 329 83 q 445 107 396 83 q 524 170 494 131 q 563 256 553 209 q 574 333 573 290 q 575 399 575 376 l 618 380 q 499 364 558 372 q 389 348 441 356 q 295 327 337 339 q 238 302 265 317 q 195 263 211 287 q 178 203 178 239 q 194 145 178 173 q 243 100 210 117 q 329 83 276 83 z "},"á":{"ha":781,"x_min":56,"x_max":698,"o":"m 451 865 l 350 865 l 441 1094 l 542 1094 l 451 865 m 310 -21 q 170 10 226 -21 q 84 92 113 41 q 56 203 56 142 q 78 305 56 262 q 142 377 101 349 q 240 423 183 406 q 359 448 293 438 q 494 468 426 459 q 621 485 562 477 l 576 460 q 536 608 578 560 q 392 656 494 656 q 273 625 324 656 q 201 524 222 594 l 83 560 q 188 715 110 658 q 393 771 266 771 q 568 734 495 771 q 674 624 642 698 q 694 549 690 590 q 698 464 698 508 l 698 0 l 588 0 l 588 180 l 614 163 q 495 26 572 72 q 310 -21 419 -21 m 329 83 q 445 107 396 83 q 524 170 494 131 q 563 256 553 209 q 574 333 573 290 q 575 399 575 376 l 618 380 q 499 364 558 372 q 389 348 441 356 q 295 327 337 339 q 238 302 265 317 q 195 263 211 287 q 178 203 178 239 q 194 145 178 173 q 243 100 210 117 q 329 83 276 83 z "},"ă":{"ha":781,"x_min":56,"x_max":698,"o":"m 400 838 q 305 863 348 838 q 236 932 262 889 q 210 1027 210 975 l 310 1027 q 337 964 310 990 q 400 938 363 938 q 464 964 438 938 q 490 1027 490 990 l 590 1027 q 564 932 590 975 q 496 863 539 889 q 400 838 453 838 m 310 -21 q 170 10 226 -21 q 84 92 113 41 q 56 203 56 142 q 78 305 56 262 q 142 377 101 349 q 240 423 183 406 q 359 448 293 438 q 494 468 426 459 q 621 485 562 477 l 576 460 q 536 608 578 560 q 392 656 494 656 q 273 625 324 656 q 201 524 222 594 l 83 560 q 188 715 110 658 q 393 771 266 771 q 568 734 495 771 q 674 624 642 698 q 694 549 690 590 q 698 464 698 508 l 698 0 l 588 0 l 588 180 l 614 163 q 495 26 572 72 q 310 -21 419 -21 m 329 83 q 445 107 396 83 q 524 170 494 131 q 563 256 553 209 q 574 333 573 290 q 575 399 575 376 l 618 380 q 499 364 558 372 q 389 348 441 356 q 295 327 337 339 q 238 302 265 317 q 195 263 211 287 q 178 203 178 239 q 194 145 178 173 q 243 100 210 117 q 329 83 276 83 z "},"ắ":{"ha":781,"x_min":56,"x_max":698,"o":"m 399 838 q 303 863 347 838 q 235 932 260 889 q 209 1027 209 975 l 309 1027 q 335 964 309 990 q 399 938 362 938 q 462 964 436 938 q 488 1027 488 990 l 588 1027 q 563 932 588 975 q 494 863 538 889 q 399 838 451 838 m 449 1073 l 349 1073 l 440 1302 l 540 1302 l 449 1073 m 310 -21 q 170 10 226 -21 q 84 92 113 41 q 56 203 56 142 q 78 305 56 262 q 142 377 101 349 q 240 423 183 406 q 359 448 293 438 q 494 468 426 459 q 621 485 562 477 l 576 460 q 536 608 578 560 q 392 656 494 656 q 273 625 324 656 q 201 524 222 594 l 83 560 q 188 715 110 658 q 393 771 266 771 q 568 734 495 771 q 674 624 642 698 q 694 549 690 590 q 698 464 698 508 l 698 0 l 588 0 l 588 180 l 614 163 q 495 26 572 72 q 310 -21 419 -21 m 329 83 q 445 107 396 83 q 524 170 494 131 q 563 256 553 209 q 574 333 573 290 q 575 399 575 376 l 618 380 q 499 364 558 372 q 389 348 441 356 q 295 327 337 339 q 238 302 265 317 q 195 263 211 287 q 178 203 178 239 q 194 145 178 173 q 243 100 210 117 q 329 83 276 83 z "},"ặ":{"ha":781,"x_min":56,"x_max":698,"o":"m 321 -267 l 321 -140 l 457 -140 l 457 -267 l 321 -267 m 400 838 q 305 863 348 838 q 236 932 262 889 q 210 1027 210 975 l 310 1027 q 337 964 310 990 q 400 938 363 938 q 464 964 438 938 q 490 1027 490 990 l 590 1027 q 564 932 590 975 q 496 863 539 889 q 400 838 453 838 m 310 -21 q 170 10 226 -21 q 84 92 113 41 q 56 203 56 142 q 78 305 56 262 q 142 377 101 349 q 240 423 183 406 q 359 448 293 438 q 494 468 426 459 q 621 485 562 477 l 576 460 q 536 608 578 560 q 392 656 494 656 q 273 625 324 656 q 201 524 222 594 l 83 560 q 188 715 110 658 q 393 771 266 771 q 568 734 495 771 q 674 624 642 698 q 694 549 690 590 q 698 464 698 508 l 698 0 l 588 0 l 588 180 l 614 163 q 495 26 572 72 q 310 -21 419 -21 m 329 83 q 445 107 396 83 q 524 170 494 131 q 563 256 553 209 q 574 333 573 290 q 575 399 575 376 l 618 380 q 499 364 558 372 q 389 348 441 356 q 295 327 337 339 q 238 302 265 317 q 195 263 211 287 q 178 203 178 239 q 194 145 178 173 q 243 100 210 117 q 329 83 276 83 z "},"ằ":{"ha":781,"x_min":56,"x_max":698,"o":"m 403 838 q 308 863 351 838 q 239 932 265 889 q 213 1027 213 975 l 313 1027 q 339 964 313 990 q 403 938 365 938 q 466 964 440 938 q 492 1027 492 990 l 592 1027 q 567 932 592 975 q 499 863 542 889 q 403 838 456 838 m 353 1073 l 262 1302 l 363 1302 l 453 1073 l 353 1073 m 310 -21 q 170 10 226 -21 q 84 92 113 41 q 56 203 56 142 q 78 305 56 262 q 142 377 101 349 q 240 423 183 406 q 359 448 293 438 q 494 468 426 459 q 621 485 562 477 l 576 460 q 536 608 578 560 q 392 656 494 656 q 273 625 324 656 q 201 524 222 594 l 83 560 q 188 715 110 658 q 393 771 266 771 q 568 734 495 771 q 674 624 642 698 q 694 549 690 590 q 698 464 698 508 l 698 0 l 588 0 l 588 180 l 614 163 q 495 26 572 72 q 310 -21 419 -21 m 329 83 q 445 107 396 83 q 524 170 494 131 q 563 256 553 209 q 574 333 573 290 q 575 399 575 376 l 618 380 q 499 364 558 372 q 389 348 441 356 q 295 327 337 339 q 238 302 265 317 q 195 263 211 287 q 178 203 178 239 q 194 145 178 173 q 243 100 210 117 q 329 83 276 83 z "},"ẳ":{"ha":781,"x_min":56,"x_max":698,"o":"m 415 838 q 320 863 363 838 q 251 932 277 889 q 226 1027 226 975 l 326 1027 q 352 964 326 990 q 415 938 378 938 q 479 964 453 938 q 505 1027 505 990 l 605 1027 q 580 932 605 975 q 511 863 554 889 q 415 838 468 838 m 311 1228 l 275 1292 q 350 1334 307 1323 q 434 1330 393 1344 q 498 1268 474 1315 q 514 1198 516 1231 q 494 1137 511 1165 q 449 1090 476 1109 q 392 1063 422 1071 l 360 1117 q 420 1164 401 1134 q 422 1226 440 1193 q 391 1253 410 1249 q 350 1250 372 1258 q 311 1228 329 1243 m 310 -21 q 170 10 226 -21 q 84 92 113 41 q 56 203 56 142 q 78 305 56 262 q 142 377 101 349 q 240 423 183 406 q 359 448 293 438 q 494 468 426 459 q 621 485 562 477 l 576 460 q 536 608 578 560 q 392 656 494 656 q 273 625 324 656 q 201 524 222 594 l 83 560 q 188 715 110 658 q 393 771 266 771 q 568 734 495 771 q 674 624 642 698 q 694 549 690 590 q 698 464 698 508 l 698 0 l 588 0 l 588 180 l 614 163 q 495 26 572 72 q 310 -21 419 -21 m 329 83 q 445 107 396 83 q 524 170 494 131 q 563 256 553 209 q 574 333 573 290 q 575 399 575 376 l 618 380 q 499 364 558 372 q 389 348 441 356 q 295 327 337 339 q 238 302 265 317 q 195 263 211 287 q 178 203 178 239 q 194 145 178 173 q 243 100 210 117 q 329 83 276 83 z "},"ẵ":{"ha":781,"x_min":56,"x_max":698,"o":"m 499 1069 q 440 1082 468 1069 q 384 1112 411 1095 q 334 1141 358 1128 q 290 1154 310 1154 q 257 1132 265 1154 q 258 1083 249 1110 l 174 1083 q 185 1201 157 1153 q 282 1249 214 1249 q 341 1236 313 1249 q 397 1207 370 1224 q 447 1177 423 1190 q 491 1165 470 1165 q 524 1186 515 1165 q 524 1237 533 1208 l 607 1237 q 596 1119 624 1169 q 499 1069 567 1069 m 388 838 q 293 863 336 838 q 224 932 250 889 q 199 1027 199 975 l 299 1027 q 325 964 299 990 q 388 938 351 938 q 452 964 426 938 q 478 1027 478 990 l 578 1027 q 552 932 578 975 q 484 863 527 889 q 388 838 441 838 m 310 -21 q 170 10 226 -21 q 84 92 113 41 q 56 203 56 142 q 78 305 56 262 q 142 377 101 349 q 240 423 183 406 q 359 448 293 438 q 494 468 426 459 q 621 485 562 477 l 576 460 q 536 608 578 560 q 392 656 494 656 q 273 625 324 656 q 201 524 222 594 l 83 560 q 188 715 110 658 q 393 771 266 771 q 568 734 495 771 q 674 624 642 698 q 694 549 690 590 q 698 464 698 508 l 698 0 l 588 0 l 588 180 l 614 163 q 495 26 572 72 q 310 -21 419 -21 m 329 83 q 445 107 396 83 q 524 170 494 131 q 563 256 553 209 q 574 333 573 290 q 575 399 575 376 l 618 380 q 499 364 558 372 q 389 348 441 356 q 295 327 337 339 q 238 302 265 317 q 195 263 211 287 q 178 203 178 239 q 194 145 178 173 q 243 100 210 117 q 329 83 276 83 z "},"â":{"ha":781,"x_min":56,"x_max":698,"o":"m 176 865 l 346 1063 l 456 1063 l 625 865 l 503 865 l 401 986 l 298 865 l 176 865 m 310 -21 q 170 10 226 -21 q 84 92 113 41 q 56 203 56 142 q 78 305 56 262 q 142 377 101 349 q 240 423 183 406 q 359 448 293 438 q 494 468 426 459 q 621 485 562 477 l 576 460 q 536 608 578 560 q 392 656 494 656 q 273 625 324 656 q 201 524 222 594 l 83 560 q 188 715 110 658 q 393 771 266 771 q 568 734 495 771 q 674 624 642 698 q 694 549 690 590 q 698 464 698 508 l 698 0 l 588 0 l 588 180 l 614 163 q 495 26 572 72 q 310 -21 419 -21 m 329 83 q 445 107 396 83 q 524 170 494 131 q 563 256 553 209 q 574 333 573 290 q 575 399 575 376 l 618 380 q 499 364 558 372 q 389 348 441 356 q 295 327 337 339 q 238 302 265 317 q 195 263 211 287 q 178 203 178 239 q 194 145 178 173 q 243 100 210 117 q 329 83 276 83 z "},"ấ":{"ha":781,"x_min":56,"x_max":797,"o":"m 182 865 l 351 1063 l 461 1063 l 631 865 l 509 865 l 406 986 l 303 865 l 182 865 m 706 1010 l 605 1010 l 696 1240 l 797 1240 l 706 1010 m 310 -21 q 170 10 226 -21 q 84 92 113 41 q 56 203 56 142 q 78 305 56 262 q 142 377 101 349 q 240 423 183 406 q 359 448 293 438 q 494 468 426 459 q 621 485 562 477 l 576 460 q 536 608 578 560 q 392 656 494 656 q 273 625 324 656 q 201 524 222 594 l 83 560 q 188 715 110 658 q 393 771 266 771 q 568 734 495 771 q 674 624 642 698 q 694 549 690 590 q 698 464 698 508 l 698 0 l 588 0 l 588 180 l 614 163 q 495 26 572 72 q 310 -21 419 -21 m 329 83 q 445 107 396 83 q 524 170 494 131 q 563 256 553 209 q 574 333 573 290 q 575 399 575 376 l 618 380 q 499 364 558 372 q 389 348 441 356 q 295 327 337 339 q 238 302 265 317 q 195 263 211 287 q 178 203 178 239 q 194 145 178 173 q 243 100 210 117 q 329 83 276 83 z "},"ậ":{"ha":781,"x_min":56,"x_max":698,"o":"m 321 -267 l 321 -140 l 457 -140 l 457 -267 l 321 -267 m 176 865 l 346 1063 l 456 1063 l 625 865 l 503 865 l 401 986 l 298 865 l 176 865 m 310 -21 q 170 10 226 -21 q 84 92 113 41 q 56 203 56 142 q 78 305 56 262 q 142 377 101 349 q 240 423 183 406 q 359 448 293 438 q 494 468 426 459 q 621 485 562 477 l 576 460 q 536 608 578 560 q 392 656 494 656 q 273 625 324 656 q 201 524 222 594 l 83 560 q 188 715 110 658 q 393 771 266 771 q 568 734 495 771 q 674 624 642 698 q 694 549 690 590 q 698 464 698 508 l 698 0 l 588 0 l 588 180 l 614 163 q 495 26 572 72 q 310 -21 419 -21 m 329 83 q 445 107 396 83 q 524 170 494 131 q 563 256 553 209 q 574 333 573 290 q 575 399 575 376 l 618 380 q 499 364 558 372 q 389 348 441 356 q 295 327 337 339 q 238 302 265 317 q 195 263 211 287 q 178 203 178 239 q 194 145 178 173 q 243 100 210 117 q 329 83 276 83 z "},"ầ":{"ha":781,"x_min":56,"x_max":708,"o":"m 183 865 l 353 1063 l 463 1063 l 632 865 l 510 865 l 408 986 l 305 865 l 183 865 m 608 1010 l 517 1240 l 617 1240 l 708 1010 l 608 1010 m 310 -21 q 170 10 226 -21 q 84 92 113 41 q 56 203 56 142 q 78 305 56 262 q 142 377 101 349 q 240 423 183 406 q 359 448 293 438 q 494 468 426 459 q 621 485 562 477 l 576 460 q 536 608 578 560 q 392 656 494 656 q 273 625 324 656 q 201 524 222 594 l 83 560 q 188 715 110 658 q 393 771 266 771 q 568 734 495 771 q 674 624 642 698 q 694 549 690 590 q 698 464 698 508 l 698 0 l 588 0 l 588 180 l 614 163 q 495 26 572 72 q 310 -21 419 -21 m 329 83 q 445 107 396 83 q 524 170 494 131 q 563 256 553 209 q 574 333 573 290 q 575 399 575 376 l 618 380 q 499 364 558 372 q 389 348 441 356 q 295 327 337 339 q 238 302 265 317 q 195 263 211 287 q 178 203 178 239 q 194 145 178 173 q 243 100 210 117 q 329 83 276 83 z "},"ẩ":{"ha":781,"x_min":56,"x_max":813,"o":"m 169 865 l 339 1063 l 449 1063 l 618 865 l 497 865 l 394 986 l 291 865 l 169 865 m 608 1034 l 572 1097 q 647 1139 603 1128 q 730 1135 690 1149 q 794 1074 771 1120 q 810 1003 813 1037 q 790 942 808 969 q 746 895 773 914 q 689 867 719 876 l 656 922 q 717 969 697 939 q 719 1032 736 999 q 688 1059 707 1054 q 647 1056 668 1063 q 608 1034 626 1049 m 310 -21 q 170 10 226 -21 q 84 92 113 41 q 56 203 56 142 q 78 305 56 262 q 142 377 101 349 q 240 423 183 406 q 359 448 293 438 q 494 468 426 459 q 621 485 562 477 l 576 460 q 536 608 578 560 q 392 656 494 656 q 273 625 324 656 q 201 524 222 594 l 83 560 q 188 715 110 658 q 393 771 266 771 q 568 734 495 771 q 674 624 642 698 q 694 549 690 590 q 698 464 698 508 l 698 0 l 588 0 l 588 180 l 614 163 q 495 26 572 72 q 310 -21 419 -21 m 329 83 q 445 107 396 83 q 524 170 494 131 q 563 256 553 209 q 574 333 573 290 q 575 399 575 376 l 618 380 q 499 364 558 372 q 389 348 441 356 q 295 327 337 339 q 238 302 265 317 q 195 263 211 287 q 178 203 178 239 q 194 145 178 173 q 243 100 210 117 q 329 83 276 83 z "},"ẫ":{"ha":781,"x_min":56,"x_max":698,"o":"m 172 865 l 342 1063 l 451 1063 l 621 865 l 499 865 l 397 986 l 294 865 l 172 865 m 510 1097 q 451 1110 480 1097 q 397 1140 423 1123 q 347 1169 370 1156 q 302 1182 323 1182 q 269 1160 277 1182 q 269 1111 262 1138 l 186 1111 q 198 1229 169 1181 q 294 1277 226 1277 q 353 1264 325 1277 q 409 1235 382 1251 q 459 1205 435 1218 q 503 1192 483 1192 q 535 1214 526 1192 q 535 1265 544 1235 l 619 1265 q 608 1147 636 1197 q 510 1097 579 1097 m 310 -21 q 170 10 226 -21 q 84 92 113 41 q 56 203 56 142 q 78 305 56 262 q 142 377 101 349 q 240 423 183 406 q 359 448 293 438 q 494 468 426 459 q 621 485 562 477 l 576 460 q 536 608 578 560 q 392 656 494 656 q 273 625 324 656 q 201 524 222 594 l 83 560 q 188 715 110 658 q 393 771 266 771 q 568 734 495 771 q 674 624 642 698 q 694 549 690 590 q 698 464 698 508 l 698 0 l 588 0 l 588 180 l 614 163 q 495 26 572 72 q 310 -21 419 -21 m 329 83 q 445 107 396 83 q 524 170 494 131 q 563 256 553 209 q 574 333 573 290 q 575 399 575 376 l 618 380 q 499 364 558 372 q 389 348 441 356 q 295 327 337 339 q 238 302 265 317 q 195 263 211 287 q 178 203 178 239 q 194 145 178 173 q 243 100 210 117 q 329 83 276 83 z "},"ä":{"ha":781,"x_min":56,"x_max":698,"o":"m 479 886 l 479 1011 l 604 1011 l 604 886 l 479 886 m 207 886 l 207 1011 l 332 1011 l 332 886 l 207 886 m 310 -21 q 170 10 226 -21 q 84 92 113 41 q 56 203 56 142 q 78 305 56 262 q 142 377 101 349 q 240 423 183 406 q 359 448 293 438 q 494 468 426 459 q 621 485 562 477 l 576 460 q 536 608 578 560 q 392 656 494 656 q 273 625 324 656 q 201 524 222 594 l 83 560 q 188 715 110 658 q 393 771 266 771 q 568 734 495 771 q 674 624 642 698 q 694 549 690 590 q 698 464 698 508 l 698 0 l 588 0 l 588 180 l 614 163 q 495 26 572 72 q 310 -21 419 -21 m 329 83 q 445 107 396 83 q 524 170 494 131 q 563 256 553 209 q 574 333 573 290 q 575 399 575 376 l 618 380 q 499 364 558 372 q 389 348 441 356 q 295 327 337 339 q 238 302 265 317 q 195 263 211 287 q 178 203 178 239 q 194 145 178 173 q 243 100 210 117 q 329 83 276 83 z "},"ạ":{"ha":781,"x_min":56,"x_max":698,"o":"m 321 -267 l 321 -140 l 457 -140 l 457 -267 l 321 -267 m 310 -21 q 170 10 226 -21 q 84 92 113 41 q 56 203 56 142 q 78 305 56 262 q 142 377 101 349 q 240 423 183 406 q 359 448 293 438 q 494 468 426 459 q 621 485 562 477 l 576 460 q 536 608 578 560 q 392 656 494 656 q 273 625 324 656 q 201 524 222 594 l 83 560 q 188 715 110 658 q 393 771 266 771 q 568 734 495 771 q 674 624 642 698 q 694 549 690 590 q 698 464 698 508 l 698 0 l 588 0 l 588 180 l 614 163 q 495 26 572 72 q 310 -21 419 -21 m 329 83 q 445 107 396 83 q 524 170 494 131 q 563 256 553 209 q 574 333 573 290 q 575 399 575 376 l 618 380 q 499 364 558 372 q 389 348 441 356 q 295 327 337 339 q 238 302 265 317 q 195 263 211 287 q 178 203 178 239 q 194 145 178 173 q 243 100 210 117 q 329 83 276 83 z "},"à":{"ha":781,"x_min":56,"x_max":698,"o":"m 351 865 l 260 1094 l 360 1094 l 451 865 l 351 865 m 310 -21 q 170 10 226 -21 q 84 92 113 41 q 56 203 56 142 q 78 305 56 262 q 142 377 101 349 q 240 423 183 406 q 359 448 293 438 q 494 468 426 459 q 621 485 562 477 l 576 460 q 536 608 578 560 q 392 656 494 656 q 273 625 324 656 q 201 524 222 594 l 83 560 q 188 715 110 658 q 393 771 266 771 q 568 734 495 771 q 674 624 642 698 q 694 549 690 590 q 698 464 698 508 l 698 0 l 588 0 l 588 180 l 614 163 q 495 26 572 72 q 310 -21 419 -21 m 329 83 q 445 107 396 83 q 524 170 494 131 q 563 256 553 209 q 574 333 573 290 q 575 399 575 376 l 618 380 q 499 364 558 372 q 389 348 441 356 q 295 327 337 339 q 238 302 265 317 q 195 263 211 287 q 178 203 178 239 q 194 145 178 173 q 243 100 210 117 q 329 83 276 83 z "},"ả":{"ha":781,"x_min":56,"x_max":698,"o":"m 320 1037 l 283 1100 q 359 1141 315 1131 q 442 1138 402 1152 q 506 1076 483 1123 q 522 1006 524 1040 q 502 944 519 972 q 458 898 485 917 q 401 870 431 878 l 368 925 q 429 972 409 942 q 431 1035 449 1001 q 399 1061 419 1057 q 359 1059 380 1066 q 320 1037 338 1051 m 310 -21 q 170 10 226 -21 q 84 92 113 41 q 56 203 56 142 q 78 305 56 262 q 142 377 101 349 q 240 423 183 406 q 359 448 293 438 q 494 468 426 459 q 621 485 562 477 l 576 460 q 536 608 578 560 q 392 656 494 656 q 273 625 324 656 q 201 524 222 594 l 83 560 q 188 715 110 658 q 393 771 266 771 q 568 734 495 771 q 674 624 642 698 q 694 549 690 590 q 698 464 698 508 l 698 0 l 588 0 l 588 180 l 614 163 q 495 26 572 72 q 310 -21 419 -21 m 329 83 q 445 107 396 83 q 524 170 494 131 q 563 256 553 209 q 574 333 573 290 q 575 399 575 376 l 618 380 q 499 364 558 372 q 389 348 441 356 q 295 327 337 339 q 238 302 265 317 q 195 263 211 287 q 178 203 178 239 q 194 145 178 173 q 243 100 210 117 q 329 83 276 83 z "},"ā":{"ha":781,"x_min":56,"x_max":698,"o":"m 242 917 l 242 1018 l 598 1018 l 598 917 l 242 917 m 310 -21 q 170 10 226 -21 q 84 92 113 41 q 56 203 56 142 q 78 305 56 262 q 142 377 101 349 q 240 423 183 406 q 359 448 293 438 q 494 468 426 459 q 621 485 562 477 l 576 460 q 536 608 578 560 q 392 656 494 656 q 273 625 324 656 q 201 524 222 594 l 83 560 q 188 715 110 658 q 393 771 266 771 q 568 734 495 771 q 674 624 642 698 q 694 549 690 590 q 698 464 698 508 l 698 0 l 588 0 l 588 180 l 614 163 q 495 26 572 72 q 310 -21 419 -21 m 329 83 q 445 107 396 83 q 524 170 494 131 q 563 256 553 209 q 574 333 573 290 q 575 399 575 376 l 618 380 q 499 364 558 372 q 389 348 441 356 q 295 327 337 339 q 238 302 265 317 q 195 263 211 287 q 178 203 178 239 q 194 145 178 173 q 243 100 210 117 q 329 83 276 83 z "},"ą":{"ha":781,"x_min":56,"x_max":700,"o":"m 577 -334 q 507 -314 538 -334 q 457 -262 476 -294 q 439 -193 439 -230 q 466 -98 439 -147 q 537 -7 492 -50 q 637 69 582 37 l 698 0 q 620 -57 656 -24 q 563 -124 585 -90 q 542 -185 542 -158 q 556 -223 542 -208 q 590 -237 571 -237 q 620 -229 605 -237 q 650 -207 636 -221 l 700 -269 q 644 -317 676 -301 q 577 -334 611 -334 m 310 -21 q 170 10 226 -21 q 84 92 113 41 q 56 203 56 142 q 78 305 56 262 q 142 377 101 349 q 240 423 183 406 q 359 448 293 438 q 494 468 426 459 q 621 485 562 477 l 576 460 q 536 608 578 560 q 392 656 494 656 q 273 625 324 656 q 201 524 222 594 l 83 560 q 188 715 110 658 q 393 771 266 771 q 568 734 495 771 q 674 624 642 698 q 694 549 690 590 q 698 464 698 508 l 698 0 l 588 0 l 588 180 l 614 163 q 495 26 572 72 q 310 -21 419 -21 m 329 83 q 445 107 396 83 q 524 170 494 131 q 563 256 553 209 q 574 333 573 290 q 575 399 575 376 l 618 380 q 499 364 558 372 q 389 348 441 356 q 295 327 337 339 q 238 302 265 317 q 195 263 211 287 q 178 203 178 239 q 194 145 178 173 q 243 100 210 117 q 329 83 276 83 z "},"å":{"ha":781,"x_min":56,"x_max":698,"o":"m 401 830 q 320 852 356 830 q 261 910 283 874 q 240 991 240 947 q 261 1072 240 1035 q 320 1130 283 1108 q 401 1152 356 1152 q 482 1130 445 1152 q 540 1072 518 1108 q 562 991 562 1035 q 540 910 562 947 q 482 852 518 874 q 401 830 445 830 m 401 915 q 455 937 433 915 q 477 991 477 960 q 455 1045 477 1023 q 401 1067 433 1067 q 347 1045 369 1067 q 324 991 324 1023 q 347 937 324 960 q 401 915 369 915 m 310 -21 q 170 10 226 -21 q 84 92 113 41 q 56 203 56 142 q 78 305 56 262 q 142 377 101 349 q 240 423 183 406 q 359 448 293 438 q 494 468 426 459 q 621 485 562 477 l 576 460 q 536 608 578 560 q 392 656 494 656 q 273 625 324 656 q 201 524 222 594 l 83 560 q 188 715 110 658 q 393 771 266 771 q 568 734 495 771 q 674 624 642 698 q 694 549 690 590 q 698 464 698 508 l 698 0 l 588 0 l 588 180 l 614 163 q 495 26 572 72 q 310 -21 419 -21 m 329 83 q 445 107 396 83 q 524 170 494 131 q 563 256 553 209 q 574 333 573 290 q 575 399 575 376 l 618 380 q 499 364 558 372 q 389 348 441 356 q 295 327 337 339 q 238 302 265 317 q 195 263 211 287 q 178 203 178 239 q 194 145 178 173 q 243 100 210 117 q 329 83 276 83 z "},"ã":{"ha":781,"x_min":56,"x_max":698,"o":"m 518 867 q 459 880 488 867 q 404 909 431 892 q 354 939 378 926 q 310 951 331 951 q 277 930 285 951 q 277 881 269 908 l 194 881 q 206 998 177 950 q 301 1047 234 1047 q 361 1034 333 1047 q 416 1004 390 1021 q 467 975 443 988 q 510 962 490 962 q 543 983 534 962 q 543 1034 552 1005 l 626 1034 q 615 916 644 966 q 518 867 587 867 m 310 -21 q 170 10 226 -21 q 84 92 113 41 q 56 203 56 142 q 78 305 56 262 q 142 377 101 349 q 240 423 183 406 q 359 448 293 438 q 494 468 426 459 q 621 485 562 477 l 576 460 q 536 608 578 560 q 392 656 494 656 q 273 625 324 656 q 201 524 222 594 l 83 560 q 188 715 110 658 q 393 771 266 771 q 568 734 495 771 q 674 624 642 698 q 694 549 690 590 q 698 464 698 508 l 698 0 l 588 0 l 588 180 l 614 163 q 495 26 572 72 q 310 -21 419 -21 m 329 83 q 445 107 396 83 q 524 170 494 131 q 563 256 553 209 q 574 333 573 290 q 575 399 575 376 l 618 380 q 499 364 558 372 q 389 348 441 356 q 295 327 337 339 q 238 302 265 317 q 195 263 211 287 q 178 203 178 239 q 194 145 178 173 q 243 100 210 117 q 329 83 276 83 z "},"æ":{"ha":1306,"x_min":56,"x_max":1253,"o":"m 927 -21 q 741 30 819 -21 q 622 169 663 81 q 580 371 580 257 q 621 581 580 490 q 740 721 663 671 q 923 771 817 771 q 1109 716 1035 771 q 1218 565 1183 662 q 1249 340 1253 467 l 1131 340 l 1131 385 q 1082 586 1128 513 q 922 660 1035 660 q 797 623 845 660 q 726 523 749 587 q 703 375 703 458 q 759 173 703 249 q 922 97 814 97 q 1042 130 989 97 q 1124 228 1094 163 l 1236 188 q 1162 74 1209 121 q 1055 3 1115 28 q 927 -21 994 -21 m 329 82 q 463 117 404 82 q 546 201 521 151 q 568 266 561 231 q 575 331 574 300 q 576 379 576 361 l 611 353 l 410 344 q 341 338 381 342 q 265 320 301 333 q 203 279 228 306 q 178 205 178 251 q 219 115 178 147 q 329 82 259 82 m 318 -21 q 125 41 194 -21 q 56 202 56 102 q 80 305 56 264 q 142 371 103 347 q 226 409 181 396 q 315 427 272 422 q 391 434 358 432 l 597 445 l 574 423 q 561 554 581 503 q 499 631 542 606 q 394 656 457 656 q 274 626 327 656 q 199 529 220 597 l 83 565 q 148 674 103 628 q 255 745 192 720 q 396 771 319 771 q 586 721 514 771 q 683 581 658 671 q 696 516 694 548 q 698 458 698 483 l 641 178 q 559 60 609 103 q 447 -2 509 17 q 318 -21 385 -21 m 664 340 l 664 442 l 1188 442 l 1188 340 l 664 340 z "},"b":{"ha":833,"x_min":97,"x_max":778,"o":"m 442 -21 q 264 32 336 -21 q 155 174 192 84 q 117 376 117 264 q 155 578 117 489 q 264 719 192 668 q 442 771 337 771 q 622 719 547 771 q 738 578 697 667 q 778 376 778 488 q 738 174 778 263 q 622 32 697 84 q 442 -21 547 -21 m 97 0 l 97 1000 l 221 1000 l 221 552 l 207 552 l 207 0 l 97 0 m 426 92 q 549 130 501 92 q 622 232 598 167 q 647 376 647 296 q 623 519 647 455 q 549 620 599 583 q 423 658 499 658 q 302 622 350 658 q 231 523 254 586 q 207 376 207 459 q 230 230 207 294 q 302 129 253 165 q 426 92 351 92 z "},"c":{"ha":779,"x_min":56,"x_max":734,"o":"m 413 -21 q 220 30 299 -21 q 99 171 140 81 q 56 375 57 260 q 100 582 57 492 q 222 721 142 671 q 415 771 302 771 q 619 713 533 771 q 734 553 705 654 l 612 516 q 535 617 588 581 q 413 653 482 653 q 286 618 336 653 q 212 519 236 582 q 187 375 188 456 q 245 173 188 250 q 413 97 301 97 q 535 130 487 97 q 609 228 584 164 l 734 195 q 613 35 695 90 q 413 -21 530 -21 z "},"ć":{"ha":779,"x_min":56,"x_max":734,"o":"m 472 865 l 371 865 l 462 1094 l 563 1094 l 472 865 m 413 -21 q 220 30 299 -21 q 99 171 140 81 q 56 375 57 260 q 100 582 57 492 q 222 721 142 671 q 415 771 302 771 q 619 713 533 771 q 734 553 705 654 l 612 516 q 535 617 588 581 q 413 653 482 653 q 286 618 336 653 q 212 519 236 582 q 187 375 188 456 q 245 173 188 250 q 413 97 301 97 q 535 130 487 97 q 609 228 584 164 l 734 195 q 613 35 695 90 q 413 -21 530 -21 z "},"č":{"ha":779,"x_min":56,"x_max":734,"o":"m 189 1063 l 310 1063 l 413 941 l 516 1063 l 638 1063 l 468 865 l 358 865 l 189 1063 m 413 -21 q 220 30 299 -21 q 99 171 140 81 q 56 375 57 260 q 100 582 57 492 q 222 721 142 671 q 415 771 302 771 q 619 713 533 771 q 734 553 705 654 l 612 516 q 535 617 588 581 q 413 653 482 653 q 286 618 336 653 q 212 519 236 582 q 187 375 188 456 q 245 173 188 250 q 413 97 301 97 q 535 130 487 97 q 609 228 584 164 l 734 195 q 613 35 695 90 q 413 -21 530 -21 z "},"ç":{"ha":779,"x_min":56,"x_max":734,"o":"m 383 -334 q 334 -327 357 -334 q 292 -311 312 -321 l 322 -231 q 372 -242 353 -242 q 411 -227 397 -242 q 424 -194 424 -212 q 397 -150 424 -163 q 333 -126 369 -136 l 383 17 l 467 17 l 435 -74 q 496 -122 473 -92 q 519 -197 519 -152 q 478 -295 519 -256 q 383 -334 438 -334 m 413 -21 q 220 30 299 -21 q 99 171 140 81 q 56 375 57 260 q 100 582 57 492 q 222 721 142 671 q 415 771 302 771 q 619 713 533 771 q 734 553 705 654 l 612 516 q 535 617 588 581 q 413 653 482 653 q 286 618 336 653 q 212 519 236 582 q 187 375 188 456 q 245 173 188 250 q 413 97 301 97 q 535 130 487 97 q 609 228 584 164 l 734 195 q 613 35 695 90 q 413 -21 530 -21 z "},"ĉ":{"ha":779,"x_min":56,"x_max":734,"o":"m 192 865 l 361 1063 l 471 1063 l 640 865 l 519 865 l 416 986 l 313 865 l 192 865 m 413 -21 q 220 30 299 -21 q 99 171 140 81 q 56 375 57 260 q 100 582 57 492 q 222 721 142 671 q 415 771 302 771 q 619 713 533 771 q 734 553 705 654 l 612 516 q 535 617 588 581 q 413 653 482 653 q 286 618 336 653 q 212 519 236 582 q 187 375 188 456 q 245 173 188 250 q 413 97 301 97 q 535 130 487 97 q 609 228 584 164 l 734 195 q 613 35 695 90 q 413 -21 530 -21 z "},"ċ":{"ha":779,"x_min":56,"x_max":734,"o":"m 361 906 l 361 1042 l 497 1042 l 497 906 l 361 906 m 413 -21 q 220 30 299 -21 q 99 171 140 81 q 56 375 57 260 q 100 582 57 492 q 222 721 142 671 q 415 771 302 771 q 619 713 533 771 q 734 553 705 654 l 612 516 q 535 617 588 581 q 413 653 482 653 q 286 618 336 653 q 212 519 236 582 q 187 375 188 456 q 245 173 188 250 q 413 97 301 97 q 535 130 487 97 q 609 228 584 164 l 734 195 q 613 35 695 90 q 413 -21 530 -21 z "},"d":{"ha":834,"x_min":56,"x_max":737,"o":"m 392 -21 q 212 32 287 -21 q 96 174 137 84 q 56 376 56 263 q 96 578 56 488 q 212 719 137 667 q 391 771 287 771 q 569 719 497 771 q 679 578 642 668 q 716 376 716 489 q 679 174 716 264 q 569 32 642 84 q 392 -21 497 -21 m 407 92 q 531 129 483 92 q 603 230 580 165 q 626 376 626 294 q 603 523 626 459 q 532 622 580 586 q 410 658 484 658 q 284 620 334 658 q 211 519 235 583 q 187 376 187 455 q 211 232 187 296 q 284 130 235 167 q 407 92 333 92 m 626 0 l 626 552 l 613 552 l 613 1000 l 737 1000 l 737 0 l 626 0 z "},"ð":{"ha":815,"x_min":56,"x_max":760,"o":"m 408 -21 q 222 25 301 -22 q 100 155 143 72 q 56 349 56 239 q 100 545 56 461 q 223 675 144 628 q 408 720 301 721 q 530 699 472 721 q 638 631 588 677 q 581 783 627 716 q 463 890 535 849 q 299 937 390 931 l 317 1037 q 518 984 432 1032 q 658 850 605 937 q 719 726 697 794 q 751 569 742 659 q 760 353 760 478 q 717 155 760 239 q 595 24 674 70 q 408 -21 517 -22 m 408 92 q 576 161 518 92 q 634 351 634 231 q 575 540 634 472 q 408 608 515 609 q 240 540 299 609 q 181 350 181 471 q 240 160 181 228 q 408 92 299 92 m 433 769 l 358 833 l 569 1087 l 644 1023 l 433 769 z "},"ď":{"ha":1028,"x_min":56,"x_max":1004,"o":"m 392 -21 q 212 32 287 -21 q 96 174 137 84 q 56 376 56 263 q 96 578 56 488 q 212 719 137 667 q 391 771 287 771 q 569 719 497 771 q 679 578 642 668 q 716 376 716 489 q 679 174 716 264 q 569 32 642 84 q 392 -21 497 -21 m 407 92 q 531 129 483 92 q 603 230 580 165 q 626 376 626 294 q 603 523 626 459 q 532 622 580 586 q 410 658 484 658 q 284 620 334 658 q 211 519 235 583 q 187 376 187 455 q 211 232 187 296 q 284 130 235 167 q 407 92 333 92 m 626 0 l 626 552 l 613 552 l 613 1000 l 737 1000 l 737 0 l 626 0 m 868 694 l 876 752 q 919 763 905 750 q 938 799 934 776 q 940 850 942 822 l 868 850 l 868 1007 l 1004 1007 l 1004 829 q 968 719 1004 756 q 868 694 933 683 z "},"đ":{"ha":834,"x_min":56,"x_max":831,"o":"m 476 819 l 476 921 l 831 921 l 831 819 l 476 819 m 392 -21 q 212 32 287 -21 q 96 174 137 84 q 56 376 56 263 q 96 578 56 488 q 212 719 137 667 q 391 771 287 771 q 569 719 497 771 q 679 578 642 668 q 716 376 716 489 q 679 174 716 264 q 569 32 642 84 q 392 -21 497 -21 m 407 92 q 531 129 483 92 q 603 230 580 165 q 626 376 626 294 q 603 523 626 459 q 532 622 580 586 q 410 658 484 658 q 284 620 334 658 q 211 519 235 583 q 187 376 187 455 q 211 232 187 296 q 284 130 235 167 q 407 92 333 92 m 626 0 l 626 552 l 613 552 l 613 1000 l 737 1000 l 737 0 l 626 0 z "},"e":{"ha":820,"x_min":56,"x_max":769,"o":"m 422 -21 q 230 28 312 -21 q 101 165 147 77 q 56 370 56 253 q 101 583 56 493 q 227 722 146 673 q 417 771 308 771 q 609 719 530 771 q 729 570 689 667 q 763 340 769 474 l 638 340 l 638 385 q 582 591 636 523 q 421 660 528 660 q 247 586 306 660 q 187 375 187 513 q 247 169 187 242 q 417 97 306 97 q 546 131 491 97 q 632 228 601 165 l 751 188 q 619 34 707 88 q 422 -21 531 -21 m 145 340 l 145 440 l 699 440 l 699 340 l 145 340 z "},"é":{"ha":820,"x_min":56,"x_max":769,"o":"m 482 865 l 381 865 l 472 1094 l 573 1094 l 482 865 m 422 -21 q 230 28 312 -21 q 101 165 147 77 q 56 370 56 253 q 101 583 56 493 q 227 722 146 673 q 417 771 308 771 q 609 719 530 771 q 729 570 689 667 q 763 340 769 474 l 638 340 l 638 385 q 582 591 636 523 q 421 660 528 660 q 247 586 306 660 q 187 375 187 513 q 247 169 187 242 q 417 97 306 97 q 546 131 491 97 q 632 228 601 165 l 751 188 q 619 34 707 88 q 422 -21 531 -21 m 145 340 l 145 440 l 699 440 l 699 340 l 145 340 z "},"ě":{"ha":820,"x_min":56,"x_max":769,"o":"m 191 1063 l 313 1063 l 415 941 l 518 1063 l 640 1063 l 470 865 l 360 865 l 191 1063 m 422 -21 q 230 28 312 -21 q 101 165 147 77 q 56 370 56 253 q 101 583 56 493 q 227 722 146 673 q 417 771 308 771 q 609 719 530 771 q 729 570 689 667 q 763 340 769 474 l 638 340 l 638 385 q 582 591 636 523 q 421 660 528 660 q 247 586 306 660 q 187 375 187 513 q 247 169 187 242 q 417 97 306 97 q 546 131 491 97 q 632 228 601 165 l 751 188 q 619 34 707 88 q 422 -21 531 -21 m 145 340 l 145 440 l 699 440 l 699 340 l 145 340 z "},"ê":{"ha":820,"x_min":56,"x_max":769,"o":"m 191 865 l 360 1063 l 470 1063 l 640 865 l 518 865 l 415 986 l 313 865 l 191 865 m 422 -21 q 230 28 312 -21 q 101 165 147 77 q 56 370 56 253 q 101 583 56 493 q 227 722 146 673 q 417 771 308 771 q 609 719 530 771 q 729 570 689 667 q 763 340 769 474 l 638 340 l 638 385 q 582 591 636 523 q 421 660 528 660 q 247 586 306 660 q 187 375 187 513 q 247 169 187 242 q 417 97 306 97 q 546 131 491 97 q 632 228 601 165 l 751 188 q 619 34 707 88 q 422 -21 531 -21 m 145 340 l 145 440 l 699 440 l 699 340 l 145 340 z "},"ế":{"ha":820,"x_min":56,"x_max":816,"o":"m 201 865 l 371 1063 l 481 1063 l 650 865 l 528 865 l 426 986 l 323 865 l 201 865 m 725 1010 l 624 1010 l 715 1240 l 816 1240 l 725 1010 m 422 -21 q 230 28 312 -21 q 101 165 147 77 q 56 370 56 253 q 101 583 56 493 q 227 722 146 673 q 417 771 308 771 q 609 719 530 771 q 729 570 689 667 q 763 340 769 474 l 638 340 l 638 385 q 582 591 636 523 q 421 660 528 660 q 247 586 306 660 q 187 375 187 513 q 247 169 187 242 q 417 97 306 97 q 546 131 491 97 q 632 228 601 165 l 751 188 q 619 34 707 88 q 422 -21 531 -21 m 145 340 l 145 440 l 699 440 l 699 340 l 145 340 z "},"ệ":{"ha":820,"x_min":56,"x_max":769,"o":"m 342 -267 l 342 -140 l 478 -140 l 478 -267 l 342 -267 m 191 865 l 360 1063 l 470 1063 l 640 865 l 518 865 l 415 986 l 313 865 l 191 865 m 422 -21 q 230 28 312 -21 q 101 165 147 77 q 56 370 56 253 q 101 583 56 493 q 227 722 146 673 q 417 771 308 771 q 609 719 530 771 q 729 570 689 667 q 763 340 769 474 l 638 340 l 638 385 q 582 591 636 523 q 421 660 528 660 q 247 586 306 660 q 187 375 187 513 q 247 169 187 242 q 417 97 306 97 q 546 131 491 97 q 632 228 601 165 l 751 188 q 619 34 707 88 q 422 -21 531 -21 m 145 340 l 145 440 l 699 440 l 699 340 l 145 340 z "},"ề":{"ha":820,"x_min":56,"x_max":769,"o":"m 191 865 l 360 1063 l 470 1063 l 640 865 l 518 865 l 415 986 l 313 865 l 191 865 m 615 1010 l 524 1240 l 625 1240 l 716 1010 l 615 1010 m 422 -21 q 230 28 312 -21 q 101 165 147 77 q 56 370 56 253 q 101 583 56 493 q 227 722 146 673 q 417 771 308 771 q 609 719 530 771 q 729 570 689 667 q 763 340 769 474 l 638 340 l 638 385 q 582 591 636 523 q 421 660 528 660 q 247 586 306 660 q 187 375 187 513 q 247 169 187 242 q 417 97 306 97 q 546 131 491 97 q 632 228 601 165 l 751 188 q 619 34 707 88 q 422 -21 531 -21 m 145 340 l 145 440 l 699 440 l 699 340 l 145 340 z "},"ể":{"ha":820,"x_min":56,"x_max":839,"o":"m 197 865 l 366 1063 l 476 1063 l 645 865 l 524 865 l 421 986 l 318 865 l 197 865 m 635 1034 l 598 1097 q 673 1139 630 1128 q 757 1135 717 1149 q 821 1074 797 1120 q 836 1003 839 1037 q 817 942 834 969 q 773 895 799 914 q 715 867 746 876 l 683 922 q 743 969 724 939 q 745 1032 763 999 q 714 1059 733 1054 q 673 1056 694 1063 q 635 1034 652 1049 m 422 -21 q 230 28 312 -21 q 101 165 147 77 q 56 370 56 253 q 101 583 56 493 q 227 722 146 673 q 417 771 308 771 q 609 719 530 771 q 729 570 689 667 q 763 340 769 474 l 638 340 l 638 385 q 582 591 636 523 q 421 660 528 660 q 247 586 306 660 q 187 375 187 513 q 247 169 187 242 q 417 97 306 97 q 546 131 491 97 q 632 228 601 165 l 751 188 q 619 34 707 88 q 422 -21 531 -21 m 145 340 l 145 440 l 699 440 l 699 340 l 145 340 z "},"ễ":{"ha":820,"x_min":56,"x_max":769,"o":"m 194 865 l 364 1063 l 474 1063 l 643 865 l 522 865 l 419 986 l 316 865 l 194 865 m 533 1097 q 474 1110 502 1097 q 418 1140 445 1123 q 368 1169 392 1156 q 324 1182 344 1182 q 291 1160 299 1182 q 292 1111 283 1138 l 208 1111 q 219 1229 191 1181 q 316 1277 248 1277 q 375 1264 347 1277 q 431 1235 404 1251 q 481 1205 457 1218 q 525 1192 504 1192 q 558 1214 549 1192 q 558 1265 567 1235 l 641 1265 q 630 1147 658 1197 q 533 1097 601 1097 m 422 -21 q 230 28 312 -21 q 101 165 147 77 q 56 370 56 253 q 101 583 56 493 q 227 722 146 673 q 417 771 308 771 q 609 719 530 771 q 729 570 689 667 q 763 340 769 474 l 638 340 l 638 385 q 582 591 636 523 q 421 660 528 660 q 247 586 306 660 q 187 375 187 513 q 247 169 187 242 q 417 97 306 97 q 546 131 491 97 q 632 228 601 165 l 751 188 q 619 34 707 88 q 422 -21 531 -21 m 145 340 l 145 440 l 699 440 l 699 340 l 145 340 z "},"ë":{"ha":820,"x_min":56,"x_max":769,"o":"m 490 886 l 490 1011 l 615 1011 l 615 886 l 490 886 m 218 886 l 218 1011 l 343 1011 l 343 886 l 218 886 m 422 -21 q 230 28 312 -21 q 101 165 147 77 q 56 370 56 253 q 101 583 56 493 q 227 722 146 673 q 417 771 308 771 q 609 719 530 771 q 729 570 689 667 q 763 340 769 474 l 638 340 l 638 385 q 582 591 636 523 q 421 660 528 660 q 247 586 306 660 q 187 375 187 513 q 247 169 187 242 q 417 97 306 97 q 546 131 491 97 q 632 228 601 165 l 751 188 q 619 34 707 88 q 422 -21 531 -21 m 145 340 l 145 440 l 699 440 l 699 340 l 145 340 z "},"ė":{"ha":820,"x_min":56,"x_max":769,"o":"m 349 906 l 349 1042 l 485 1042 l 485 906 l 349 906 m 422 -21 q 230 28 312 -21 q 101 165 147 77 q 56 370 56 253 q 101 583 56 493 q 227 722 146 673 q 417 771 308 771 q 609 719 530 771 q 729 570 689 667 q 763 340 769 474 l 638 340 l 638 385 q 582 591 636 523 q 421 660 528 660 q 247 586 306 660 q 187 375 187 513 q 247 169 187 242 q 417 97 306 97 q 546 131 491 97 q 632 228 601 165 l 751 188 q 619 34 707 88 q 422 -21 531 -21 m 145 340 l 145 440 l 699 440 l 699 340 l 145 340 z "},"ẹ":{"ha":820,"x_min":56,"x_max":769,"o":"m 356 -267 l 356 -140 l 492 -140 l 492 -267 l 356 -267 m 422 -21 q 230 28 312 -21 q 101 165 147 77 q 56 370 56 253 q 101 583 56 493 q 227 722 146 673 q 417 771 308 771 q 609 719 530 771 q 729 570 689 667 q 763 340 769 474 l 638 340 l 638 385 q 582 591 636 523 q 421 660 528 660 q 247 586 306 660 q 187 375 187 513 q 247 169 187 242 q 417 97 306 97 q 546 131 491 97 q 632 228 601 165 l 751 188 q 619 34 707 88 q 422 -21 531 -21 m 145 340 l 145 440 l 699 440 l 699 340 l 145 340 z "},"è":{"ha":820,"x_min":56,"x_max":769,"o":"m 374 865 l 283 1094 l 383 1094 l 474 865 l 374 865 m 422 -21 q 230 28 312 -21 q 101 165 147 77 q 56 370 56 253 q 101 583 56 493 q 227 722 146 673 q 417 771 308 771 q 609 719 530 771 q 729 570 689 667 q 763 340 769 474 l 638 340 l 638 385 q 582 591 636 523 q 421 660 528 660 q 247 586 306 660 q 187 375 187 513 q 247 169 187 242 q 417 97 306 97 q 546 131 491 97 q 632 228 601 165 l 751 188 q 619 34 707 88 q 422 -21 531 -21 m 145 340 l 145 440 l 699 440 l 699 340 l 145 340 z "},"ẻ":{"ha":833,"x_min":56,"x_max":769,"o":"m 341 1037 l 304 1100 q 380 1141 336 1131 q 463 1138 423 1152 q 527 1076 503 1123 q 543 1006 545 1040 q 523 944 540 972 q 479 898 506 917 q 422 870 452 878 l 389 925 q 450 972 430 942 q 451 1035 469 1001 q 420 1061 440 1057 q 380 1059 401 1066 q 341 1037 358 1051 m 422 -21 q 230 28 312 -21 q 101 165 147 77 q 56 370 56 253 q 101 583 56 493 q 227 722 146 673 q 417 771 308 771 q 609 719 530 771 q 729 570 689 667 q 763 340 769 474 l 638 340 l 638 385 q 582 591 636 523 q 421 660 528 660 q 247 586 306 660 q 187 375 187 513 q 247 169 187 242 q 417 97 306 97 q 546 131 491 97 q 632 228 601 165 l 751 188 q 619 34 707 88 q 422 -21 531 -21 m 145 340 l 145 440 l 699 440 l 699 340 l 145 340 z "},"ē":{"ha":820,"x_min":56,"x_max":769,"o":"m 253 917 l 253 1018 l 608 1018 l 608 917 l 253 917 m 422 -21 q 230 28 312 -21 q 101 165 147 77 q 56 370 56 253 q 101 583 56 493 q 227 722 146 673 q 417 771 308 771 q 609 719 530 771 q 729 570 689 667 q 763 340 769 474 l 638 340 l 638 385 q 582 591 636 523 q 421 660 528 660 q 247 586 306 660 q 187 375 187 513 q 247 169 187 242 q 417 97 306 97 q 546 131 491 97 q 632 228 601 165 l 751 188 q 619 34 707 88 q 422 -21 531 -21 m 145 340 l 145 440 l 699 440 l 699 340 l 145 340 z "},"ę":{"ha":820,"x_min":56,"x_max":769,"o":"m 635 -321 q 548 -328 592 -339 q 474 -285 503 -317 q 442 -213 449 -255 q 451 -128 435 -171 q 480 -67 462 -97 q 516 -11 499 -36 q 551 35 528 6 q 601 97 575 63 q 645 163 626 131 l 733 155 q 698 96 718 126 q 659 37 678 65 q 623 -14 639 9 q 597 -51 606 -37 q 565 -109 579 -81 q 544 -160 551 -137 q 540 -190 540 -173 q 552 -219 540 -207 q 601 -232 573 -240 q 649 -206 628 -224 l 700 -269 q 673 -298 689 -285 q 635 -321 656 -311 m 422 -21 q 230 28 312 -21 q 101 165 147 77 q 56 370 56 253 q 101 583 56 493 q 227 722 146 673 q 417 771 308 771 q 609 719 530 771 q 729 570 689 667 q 763 340 769 474 l 638 340 l 638 385 q 582 591 636 523 q 421 660 528 660 q 247 586 306 660 q 187 375 187 513 q 247 169 187 242 q 417 97 306 97 q 546 131 491 97 q 632 228 601 165 l 751 188 q 619 34 707 88 q 422 -21 531 -21 m 145 340 l 145 440 l 699 440 l 699 340 l 145 340 z "},"ẽ":{"ha":820,"x_min":56,"x_max":769,"o":"m 532 867 q 473 880 501 867 q 418 909 444 892 q 368 939 392 926 q 324 951 344 951 q 291 930 299 951 q 291 881 283 908 l 208 881 q 219 998 191 950 q 315 1047 248 1047 q 375 1034 347 1047 q 430 1004 403 1021 q 481 975 457 988 q 524 962 504 962 q 557 983 548 962 q 557 1034 566 1005 l 640 1034 q 629 916 658 966 q 532 867 601 867 m 422 -21 q 230 28 312 -21 q 101 165 147 77 q 56 370 56 253 q 101 583 56 493 q 227 722 146 673 q 417 771 308 771 q 609 719 530 771 q 729 570 689 667 q 763 340 769 474 l 638 340 l 638 385 q 582 591 636 523 q 421 660 528 660 q 247 586 306 660 q 187 375 187 513 q 247 169 187 242 q 417 97 306 97 q 546 131 491 97 q 632 228 601 165 l 751 188 q 619 34 707 88 q 422 -21 531 -21 m 145 340 l 145 440 l 699 440 l 699 340 l 145 340 z "},"ə":{"ha":820,"x_min":52,"x_max":765,"o":"m 398 771 q 591 722 509 771 q 719 585 674 674 q 765 380 765 497 q 720 167 765 257 q 594 28 675 78 q 403 -21 513 -21 q 211 31 291 -21 q 92 180 132 83 q 58 410 52 276 l 182 410 l 182 365 q 239 159 184 228 q 399 90 293 90 q 574 164 515 90 q 633 375 633 238 q 574 581 633 508 q 403 653 515 653 q 275 620 330 653 q 188 522 219 586 l 69 563 q 202 717 114 663 q 398 771 290 771 m 675 410 l 675 310 l 121 310 l 121 410 l 675 410 z "},"f":{"ha":503,"x_min":42,"x_max":490,"o":"m 169 0 l 169 791 q 172 850 169 820 q 184 909 174 881 q 216 963 194 938 q 272 1003 242 991 q 334 1018 303 1015 q 394 1021 366 1021 l 490 1021 l 490 918 l 401 918 q 319 891 347 918 q 292 810 292 865 l 292 0 l 169 0 m 42 648 l 42 750 l 490 750 l 490 648 l 42 648 z "},"g":{"ha":833,"x_min":56,"x_max":736,"o":"m 401 -354 q 285 -336 342 -354 q 182 -282 229 -318 q 104 -190 135 -245 l 217 -130 q 296 -210 245 -185 q 401 -235 347 -235 q 520 -209 473 -235 q 590 -131 567 -183 q 612 -3 613 -80 l 612 201 l 626 201 l 626 750 l 736 750 l 736 -5 q 734 -64 736 -35 q 727 -120 733 -92 q 669 -252 713 -200 q 558 -329 626 -303 q 401 -354 490 -354 m 392 -21 q 212 32 287 -21 q 96 174 137 84 q 56 376 56 263 q 96 578 56 488 q 212 719 137 667 q 391 771 287 771 q 569 719 497 771 q 679 578 642 668 q 716 376 716 489 q 679 174 716 264 q 569 32 642 84 q 392 -21 497 -21 m 407 92 q 531 129 483 92 q 603 230 580 165 q 626 376 626 294 q 603 523 626 459 q 532 622 580 586 q 410 658 484 658 q 284 620 334 658 q 211 519 235 583 q 187 376 187 455 q 211 232 187 296 q 284 130 235 167 q 407 92 333 92 z "},"ğ":{"ha":833,"x_min":56,"x_max":736,"o":"m 449 838 q 354 863 397 838 q 285 932 311 889 q 260 1027 260 975 l 360 1027 q 386 964 360 990 q 449 938 413 938 q 513 964 487 938 q 539 1027 539 990 l 639 1027 q 614 932 639 975 q 545 863 588 889 q 449 838 502 838 m 401 -354 q 285 -336 342 -354 q 182 -282 229 -318 q 104 -190 135 -245 l 217 -130 q 296 -210 245 -185 q 401 -235 347 -235 q 520 -209 473 -235 q 590 -131 567 -183 q 612 -3 613 -80 l 612 201 l 626 201 l 626 750 l 736 750 l 736 -5 q 734 -64 736 -35 q 727 -120 733 -92 q 669 -252 713 -200 q 558 -329 626 -303 q 401 -354 490 -354 m 392 -21 q 212 32 287 -21 q 96 174 137 84 q 56 376 56 263 q 96 578 56 488 q 212 719 137 667 q 391 771 287 771 q 569 719 497 771 q 679 578 642 668 q 716 376 716 489 q 679 174 716 264 q 569 32 642 84 q 392 -21 497 -21 m 407 92 q 531 129 483 92 q 603 230 580 165 q 626 376 626 294 q 603 523 626 459 q 532 622 580 586 q 410 658 484 658 q 284 620 334 658 q 211 519 235 583 q 187 376 187 455 q 211 232 187 296 q 284 130 235 167 q 407 92 333 92 z "},"ĝ":{"ha":833,"x_min":56,"x_max":736,"o":"m 186 865 l 356 1063 l 465 1063 l 635 865 l 513 865 l 410 986 l 308 865 l 186 865 m 401 -354 q 285 -336 342 -354 q 182 -282 229 -318 q 104 -190 135 -245 l 217 -130 q 296 -210 245 -185 q 401 -235 347 -235 q 520 -209 473 -235 q 590 -131 567 -183 q 612 -3 613 -80 l 612 201 l 626 201 l 626 750 l 736 750 l 736 -5 q 734 -64 736 -35 q 727 -120 733 -92 q 669 -252 713 -200 q 558 -329 626 -303 q 401 -354 490 -354 m 392 -21 q 212 32 287 -21 q 96 174 137 84 q 56 376 56 263 q 96 578 56 488 q 212 719 137 667 q 391 771 287 771 q 569 719 497 771 q 679 578 642 668 q 716 376 716 489 q 679 174 716 264 q 569 32 642 84 q 392 -21 497 -21 m 407 92 q 531 129 483 92 q 603 230 580 165 q 626 376 626 294 q 603 523 626 459 q 532 622 580 586 q 410 658 484 658 q 284 620 334 658 q 211 519 235 583 q 187 376 187 455 q 211 232 187 296 q 284 130 235 167 q 407 92 333 92 z "},"ģ":{"ha":833,"x_min":56,"x_max":736,"o":"m 493 1162 l 493 1101 q 467 1097 484 1101 q 435 1078 449 1092 q 422 1036 422 1064 l 493 1036 l 493 906 l 363 906 l 363 1036 q 402 1130 363 1097 q 493 1162 441 1162 m 401 -354 q 285 -336 342 -354 q 182 -282 229 -318 q 104 -190 135 -245 l 217 -130 q 296 -210 245 -185 q 401 -235 347 -235 q 520 -209 473 -235 q 590 -131 567 -183 q 612 -3 613 -80 l 612 201 l 626 201 l 626 750 l 736 750 l 736 -5 q 734 -64 736 -35 q 727 -120 733 -92 q 669 -252 713 -200 q 558 -329 626 -303 q 401 -354 490 -354 m 392 -21 q 212 32 287 -21 q 96 174 137 84 q 56 376 56 263 q 96 578 56 488 q 212 719 137 667 q 391 771 287 771 q 569 719 497 771 q 679 578 642 668 q 716 376 716 489 q 679 174 716 264 q 569 32 642 84 q 392 -21 497 -21 m 407 92 q 531 129 483 92 q 603 230 580 165 q 626 376 626 294 q 603 523 626 459 q 532 622 580 586 q 410 658 484 658 q 284 620 334 658 q 211 519 235 583 q 187 376 187 455 q 211 232 187 296 q 284 130 235 167 q 407 92 333 92 z "},"ġ":{"ha":833,"x_min":56,"x_max":736,"o":"m 376 906 l 376 1042 l 512 1042 l 512 906 l 376 906 m 401 -354 q 285 -336 342 -354 q 182 -282 229 -318 q 104 -190 135 -245 l 217 -130 q 296 -210 245 -185 q 401 -235 347 -235 q 520 -209 473 -235 q 590 -131 567 -183 q 612 -3 613 -80 l 612 201 l 626 201 l 626 750 l 736 750 l 736 -5 q 734 -64 736 -35 q 727 -120 733 -92 q 669 -252 713 -200 q 558 -329 626 -303 q 401 -354 490 -354 m 392 -21 q 212 32 287 -21 q 96 174 137 84 q 56 376 56 263 q 96 578 56 488 q 212 719 137 667 q 391 771 287 771 q 569 719 497 771 q 679 578 642 668 q 716 376 716 489 q 679 174 716 264 q 569 32 642 84 q 392 -21 497 -21 m 407 92 q 531 129 483 92 q 603 230 580 165 q 626 376 626 294 q 603 523 626 459 q 532 622 580 586 q 410 658 484 658 q 284 620 334 658 q 211 519 235 583 q 187 376 187 455 q 211 232 187 296 q 284 130 235 167 q 407 92 333 92 z "},"h":{"ha":840,"x_min":97,"x_max":756,"o":"m 631 0 l 631 376 q 622 478 631 429 q 589 567 613 528 q 527 629 566 606 q 428 652 488 652 q 343 636 381 652 q 278 589 306 621 q 236 509 251 557 q 222 395 222 460 l 140 420 q 180 607 140 529 q 290 727 219 685 q 458 769 361 769 q 582 747 531 769 q 667 686 633 724 q 721 601 701 648 q 748 506 740 554 q 756 415 756 458 l 756 0 l 631 0 m 97 0 l 97 1000 l 208 1000 l 208 448 l 222 448 l 222 0 l 97 0 z "},"ħ":{"ha":840,"x_min":13,"x_max":756,"o":"m 13 819 l 13 921 l 368 921 l 368 819 l 13 819 m 631 0 l 631 376 q 622 478 631 429 q 589 567 613 528 q 527 629 566 606 q 428 652 488 652 q 343 636 381 652 q 278 589 306 621 q 236 509 251 557 q 222 395 222 460 l 140 420 q 180 607 140 529 q 290 727 219 685 q 458 769 361 769 q 582 747 531 769 q 667 686 633 724 q 721 601 701 648 q 748 506 740 554 q 756 415 756 458 l 756 0 l 631 0 m 97 0 l 97 1000 l 208 1000 l 208 448 l 222 448 l 222 0 l 97 0 z "},"ĥ":{"ha":840,"x_min":-74,"x_max":756,"o":"m -74 1115 l 96 1313 l 206 1313 l 375 1115 l 253 1115 l 151 1236 l 48 1115 l -74 1115 m 631 0 l 631 376 q 622 478 631 429 q 589 567 613 528 q 527 629 566 606 q 428 652 488 652 q 343 636 381 652 q 278 589 306 621 q 236 509 251 557 q 222 395 222 460 l 140 420 q 180 607 140 529 q 290 727 219 685 q 458 769 361 769 q 582 747 531 769 q 667 686 633 724 q 721 601 701 648 q 748 506 740 554 q 756 415 756 458 l 756 0 l 631 0 m 97 0 l 97 1000 l 208 1000 l 208 448 l 222 448 l 222 0 l 97 0 z "},"i":{"ha":346,"x_min":111,"x_max":235,"o":"m 111 883 l 111 1010 l 235 1010 l 235 883 l 111 883 m 111 0 l 111 750 l 235 750 l 235 0 l 111 0 z "},"ı":{"ha":346,"x_min":111,"x_max":235,"o":"m 111 0 l 111 750 l 235 750 l 235 0 l 111 0 z "},"í":{"ha":346,"x_min":111,"x_max":317,"o":"m 226 865 l 125 865 l 216 1094 l 317 1094 l 226 865 m 111 0 l 111 750 l 235 750 l 235 0 l 111 0 z "},"î":{"ha":346,"x_min":-46,"x_max":403,"o":"m -46 865 l 124 1063 l 233 1063 l 403 865 l 281 865 l 178 986 l 76 865 l -46 865 m 111 0 l 111 750 l 235 750 l 235 0 l 111 0 z "},"ï":{"ha":346,"x_min":-26,"x_max":372,"o":"m 247 886 l 247 1011 l 372 1011 l 372 886 l 247 886 m -26 886 l -26 1011 l 99 1011 l 99 886 l -26 886 m 111 0 l 111 750 l 235 750 l 235 0 l 111 0 z "},"ị":{"ha":346,"x_min":105,"x_max":241,"o":"m 105 -267 l 105 -140 l 241 -140 l 241 -267 l 105 -267 m 111 883 l 111 1010 l 235 1010 l 235 883 l 111 883 m 111 0 l 111 750 l 235 750 l 235 0 l 111 0 z "},"ì":{"ha":346,"x_min":30,"x_max":235,"o":"m 121 865 l 30 1094 l 131 1094 l 222 865 l 121 865 m 111 0 l 111 750 l 235 750 l 235 0 l 111 0 z "},"ỉ":{"ha":346,"x_min":41,"x_max":282,"o":"m 77 1037 l 41 1100 q 116 1141 73 1131 q 200 1138 159 1152 q 264 1076 240 1123 q 280 1006 282 1040 q 260 944 277 972 q 215 898 242 917 q 158 870 188 878 l 126 925 q 186 972 167 942 q 188 1035 206 1001 q 157 1061 176 1057 q 116 1059 138 1066 q 77 1037 95 1051 m 111 0 l 111 750 l 235 750 l 235 0 l 111 0 z "},"ī":{"ha":346,"x_min":-5,"x_max":351,"o":"m -5 917 l -5 1018 l 351 1018 l 351 917 l -5 917 m 111 0 l 111 750 l 235 750 l 235 0 l 111 0 z "},"į":{"ha":346,"x_min":-24,"x_max":237,"o":"m 114 -334 q 44 -314 75 -334 q -6 -262 13 -294 q -24 -193 -24 -230 q 2 -98 -24 -147 q 74 -7 29 -50 q 174 69 119 37 l 235 0 q 157 -57 192 -24 q 100 -124 122 -90 q 78 -185 78 -158 q 93 -223 78 -208 q 127 -237 108 -237 q 157 -229 142 -237 q 187 -207 173 -221 l 237 -269 q 181 -317 213 -301 q 114 -334 148 -334 m 111 883 l 111 1010 l 235 1010 l 235 883 l 111 883 m 111 0 l 111 750 l 235 750 l 235 0 l 111 0 z "},"ĩ":{"ha":346,"x_min":-60,"x_max":407,"o":"m 281 867 q 222 880 251 867 q 167 909 194 892 q 117 939 140 926 q 73 951 93 951 q 40 930 47 951 q 40 881 32 908 l -43 881 q -32 998 -60 950 q 65 1047 -3 1047 q 124 1034 95 1047 q 179 1004 153 1021 q 229 975 206 988 q 274 962 253 962 q 306 983 297 962 q 306 1034 315 1005 l 390 1034 q 378 916 407 966 q 281 867 350 867 m 111 0 l 111 750 l 235 750 l 235 0 l 111 0 z "},"j":{"ha":365,"x_min":-14,"x_max":261,"o":"m -14 -333 l -14 -215 l 26 -215 q 109 -188 81 -215 q 138 -102 138 -161 l 138 750 l 261 750 l 261 -144 q 214 -285 261 -237 q 73 -333 166 -333 l -14 -333 m 138 883 l 138 1010 l 261 1010 l 261 883 l 138 883 z "},"ĵ":{"ha":365,"x_min":-26,"x_max":422,"o":"m -14 -333 l -14 -215 l 26 -215 q 109 -188 81 -215 q 138 -102 138 -161 l 138 750 l 261 750 l 261 -144 q 214 -285 261 -237 q 73 -333 166 -333 l -14 -333 m -26 865 l 143 1063 l 253 1063 l 422 865 l 301 865 l 198 986 l 95 865 l -26 865 z "},"k":{"ha":708,"x_min":97,"x_max":736,"o":"m 97 0 l 97 1000 l 222 1000 l 222 389 l 537 750 l 697 750 l 366 375 l 736 0 l 563 0 l 222 361 l 222 0 l 97 0 z "},"ķ":{"ha":708,"x_min":97,"x_max":736,"o":"m 325 -396 l 325 -335 q 351 -331 334 -335 q 383 -311 369 -326 q 396 -270 397 -297 l 325 -270 l 325 -140 l 456 -140 l 456 -270 q 416 -363 456 -331 q 325 -396 377 -396 m 97 0 l 97 1000 l 222 1000 l 222 389 l 537 750 l 697 750 l 366 375 l 736 0 l 563 0 l 222 361 l 222 0 l 97 0 z "},"l":{"ha":346,"x_min":111,"x_max":235,"o":"m 111 0 l 111 1021 l 235 1021 l 235 0 l 111 0 z "},"ĺ":{"ha":346,"x_min":111,"x_max":317,"o":"m 226 1115 l 125 1115 l 216 1344 l 317 1344 l 226 1115 m 111 0 l 111 1021 l 235 1021 l 235 0 l 111 0 z "},"ľ":{"ha":510,"x_min":111,"x_max":485,"o":"m 111 0 l 111 1021 l 235 1021 l 235 0 l 111 0 m 349 694 l 357 752 q 401 763 386 750 q 419 799 415 776 q 421 850 424 822 l 349 850 l 349 1007 l 485 1007 l 485 829 q 450 719 485 756 q 349 694 414 683 z "},"ļ":{"ha":346,"x_min":108,"x_max":238,"o":"m 108 -396 l 108 -335 q 134 -331 117 -335 q 166 -311 151 -326 q 178 -270 180 -297 l 108 -270 l 108 -140 l 238 -140 l 238 -270 q 199 -363 238 -331 q 108 -396 160 -396 m 111 0 l 111 1021 l 235 1021 l 235 0 l 111 0 z "},"ł":{"ha":533,"x_min":50,"x_max":483,"o":"m 50 318 l 50 455 l 483 703 l 483 567 l 50 318 m 205 0 l 205 1021 l 328 1021 l 328 0 l 205 0 z "},"m":{"ha":1201,"x_min":97,"x_max":1118,"o":"m 994 0 l 994 480 q 950 611 994 564 q 833 659 905 659 q 754 640 792 659 q 693 580 717 621 q 669 476 669 540 l 604 503 q 637 643 603 583 q 731 736 672 703 q 866 769 791 769 q 1051 698 983 769 q 1118 507 1118 627 l 1117 0 l 994 0 m 97 0 l 97 750 l 207 750 l 207 549 l 221 549 l 221 0 l 97 0 m 546 0 l 547 475 q 502 610 547 561 q 384 659 458 659 q 266 609 311 659 q 221 476 221 559 l 156 515 q 190 646 156 588 q 285 736 225 703 q 420 769 344 769 q 552 738 496 769 q 639 646 608 706 q 669 505 669 587 l 669 0 l 546 0 z "},"n":{"ha":840,"x_min":97,"x_max":756,"o":"m 631 0 l 631 376 q 622 478 631 429 q 589 567 613 528 q 527 629 566 606 q 428 652 488 652 q 343 636 381 652 q 278 589 306 621 q 236 509 251 557 q 222 395 222 460 l 140 420 q 180 607 140 529 q 290 727 219 685 q 458 769 361 769 q 582 747 531 769 q 667 686 633 724 q 721 601 701 648 q 748 506 740 554 q 756 415 756 458 l 756 0 l 631 0 m 97 0 l 97 750 l 208 750 l 208 549 l 222 549 l 222 0 l 97 0 z "},"ń":{"ha":840,"x_min":97,"x_max":756,"o":"m 484 865 l 383 865 l 474 1094 l 575 1094 l 484 865 m 631 0 l 631 376 q 622 478 631 429 q 589 567 613 528 q 527 629 566 606 q 428 652 488 652 q 343 636 381 652 q 278 589 306 621 q 236 509 251 557 q 222 395 222 460 l 140 420 q 180 607 140 529 q 290 727 219 685 q 458 769 361 769 q 582 747 531 769 q 667 686 633 724 q 721 601 701 648 q 748 506 740 554 q 756 415 756 458 l 756 0 l 631 0 m 97 0 l 97 750 l 208 750 l 208 549 l 222 549 l 222 0 l 97 0 z "},"ň":{"ha":840,"x_min":97,"x_max":756,"o":"m 197 1063 l 318 1063 l 421 941 l 524 1063 l 645 1063 l 476 865 l 366 865 l 197 1063 m 631 0 l 631 376 q 622 478 631 429 q 589 567 613 528 q 527 629 566 606 q 428 652 488 652 q 343 636 381 652 q 278 589 306 621 q 236 509 251 557 q 222 395 222 460 l 140 420 q 180 607 140 529 q 290 727 219 685 q 458 769 361 769 q 582 747 531 769 q 667 686 633 724 q 721 601 701 648 q 748 506 740 554 q 756 415 756 458 l 756 0 l 631 0 m 97 0 l 97 750 l 208 750 l 208 549 l 222 549 l 222 0 l 97 0 z "},"ņ":{"ha":840,"x_min":97,"x_max":756,"o":"m 364 -396 l 364 -335 q 390 -331 373 -335 q 422 -311 408 -326 q 435 -270 436 -297 l 364 -270 l 364 -140 l 494 -140 l 494 -270 q 455 -363 494 -331 q 364 -396 416 -396 m 631 0 l 631 376 q 622 478 631 429 q 589 567 613 528 q 527 629 566 606 q 428 652 488 652 q 343 636 381 652 q 278 589 306 621 q 236 509 251 557 q 222 395 222 460 l 140 420 q 180 607 140 529 q 290 727 219 685 q 458 769 361 769 q 582 747 531 769 q 667 686 633 724 q 721 601 701 648 q 748 506 740 554 q 756 415 756 458 l 756 0 l 631 0 m 97 0 l 97 750 l 208 750 l 208 549 l 222 549 l 222 0 l 97 0 z "},"ŋ":{"ha":840,"x_min":97,"x_max":756,"o":"m 647 -286 q 576 -290 608 -292 q 515 -280 544 -287 l 515 -185 q 561 -187 540 -188 q 598 -177 583 -187 q 623 -146 614 -168 q 631 -84 631 -124 l 631 2 l 756 2 l 756 -127 q 727 -236 756 -197 q 647 -286 697 -276 m 631 0 l 631 376 q 622 478 631 429 q 589 567 613 528 q 527 629 566 606 q 428 652 488 652 q 343 636 381 652 q 278 589 306 621 q 236 509 251 557 q 222 395 222 460 l 140 420 q 180 607 140 529 q 290 727 219 685 q 458 769 361 769 q 582 747 531 769 q 667 686 633 724 q 721 601 701 648 q 748 506 740 554 q 756 415 756 458 l 756 0 l 631 0 m 97 0 l 97 750 l 208 750 l 208 549 l 222 549 l 222 0 l 97 0 z "},"ñ":{"ha":840,"x_min":97,"x_max":756,"o":"m 528 867 q 469 880 498 867 q 415 909 441 892 q 365 939 388 926 q 320 951 341 951 q 288 930 295 951 q 288 881 280 908 l 204 881 q 216 998 188 950 q 312 1047 244 1047 q 372 1034 343 1047 q 427 1004 400 1021 q 477 975 453 988 q 521 962 501 962 q 553 983 544 962 q 553 1034 563 1005 l 637 1034 q 626 916 654 966 q 528 867 597 867 m 631 0 l 631 376 q 622 478 631 429 q 589 567 613 528 q 527 629 566 606 q 428 652 488 652 q 343 636 381 652 q 278 589 306 621 q 236 509 251 557 q 222 395 222 460 l 140 420 q 180 607 140 529 q 290 727 219 685 q 458 769 361 769 q 582 747 531 769 q 667 686 633 724 q 721 601 701 648 q 748 506 740 554 q 756 415 756 458 l 756 0 l 631 0 m 97 0 l 97 750 l 208 750 l 208 549 l 222 549 l 222 0 l 97 0 z "},"o":{"ha":834,"x_min":56,"x_max":778,"o":"m 417 -21 q 224 30 305 -21 q 99 170 143 81 q 56 376 56 260 q 100 583 56 494 q 226 721 144 672 q 417 771 307 771 q 610 720 529 771 q 735 581 692 670 q 778 376 778 492 q 735 169 778 258 q 610 30 691 80 q 417 -21 528 -21 m 417 97 q 590 174 533 97 q 647 376 647 252 q 590 578 647 503 q 417 653 532 653 q 288 618 338 653 q 212 520 237 583 q 187 376 187 458 q 245 173 187 249 q 417 97 303 97 z "},"ó":{"ha":834,"x_min":56,"x_max":778,"o":"m 467 865 l 367 865 l 458 1094 l 558 1094 l 467 865 m 417 -21 q 224 30 305 -21 q 99 170 143 81 q 56 376 56 260 q 100 583 56 494 q 226 721 144 672 q 417 771 307 771 q 610 720 529 771 q 735 581 692 670 q 778 376 778 492 q 735 169 778 258 q 610 30 691 80 q 417 -21 528 -21 m 417 97 q 590 174 533 97 q 647 376 647 252 q 590 578 647 503 q 417 653 532 653 q 288 618 338 653 q 212 520 237 583 q 187 376 187 458 q 245 173 187 249 q 417 97 303 97 z "},"ô":{"ha":834,"x_min":56,"x_max":778,"o":"m 192 865 l 361 1063 l 471 1063 l 640 865 l 519 865 l 416 986 l 313 865 l 192 865 m 417 -21 q 224 30 305 -21 q 99 170 143 81 q 56 376 56 260 q 100 583 56 494 q 226 721 144 672 q 417 771 307 771 q 610 720 529 771 q 735 581 692 670 q 778 376 778 492 q 735 169 778 258 q 610 30 691 80 q 417 -21 528 -21 m 417 97 q 590 174 533 97 q 647 376 647 252 q 590 578 647 503 q 417 653 532 653 q 288 618 338 653 q 212 520 237 583 q 187 376 187 458 q 245 173 187 249 q 417 97 303 97 z "},"ố":{"ha":834,"x_min":56,"x_max":815,"o":"m 200 865 l 369 1063 l 479 1063 l 649 865 l 527 865 l 424 986 l 322 865 l 200 865 m 724 1010 l 623 1010 l 714 1240 l 815 1240 l 724 1010 m 417 -21 q 224 30 305 -21 q 99 170 143 81 q 56 376 56 260 q 100 583 56 494 q 226 721 144 672 q 417 771 307 771 q 610 720 529 771 q 735 581 692 670 q 778 376 778 492 q 735 169 778 258 q 610 30 691 80 q 417 -21 528 -21 m 417 97 q 590 174 533 97 q 647 376 647 252 q 590 578 647 503 q 417 653 532 653 q 288 618 338 653 q 212 520 237 583 q 187 376 187 458 q 245 173 187 249 q 417 97 303 97 z "},"ộ":{"ha":834,"x_min":56,"x_max":778,"o":"m 357 -267 l 357 -140 l 493 -140 l 493 -267 l 357 -267 m 192 865 l 361 1063 l 471 1063 l 640 865 l 519 865 l 416 986 l 313 865 l 192 865 m 417 -21 q 224 30 305 -21 q 99 170 143 81 q 56 376 56 260 q 100 583 56 494 q 226 721 144 672 q 417 771 307 771 q 610 720 529 771 q 735 581 692 670 q 778 376 778 492 q 735 169 778 258 q 610 30 691 80 q 417 -21 528 -21 m 417 97 q 590 174 533 97 q 647 376 647 252 q 590 578 647 503 q 417 653 532 653 q 288 618 338 653 q 212 520 237 583 q 187 376 187 458 q 245 173 187 249 q 417 97 303 97 z "},"ồ":{"ha":834,"x_min":56,"x_max":778,"o":"m 206 865 l 375 1063 l 485 1063 l 654 865 l 533 865 l 430 986 l 327 865 l 206 865 m 630 1010 l 539 1240 l 640 1240 l 731 1010 l 630 1010 m 417 -21 q 224 30 305 -21 q 99 170 143 81 q 56 376 56 260 q 100 583 56 494 q 226 721 144 672 q 417 771 307 771 q 610 720 529 771 q 735 581 692 670 q 778 376 778 492 q 735 169 778 258 q 610 30 691 80 q 417 -21 528 -21 m 417 97 q 590 174 533 97 q 647 376 647 252 q 590 578 647 503 q 417 653 532 653 q 288 618 338 653 q 212 520 237 583 q 187 376 187 458 q 245 173 187 249 q 417 97 303 97 z "},"ổ":{"ha":834,"x_min":56,"x_max":834,"o":"m 191 865 l 360 1063 l 470 1063 l 640 865 l 518 865 l 415 986 l 313 865 l 191 865 m 629 1034 l 593 1097 q 668 1139 625 1128 q 752 1135 711 1149 q 816 1074 792 1120 q 832 1003 834 1037 q 812 942 829 969 q 767 895 794 914 q 710 867 740 876 l 678 922 q 738 969 719 939 q 740 1032 758 999 q 709 1059 728 1054 q 668 1056 690 1063 q 629 1034 647 1049 m 417 -21 q 224 30 305 -21 q 99 170 143 81 q 56 376 56 260 q 100 583 56 494 q 226 721 144 672 q 417 771 307 771 q 610 720 529 771 q 735 581 692 670 q 778 376 778 492 q 735 169 778 258 q 610 30 691 80 q 417 -21 528 -21 m 417 97 q 590 174 533 97 q 647 376 647 252 q 590 578 647 503 q 417 653 532 653 q 288 618 338 653 q 212 520 237 583 q 187 376 187 458 q 245 173 187 249 q 417 97 303 97 z "},"ỗ":{"ha":834,"x_min":56,"x_max":778,"o":"m 203 865 l 373 1063 l 483 1063 l 652 865 l 531 865 l 428 986 l 325 865 l 203 865 m 542 1097 q 483 1110 511 1097 q 428 1140 454 1123 q 378 1169 401 1156 q 333 1182 354 1182 q 301 1160 308 1182 q 301 1111 293 1138 l 217 1111 q 229 1229 201 1181 q 325 1277 258 1277 q 385 1264 356 1277 q 440 1235 413 1251 q 490 1205 467 1218 q 534 1192 514 1192 q 567 1214 558 1192 q 567 1265 576 1235 l 650 1265 q 639 1147 667 1197 q 542 1097 610 1097 m 417 -21 q 224 30 305 -21 q 99 170 143 81 q 56 376 56 260 q 100 583 56 494 q 226 721 144 672 q 417 771 307 771 q 610 720 529 771 q 735 581 692 670 q 778 376 778 492 q 735 169 778 258 q 610 30 691 80 q 417 -21 528 -21 m 417 97 q 590 174 533 97 q 647 376 647 252 q 590 578 647 503 q 417 653 532 653 q 288 618 338 653 q 212 520 237 583 q 187 376 187 458 q 245 173 187 249 q 417 97 303 97 z "},"ö":{"ha":834,"x_min":56,"x_max":778,"o":"m 491 886 l 491 1011 l 616 1011 l 616 886 l 491 886 m 219 886 l 219 1011 l 344 1011 l 344 886 l 219 886 m 417 -21 q 224 30 305 -21 q 99 170 143 81 q 56 376 56 259 q 100 583 56 494 q 226 721 144 672 q 417 771 307 771 q 610 720 529 771 q 735 581 692 670 q 778 376 778 492 q 735 169 778 258 q 610 30 691 80 q 417 -21 528 -21 m 417 97 q 590 174 533 97 q 647 376 647 252 q 590 578 647 503 q 417 653 532 653 q 288 618 338 653 q 212 520 237 583 q 187 376 187 458 q 245 173 187 249 q 417 97 303 97 z "},"ọ":{"ha":834,"x_min":56,"x_max":778,"o":"m 349 -267 l 349 -140 l 485 -140 l 485 -267 l 349 -267 m 417 -21 q 224 30 305 -21 q 99 170 143 81 q 56 376 56 260 q 100 583 56 494 q 226 721 144 672 q 417 771 307 771 q 610 720 529 771 q 735 581 692 670 q 778 376 778 492 q 735 169 778 258 q 610 30 691 80 q 417 -21 528 -21 m 417 97 q 590 174 533 97 q 647 376 647 252 q 590 578 647 503 q 417 653 532 653 q 288 618 338 653 q 212 520 237 583 q 187 376 187 458 q 245 173 187 249 q 417 97 303 97 z "},"ò":{"ha":834,"x_min":56,"x_max":778,"o":"m 360 865 l 269 1094 l 369 1094 l 460 865 l 360 865 m 417 -21 q 224 30 305 -21 q 99 170 143 81 q 56 376 56 260 q 100 583 56 494 q 226 721 144 672 q 417 771 307 771 q 610 720 529 771 q 735 581 692 670 q 778 376 778 492 q 735 169 778 258 q 610 30 691 80 q 417 -21 528 -21 m 417 97 q 590 174 533 97 q 647 376 647 252 q 590 578 647 503 q 417 653 532 653 q 288 618 338 653 q 212 520 237 583 q 187 376 187 458 q 245 173 187 249 q 417 97 303 97 z "},"ỏ":{"ha":834,"x_min":56,"x_max":778,"o":"m 341 1037 l 304 1100 q 380 1141 336 1131 q 463 1138 423 1152 q 527 1076 503 1123 q 543 1006 545 1040 q 523 944 540 972 q 479 898 506 917 q 422 870 452 878 l 389 925 q 450 972 430 942 q 451 1035 469 1001 q 420 1061 440 1057 q 380 1059 401 1066 q 341 1037 358 1051 m 417 -21 q 224 30 305 -21 q 99 170 143 81 q 56 376 56 260 q 100 583 56 494 q 226 721 144 672 q 417 771 307 771 q 610 720 529 771 q 735 581 692 670 q 778 376 778 492 q 735 169 778 258 q 610 30 691 80 q 417 -21 528 -21 m 417 97 q 590 174 533 97 q 647 376 647 252 q 590 578 647 503 q 417 653 532 653 q 288 618 338 653 q 212 520 237 583 q 187 376 187 458 q 245 173 187 249 q 417 97 303 97 z "},"ơ":{"ha":834,"x_min":56,"x_max":783,"o":"m 675 875 l 774 875 q 770 766 783 812 q 715 694 758 719 q 626 672 679 674 q 528 699 573 671 l 528 756 q 585 745 562 747 q 628 754 608 744 q 672 805 665 772 q 675 875 678 838 m 417 -21 q 224 30 305 -21 q 99 170 143 81 q 56 376 56 260 q 100 583 56 494 q 226 721 144 672 q 417 771 307 771 q 610 720 529 771 q 735 581 692 670 q 778 376 778 492 q 735 169 778 258 q 610 30 691 80 q 417 -21 528 -21 m 417 97 q 590 174 533 97 q 647 376 647 252 q 590 578 647 503 q 417 653 532 653 q 288 618 338 653 q 212 520 237 583 q 187 376 187 458 q 245 173 187 249 q 417 97 303 97 z "},"ớ":{"ha":852,"x_min":56,"x_max":783,"o":"m 675 875 l 774 875 q 770 766 783 812 q 715 694 758 719 q 626 672 679 674 q 528 699 573 671 l 528 756 q 585 745 562 747 q 628 754 608 744 q 672 805 665 772 q 675 875 678 838 m 467 865 l 367 865 l 458 1094 l 558 1094 l 467 865 m 417 -21 q 224 30 305 -21 q 99 170 143 81 q 56 376 56 260 q 100 583 56 494 q 226 721 144 672 q 417 771 307 771 q 610 720 529 771 q 735 581 692 670 q 778 376 778 492 q 735 169 778 258 q 610 30 691 80 q 417 -21 528 -21 m 417 97 q 590 174 533 97 q 647 376 647 252 q 590 578 647 503 q 417 653 532 653 q 288 618 338 653 q 212 520 237 583 q 187 376 187 458 q 245 173 187 249 q 417 97 303 97 z "},"ợ":{"ha":834,"x_min":56,"x_max":783,"o":"m 356 -267 l 356 -140 l 492 -140 l 492 -267 l 356 -267 m 675 875 l 774 875 q 770 766 783 812 q 715 694 758 719 q 626 672 679 674 q 528 699 573 671 l 528 756 q 585 745 562 747 q 628 754 608 744 q 672 805 665 772 q 675 875 678 838 m 417 -21 q 224 30 305 -21 q 99 170 143 81 q 56 376 56 260 q 100 583 56 494 q 226 721 144 672 q 417 771 307 771 q 610 720 529 771 q 735 581 692 670 q 778 376 778 492 q 735 169 778 258 q 610 30 691 80 q 417 -21 528 -21 m 417 97 q 590 174 533 97 q 647 376 647 252 q 590 578 647 503 q 417 653 532 653 q 288 618 338 653 q 212 520 237 583 q 187 376 187 458 q 245 173 187 249 q 417 97 303 97 z "},"ờ":{"ha":852,"x_min":56,"x_max":783,"o":"m 675 875 l 774 875 q 770 766 783 812 q 715 694 758 719 q 626 672 679 674 q 528 699 573 671 l 528 756 q 585 745 562 747 q 628 754 608 744 q 672 805 665 772 q 675 875 678 838 m 360 865 l 269 1094 l 369 1094 l 460 865 l 360 865 m 417 -21 q 224 30 305 -21 q 99 170 143 81 q 56 376 56 260 q 100 583 56 494 q 226 721 144 672 q 417 771 307 771 q 610 720 529 771 q 735 581 692 670 q 778 376 778 492 q 735 169 778 258 q 610 30 691 80 q 417 -21 528 -21 m 417 97 q 590 174 533 97 q 647 376 647 252 q 590 578 647 503 q 417 653 532 653 q 288 618 338 653 q 212 520 237 583 q 187 376 187 458 q 245 173 187 249 q 417 97 303 97 z "},"ở":{"ha":834,"x_min":56,"x_max":783,"o":"m 341 1037 l 304 1100 q 380 1141 336 1131 q 463 1138 423 1152 q 527 1076 503 1123 q 543 1006 545 1040 q 523 944 540 972 q 479 898 506 917 q 422 870 452 878 l 389 925 q 450 972 430 942 q 451 1035 469 1001 q 420 1061 440 1057 q 380 1059 401 1066 q 341 1037 358 1051 m 675 875 l 774 875 q 770 766 783 812 q 715 694 758 719 q 626 672 679 674 q 528 699 573 671 l 528 756 q 585 745 562 747 q 628 754 608 744 q 672 805 665 772 q 675 875 678 838 m 417 -21 q 224 30 305 -21 q 99 170 143 81 q 56 376 56 260 q 100 583 56 494 q 226 721 144 672 q 417 771 307 771 q 610 720 529 771 q 735 581 692 670 q 778 376 778 492 q 735 169 778 258 q 610 30 691 80 q 417 -21 528 -21 m 417 97 q 590 174 533 97 q 647 376 647 252 q 590 578 647 503 q 417 653 532 653 q 288 618 338 653 q 212 520 237 583 q 187 376 187 458 q 245 173 187 249 q 417 97 303 97 z "},"ỡ":{"ha":834,"x_min":56,"x_max":783,"o":"m 532 867 q 473 880 501 867 q 418 909 444 892 q 368 939 392 926 q 324 951 344 951 q 291 930 299 951 q 291 881 283 908 l 208 881 q 219 998 191 950 q 315 1047 248 1047 q 375 1034 347 1047 q 430 1004 403 1021 q 481 975 457 988 q 524 962 504 962 q 557 983 548 962 q 557 1034 566 1005 l 640 1034 q 629 916 658 966 q 532 867 601 867 m 675 875 l 774 875 q 770 766 783 812 q 715 694 758 719 q 626 672 679 674 q 528 699 573 671 l 528 756 q 585 745 562 747 q 628 754 608 744 q 672 805 665 772 q 675 875 678 838 m 417 -21 q 224 30 305 -21 q 99 170 143 81 q 56 376 56 260 q 100 583 56 494 q 226 721 144 672 q 417 771 307 771 q 610 720 529 771 q 735 581 692 670 q 778 376 778 492 q 735 169 778 258 q 610 30 691 80 q 417 -21 528 -21 m 417 97 q 590 174 533 97 q 647 376 647 252 q 590 578 647 503 q 417 653 532 653 q 288 618 338 653 q 212 520 237 583 q 187 376 187 458 q 245 173 187 249 q 417 97 303 97 z "},"ő":{"ha":834,"x_min":56,"x_max":778,"o":"m 596 865 l 495 865 l 586 1094 l 687 1094 l 596 865 m 327 865 l 226 865 l 317 1094 l 418 1094 l 327 865 m 417 -21 q 224 30 305 -21 q 99 170 143 81 q 56 376 56 260 q 100 583 56 494 q 226 721 144 672 q 417 771 307 771 q 610 720 529 771 q 735 581 692 670 q 778 376 778 492 q 735 169 778 258 q 610 30 691 80 q 417 -21 528 -21 m 417 97 q 590 174 533 97 q 647 376 647 252 q 590 578 647 503 q 417 653 532 653 q 288 618 338 653 q 212 520 237 583 q 187 376 187 458 q 245 173 187 249 q 417 97 303 97 z "},"ō":{"ha":834,"x_min":56,"x_max":778,"o":"m 240 917 l 240 1018 l 595 1018 l 595 917 l 240 917 m 417 -21 q 224 30 305 -21 q 99 170 143 81 q 56 376 56 260 q 100 583 56 494 q 226 721 144 672 q 417 771 307 771 q 610 720 529 771 q 735 581 692 670 q 778 376 778 492 q 735 169 778 258 q 610 30 691 80 q 417 -21 528 -21 m 417 97 q 590 174 533 97 q 647 376 647 252 q 590 578 647 503 q 417 653 532 653 q 288 618 338 653 q 212 520 237 583 q 187 376 187 458 q 245 173 187 249 q 417 97 303 97 z "},"ø":{"ha":834,"x_min":31,"x_max":803,"o":"m 114 -10 l 31 73 l 151 193 l 187 215 l 599 626 l 615 656 l 720 760 l 803 677 l 688 563 l 657 546 l 253 142 l 228 103 l 114 -10 m 417 -21 q 224 30 305 -21 q 99 170 143 81 q 56 376 56 260 q 100 583 56 494 q 226 721 144 672 q 417 771 307 771 q 610 720 529 771 q 735 581 692 670 q 778 376 778 492 q 735 169 778 258 q 610 30 691 80 q 417 -21 528 -21 m 417 97 q 590 174 533 97 q 647 376 647 252 q 590 578 647 503 q 417 653 532 653 q 288 618 338 653 q 212 520 237 583 q 187 376 187 458 q 245 173 187 249 q 417 97 303 97 z "},"õ":{"ha":834,"x_min":56,"x_max":778,"o":"m 526 867 q 467 880 495 867 q 412 909 438 892 q 362 939 385 926 q 317 951 338 951 q 285 930 292 951 q 285 881 277 908 l 201 881 q 213 998 185 950 q 309 1047 242 1047 q 369 1034 340 1047 q 424 1004 397 1021 q 474 975 451 988 q 518 962 498 962 q 551 983 542 962 q 551 1034 560 1005 l 634 1034 q 623 916 651 966 q 526 867 594 867 m 417 -21 q 224 30 305 -21 q 99 170 143 81 q 56 376 56 260 q 100 583 56 494 q 226 721 144 672 q 417 771 307 771 q 610 720 529 771 q 735 581 692 670 q 778 376 778 492 q 735 169 778 258 q 610 30 691 80 q 417 -21 528 -21 m 417 97 q 590 174 533 97 q 647 376 647 252 q 590 578 647 503 q 417 653 532 653 q 288 618 338 653 q 212 520 237 583 q 187 376 187 458 q 245 173 187 249 q 417 97 303 97 z "},"œ":{"ha":1413,"x_min":56,"x_max":1361,"o":"m 1015 -21 q 822 28 904 -21 q 694 165 740 77 q 648 370 648 253 q 693 583 648 493 q 819 722 738 673 q 1009 771 900 771 q 1202 719 1122 771 q 1321 570 1281 667 q 1356 340 1361 474 l 1231 340 l 1231 385 q 1174 591 1228 523 q 1013 660 1120 660 q 839 586 899 660 q 779 375 779 513 q 839 169 779 242 q 1009 97 899 97 q 1138 131 1083 97 q 1224 228 1193 165 l 1343 188 q 1211 34 1299 88 q 1015 -21 1124 -21 m 738 340 l 738 440 l 1292 440 l 1292 340 l 738 340 m 417 -21 q 224 30 305 -21 q 99 170 143 81 q 56 376 56 260 q 100 583 56 494 q 226 721 144 672 q 417 771 307 771 q 610 720 529 771 q 735 581 692 670 q 778 376 778 492 q 735 169 778 258 q 610 30 691 80 q 417 -21 528 -21 m 417 97 q 590 174 533 97 q 647 376 647 252 q 590 578 647 503 q 417 653 532 653 q 288 618 338 653 q 212 520 237 583 q 187 376 187 458 q 245 173 187 249 q 417 97 303 97 z "},"p":{"ha":833,"x_min":97,"x_max":778,"o":"m 442 -21 q 264 32 336 -21 q 155 174 192 84 q 117 376 117 264 q 155 578 117 489 q 264 719 192 668 q 442 771 337 771 q 622 719 547 771 q 738 578 697 667 q 778 376 778 488 q 738 174 778 263 q 622 32 697 84 q 442 -21 547 -21 m 97 -333 l 97 750 l 207 750 l 207 198 l 221 198 l 221 -333 l 97 -333 m 426 92 q 549 130 501 92 q 622 232 598 167 q 647 376 647 296 q 623 519 647 455 q 549 620 599 583 q 423 658 499 658 q 302 622 350 658 q 231 523 254 586 q 207 376 207 459 q 230 230 207 294 q 302 129 253 165 q 426 92 351 92 z "},"þ":{"ha":833,"x_min":97,"x_max":778,"o":"m 97 572 l 97 1000 l 222 1000 l 222 572 l 97 572 m 442 -21 q 264 32 336 -21 q 155 174 192 84 q 117 376 117 264 q 155 578 117 489 q 264 719 192 668 q 442 771 337 771 q 622 719 547 771 q 738 578 697 667 q 778 376 778 488 q 738 174 778 263 q 622 32 697 84 q 442 -21 547 -21 m 97 -333 l 97 750 l 207 750 l 207 198 l 221 198 l 221 -333 l 97 -333 m 426 92 q 549 130 501 92 q 622 232 598 167 q 647 376 647 296 q 623 519 647 455 q 549 620 599 583 q 423 658 499 658 q 302 622 350 658 q 231 523 254 586 q 207 376 207 459 q 230 230 207 294 q 302 129 253 165 q 426 92 351 92 z "},"q":{"ha":834,"x_min":56,"x_max":737,"o":"m 392 -21 q 212 32 287 -21 q 96 174 137 84 q 56 376 56 263 q 96 578 56 488 q 212 719 137 667 q 391 771 287 771 q 569 719 497 771 q 679 578 642 668 q 716 376 716 489 q 679 174 716 264 q 569 32 642 84 q 392 -21 497 -21 m 407 92 q 531 129 483 92 q 603 230 580 165 q 626 376 626 294 q 603 523 626 459 q 532 622 580 586 q 410 658 484 658 q 284 620 334 658 q 211 519 235 583 q 187 376 187 455 q 211 232 187 296 q 284 130 235 167 q 407 92 333 92 m 613 -333 l 613 198 l 626 198 l 626 750 l 737 750 l 737 -333 l 613 -333 z "},"r":{"ha":519,"x_min":97,"x_max":484,"o":"m 97 0 l 97 750 l 208 750 l 208 569 l 190 592 q 224 656 203 627 q 272 704 245 685 q 338 740 301 728 q 413 755 374 753 q 484 750 451 758 l 484 634 q 399 640 445 644 q 313 606 352 635 q 257 543 276 580 q 229 464 237 506 q 222 376 222 421 l 222 0 l 97 0 z "},"ŕ":{"ha":519,"x_min":97,"x_max":484,"o":"m 295 865 l 194 865 l 285 1094 l 386 1094 l 295 865 m 97 0 l 97 750 l 208 750 l 208 569 l 190 592 q 224 656 203 627 q 272 704 245 685 q 338 740 301 728 q 413 755 374 753 q 484 750 451 758 l 484 634 q 399 640 445 644 q 313 606 352 635 q 257 543 276 580 q 229 464 237 506 q 222 376 222 421 l 222 0 l 97 0 z "},"ř":{"ha":519,"x_min":65,"x_max":514,"o":"m 65 1063 l 187 1063 l 290 941 l 392 1063 l 514 1063 l 344 865 l 235 865 l 65 1063 m 97 0 l 97 750 l 208 750 l 208 569 l 190 592 q 224 656 203 627 q 272 704 245 685 q 338 740 301 728 q 413 755 374 753 q 484 750 451 758 l 484 634 q 399 640 445 644 q 313 606 352 635 q 257 543 276 580 q 229 464 237 506 q 222 376 222 421 l 222 0 l 97 0 z "},"ŗ":{"ha":519,"x_min":94,"x_max":484,"o":"m 94 -396 l 94 -335 q 121 -331 103 -335 q 152 -311 138 -326 q 165 -270 167 -297 l 94 -270 l 94 -140 l 225 -140 l 225 -270 q 186 -363 225 -331 q 94 -396 147 -396 m 97 0 l 97 750 l 208 750 l 208 569 l 190 592 q 224 656 203 627 q 272 704 245 685 q 338 740 301 728 q 413 755 374 753 q 484 750 451 758 l 484 634 q 399 640 445 644 q 313 606 352 635 q 257 543 276 580 q 229 464 237 506 q 222 376 222 421 l 222 0 l 97 0 z "},"s":{"ha":737,"x_min":56,"x_max":681,"o":"m 381 -20 q 161 39 247 -20 q 56 203 75 97 l 182 223 q 252 126 197 162 q 388 90 307 90 q 509 122 465 90 q 553 209 553 154 q 538 261 553 241 q 478 298 524 281 q 341 340 433 315 q 185 394 242 366 q 103 460 128 423 q 79 551 79 498 q 115 667 79 617 q 216 744 151 717 q 367 771 281 771 q 520 744 453 771 q 629 667 588 717 q 678 551 670 617 l 551 528 q 493 624 542 589 q 367 660 444 658 q 249 635 294 663 q 203 558 203 606 q 220 511 203 531 q 284 474 238 492 q 418 435 330 457 q 575 380 517 410 q 656 311 632 351 q 681 213 681 271 q 601 42 681 104 q 381 -20 521 -20 z "},"ś":{"ha":737,"x_min":56,"x_max":681,"o":"m 421 865 l 320 865 l 411 1094 l 512 1094 l 421 865 m 381 -20 q 161 39 247 -20 q 56 203 75 97 l 182 223 q 252 126 197 162 q 388 90 307 90 q 509 122 465 90 q 553 209 553 154 q 538 261 553 241 q 478 298 524 281 q 341 340 433 315 q 185 394 242 366 q 103 460 128 423 q 79 551 79 498 q 115 667 79 617 q 216 744 151 717 q 367 771 281 771 q 520 744 453 771 q 629 667 588 717 q 678 551 670 617 l 551 528 q 493 624 542 589 q 367 660 444 658 q 249 635 294 663 q 203 558 203 606 q 220 511 203 531 q 284 474 238 492 q 418 435 330 457 q 575 380 517 410 q 656 311 632 351 q 681 213 681 271 q 601 42 681 104 q 381 -20 521 -20 z "},"š":{"ha":737,"x_min":56,"x_max":681,"o":"m 157 1063 l 278 1063 l 381 941 l 484 1063 l 606 1063 l 436 865 l 326 865 l 157 1063 m 381 -20 q 161 39 247 -20 q 56 203 75 97 l 182 223 q 252 126 197 162 q 388 90 307 90 q 509 122 465 90 q 553 209 553 154 q 538 261 553 241 q 478 298 524 281 q 341 340 433 315 q 185 394 242 366 q 103 460 128 423 q 79 551 79 498 q 115 667 79 617 q 216 744 151 717 q 367 771 281 771 q 520 744 453 771 q 629 667 588 717 q 678 551 670 617 l 551 528 q 493 624 542 589 q 367 660 444 658 q 249 635 294 663 q 203 558 203 606 q 220 511 203 531 q 284 474 238 492 q 418 435 330 457 q 575 380 517 410 q 656 311 632 351 q 681 213 681 271 q 601 42 681 104 q 381 -20 521 -20 z "},"ş":{"ha":737,"x_min":56,"x_max":681,"o":"m 359 -334 q 311 -327 333 -334 q 268 -311 288 -321 l 298 -231 q 349 -242 329 -242 q 387 -227 374 -242 q 401 -194 401 -212 q 373 -150 401 -163 q 309 -126 345 -136 l 360 17 l 444 17 l 411 -74 q 472 -122 449 -92 q 495 -197 495 -152 q 455 -295 495 -256 q 359 -334 415 -334 m 381 -20 q 161 39 247 -20 q 56 203 75 97 l 182 223 q 252 126 197 162 q 388 90 307 90 q 509 122 465 90 q 553 209 553 154 q 538 261 553 241 q 478 298 524 281 q 341 340 433 315 q 185 394 242 366 q 103 460 128 423 q 79 551 79 498 q 115 667 79 617 q 216 744 151 717 q 367 771 281 771 q 520 744 453 771 q 629 667 588 717 q 678 551 670 617 l 551 528 q 493 624 542 589 q 367 660 444 658 q 249 635 294 663 q 203 558 203 606 q 220 511 203 531 q 284 474 238 492 q 418 435 330 457 q 575 380 517 410 q 656 311 632 351 q 681 213 681 271 q 601 42 681 104 q 381 -20 521 -20 z "},"ŝ":{"ha":737,"x_min":56,"x_max":681,"o":"m 157 865 l 326 1063 l 436 1063 l 606 865 l 484 865 l 381 986 l 278 865 l 157 865 m 381 -20 q 161 39 247 -20 q 56 203 75 97 l 182 223 q 252 126 197 162 q 388 90 307 90 q 509 122 465 90 q 553 209 553 154 q 538 261 553 241 q 478 298 524 281 q 341 340 433 315 q 185 394 242 366 q 103 460 128 423 q 79 551 79 498 q 115 667 79 617 q 216 744 151 717 q 367 771 281 771 q 520 744 453 771 q 629 667 588 717 q 678 551 670 617 l 551 528 q 493 624 542 589 q 367 660 444 658 q 249 635 294 663 q 203 558 203 606 q 220 511 203 531 q 284 474 238 492 q 418 435 330 457 q 575 380 517 410 q 656 311 632 351 q 681 213 681 271 q 601 42 681 104 q 381 -20 521 -20 z "},"ș":{"ha":737,"x_min":56,"x_max":681,"o":"m 310 -396 l 310 -335 q 337 -331 319 -335 q 368 -311 354 -326 q 381 -270 383 -297 l 310 -270 l 310 -140 l 441 -140 l 441 -270 q 402 -363 441 -331 q 310 -396 363 -396 m 381 -20 q 161 39 247 -20 q 56 203 75 97 l 182 223 q 252 126 197 162 q 388 90 307 90 q 509 122 465 90 q 553 209 553 154 q 538 261 553 241 q 478 298 524 281 q 341 340 433 315 q 185 394 242 366 q 103 460 128 423 q 79 551 79 498 q 115 667 79 617 q 216 744 151 717 q 367 771 281 771 q 520 744 453 771 q 629 667 588 717 q 678 551 670 617 l 551 528 q 493 624 542 589 q 367 660 444 658 q 249 635 294 663 q 203 558 203 606 q 220 511 203 531 q 284 474 238 492 q 418 435 330 457 q 575 380 517 410 q 656 311 632 351 q 681 213 681 271 q 601 42 681 104 q 381 -20 521 -20 z "},"ß":{"ha":848,"x_min":97,"x_max":765,"o":"m 449 -20 q 380 -16 410 -20 q 321 0 349 -11 l 321 122 q 374 107 347 113 q 435 102 401 102 q 583 150 526 102 q 639 290 639 199 q 570 427 639 380 q 388 476 501 475 l 388 588 q 472 611 435 592 q 531 664 510 630 q 553 747 553 697 q 506 863 553 822 q 388 903 460 903 q 299 883 340 903 q 240 814 258 862 q 227 764 231 792 q 224 704 224 735 l 224 0 l 97 0 l 97 738 q 100 798 97 770 q 113 849 104 826 q 173 946 133 908 q 268 1002 213 984 q 388 1021 323 1021 q 538 988 472 1021 q 641 893 603 954 q 679 749 679 832 q 652 630 679 683 q 571 549 625 576 q 639 520 605 541 q 702 465 674 499 q 747 388 730 432 q 765 288 765 343 q 684 64 765 147 q 449 -20 603 -20 z "},"t":{"ha":572,"x_min":14,"x_max":516,"o":"m 516 0 q 384 -11 449 -13 q 269 16 319 -8 q 192 90 218 40 q 168 180 169 135 q 166 283 166 226 l 166 958 l 290 958 l 290 289 q 291 210 290 243 q 305 154 292 178 q 384 102 330 110 q 516 106 439 94 l 516 0 m 14 648 l 14 750 l 516 750 l 516 648 l 14 648 z "},"ŧ":{"ha":599,"x_min":14,"x_max":530,"o":"m 14 331 l 14 433 l 530 433 l 530 331 l 14 331 m 516 0 q 384 -11 449 -13 q 269 16 319 -8 q 192 90 218 40 q 168 180 169 135 q 166 283 166 226 l 166 958 l 290 958 l 290 289 q 291 210 290 243 q 305 154 292 178 q 384 102 330 110 q 516 106 439 94 l 516 0 m 14 648 l 14 750 l 516 750 l 516 648 l 14 648 z "},"ť":{"ha":572,"x_min":14,"x_max":580,"o":"m 516 0 q 384 -11 449 -13 q 269 16 319 -8 q 192 90 218 40 q 168 180 169 135 q 166 283 166 226 l 166 958 l 290 958 l 290 289 q 291 210 290 243 q 305 154 292 178 q 384 102 330 110 q 516 106 439 94 l 516 0 m 14 648 l 14 750 l 516 750 l 516 648 l 14 648 m 444 848 l 451 906 q 495 917 481 903 q 514 953 510 930 q 515 1003 518 976 l 444 1003 l 444 1160 l 580 1160 l 580 983 q 544 873 580 910 q 444 848 508 836 z "},"ţ":{"ha":572,"x_min":14,"x_max":516,"o":"m 305 -334 q 257 -327 279 -334 q 214 -311 234 -321 l 244 -231 q 294 -242 275 -242 q 333 -227 319 -242 q 347 -194 347 -212 q 319 -150 347 -163 q 255 -126 291 -136 l 306 17 l 390 17 l 357 -74 q 418 -122 395 -92 q 441 -197 441 -152 q 401 -295 441 -256 q 305 -334 360 -334 m 516 0 q 384 -11 449 -13 q 269 16 319 -8 q 192 90 218 40 q 168 180 169 135 q 166 283 166 226 l 166 958 l 290 958 l 290 289 q 291 210 290 243 q 305 154 292 178 q 384 102 330 110 q 516 106 439 94 l 516 0 m 14 648 l 14 750 l 516 750 l 516 648 l 14 648 z "},"ț":{"ha":572,"x_min":14,"x_max":516,"o":"m 239 -396 l 239 -335 q 265 -331 248 -335 q 297 -311 283 -326 q 310 -270 311 -297 l 239 -270 l 239 -140 l 369 -140 l 369 -270 q 330 -363 369 -331 q 239 -396 291 -396 m 516 0 q 384 -11 449 -13 q 269 16 319 -8 q 192 90 218 40 q 168 180 169 135 q 166 283 166 226 l 166 958 l 290 958 l 290 289 q 291 210 290 243 q 305 154 292 178 q 384 102 330 110 q 516 106 439 94 l 516 0 m 14 648 l 14 750 l 516 750 l 516 648 l 14 648 z "},"u":{"ha":840,"x_min":83,"x_max":742,"o":"m 382 -19 q 258 3 310 -19 q 172 65 206 26 q 119 149 138 103 q 91 244 99 196 q 83 335 83 293 l 83 750 l 208 750 l 208 374 q 218 272 208 322 q 251 183 228 223 q 314 121 274 144 q 412 98 353 98 q 497 114 458 98 q 562 161 535 130 q 603 242 589 193 q 618 355 618 290 l 699 330 q 660 143 699 222 q 550 23 621 65 q 382 -19 478 -19 m 632 0 l 632 201 l 618 201 l 618 750 l 742 750 l 742 0 l 632 0 z "},"ú":{"ha":840,"x_min":83,"x_max":742,"o":"m 458 865 l 358 865 l 449 1094 l 549 1094 l 458 865 m 382 -19 q 258 3 310 -19 q 172 65 206 26 q 119 149 138 103 q 91 244 99 196 q 83 335 83 293 l 83 750 l 208 750 l 208 374 q 218 272 208 322 q 251 183 228 223 q 314 121 274 144 q 412 98 353 98 q 497 114 458 98 q 562 161 535 130 q 603 242 589 193 q 618 355 618 290 l 699 330 q 660 143 699 222 q 550 23 621 65 q 382 -19 478 -19 m 632 0 l 632 201 l 618 201 l 618 750 l 742 750 l 742 0 l 632 0 z "},"ŭ":{"ha":840,"x_min":83,"x_max":742,"o":"m 413 838 q 317 863 360 838 q 249 932 274 889 q 224 1027 224 975 l 324 1027 q 350 964 324 990 q 413 938 376 938 q 477 964 451 938 q 503 1027 503 990 l 603 1027 q 577 932 603 975 q 508 863 551 889 q 413 838 465 838 m 382 -19 q 258 3 310 -19 q 172 65 206 26 q 119 149 138 103 q 91 244 99 196 q 83 335 83 293 l 83 750 l 208 750 l 208 374 q 218 272 208 322 q 251 183 228 223 q 314 121 274 144 q 412 98 353 98 q 497 114 458 98 q 562 161 535 130 q 603 242 589 193 q 618 355 618 290 l 699 330 q 660 143 699 222 q 550 23 621 65 q 382 -19 478 -19 m 632 0 l 632 201 l 618 201 l 618 750 l 742 750 l 742 0 l 632 0 z "},"û":{"ha":840,"x_min":83,"x_max":742,"o":"m 187 865 l 356 1063 l 466 1063 l 635 865 l 514 865 l 411 986 l 308 865 l 187 865 m 382 -19 q 258 3 310 -19 q 172 65 206 26 q 119 149 138 103 q 91 244 99 196 q 83 335 83 293 l 83 750 l 208 750 l 208 374 q 218 272 208 322 q 251 183 228 223 q 314 121 274 144 q 412 98 353 98 q 497 114 458 98 q 562 161 535 130 q 603 242 589 193 q 618 355 618 290 l 699 330 q 660 143 699 222 q 550 23 621 65 q 382 -19 478 -19 m 632 0 l 632 201 l 618 201 l 618 750 l 742 750 l 742 0 l 632 0 z "},"ü":{"ha":840,"x_min":83,"x_max":742,"o":"m 486 886 l 486 1011 l 611 1011 l 611 886 l 486 886 m 214 886 l 214 1011 l 339 1011 l 339 886 l 214 886 m 382 -19 q 258 3 310 -19 q 172 65 206 26 q 119 149 138 103 q 91 244 99 196 q 83 335 83 293 l 83 750 l 208 750 l 208 374 q 218 272 208 322 q 251 183 228 223 q 314 121 274 144 q 412 98 353 98 q 497 114 458 98 q 562 161 535 130 q 603 242 589 193 q 618 355 618 290 l 699 330 q 660 143 699 222 q 550 23 621 65 q 382 -19 478 -19 m 632 0 l 632 201 l 618 201 l 618 750 l 742 750 l 742 0 l 632 0 z "},"ụ":{"ha":840,"x_min":83,"x_max":742,"o":"m 349 -267 l 349 -140 l 485 -140 l 485 -267 l 349 -267 m 382 -19 q 258 3 310 -19 q 172 65 206 26 q 119 149 138 103 q 91 244 99 196 q 83 335 83 293 l 83 750 l 208 750 l 208 374 q 218 272 208 322 q 251 183 228 223 q 314 121 274 144 q 412 98 353 98 q 497 114 458 98 q 562 161 535 130 q 603 242 589 193 q 618 355 618 290 l 699 330 q 660 143 699 222 q 550 23 621 65 q 382 -19 478 -19 m 632 0 l 632 201 l 618 201 l 618 750 l 742 750 l 742 0 l 632 0 z "},"ù":{"ha":840,"x_min":83,"x_max":742,"o":"m 372 865 l 281 1094 l 381 1094 l 472 865 l 372 865 m 382 -19 q 258 3 310 -19 q 172 65 206 26 q 119 149 138 103 q 91 244 99 196 q 83 335 83 293 l 83 750 l 208 750 l 208 374 q 218 272 208 322 q 251 183 228 223 q 314 121 274 144 q 412 98 353 98 q 497 114 458 98 q 562 161 535 130 q 603 242 589 193 q 618 355 618 290 l 699 330 q 660 143 699 222 q 550 23 621 65 q 382 -19 478 -19 m 632 0 l 632 201 l 618 201 l 618 750 l 742 750 l 742 0 l 632 0 z "},"ủ":{"ha":840,"x_min":83,"x_max":742,"o":"m 341 1037 l 304 1100 q 380 1141 336 1131 q 463 1138 423 1152 q 527 1076 503 1123 q 543 1006 545 1040 q 523 944 540 972 q 479 898 506 917 q 422 870 452 878 l 389 925 q 450 972 430 942 q 451 1035 469 1001 q 420 1061 440 1057 q 380 1059 401 1066 q 341 1037 358 1051 m 382 -19 q 258 3 310 -19 q 172 65 206 26 q 119 149 138 103 q 91 244 99 196 q 83 335 83 293 l 83 750 l 208 750 l 208 374 q 218 272 208 322 q 251 183 228 223 q 314 121 274 144 q 412 98 353 98 q 497 114 458 98 q 562 161 535 130 q 603 242 589 193 q 618 355 618 290 l 699 330 q 660 143 699 222 q 550 23 621 65 q 382 -19 478 -19 m 632 0 l 632 201 l 618 201 l 618 750 l 742 750 l 742 0 l 632 0 z "},"ư":{"ha":840,"x_min":83,"x_max":878,"o":"m 769 875 l 869 875 q 864 767 878 812 q 810 695 851 722 q 730 672 775 673 q 643 676 685 670 l 643 750 q 674 751 658 751 q 704 754 689 751 q 763 800 753 764 q 769 875 772 835 m 382 -19 q 258 3 310 -19 q 172 65 206 26 q 119 149 138 103 q 91 244 99 196 q 83 335 83 293 l 83 750 l 208 750 l 208 374 q 218 272 208 322 q 251 183 228 223 q 314 121 274 144 q 412 98 353 98 q 497 114 458 98 q 562 161 535 130 q 603 242 589 193 q 618 355 618 290 l 699 330 q 660 143 699 222 q 550 23 621 65 q 382 -19 478 -19 m 632 0 l 632 201 l 618 201 l 618 750 l 742 750 l 742 0 l 632 0 z "},"ứ":{"ha":840,"x_min":83,"x_max":878,"o":"m 769 875 l 869 875 q 864 767 878 812 q 810 695 851 722 q 730 672 775 673 q 643 676 685 670 l 643 750 q 674 751 658 751 q 704 754 689 751 q 763 800 753 764 q 769 875 772 835 m 458 865 l 358 865 l 449 1094 l 549 1094 l 458 865 m 382 -19 q 258 3 310 -19 q 172 65 206 26 q 119 149 138 103 q 91 244 99 196 q 83 335 83 293 l 83 750 l 208 750 l 208 374 q 218 272 208 322 q 251 183 228 223 q 314 121 274 144 q 412 98 353 98 q 497 114 458 98 q 562 161 535 130 q 603 242 589 193 q 618 355 618 290 l 699 330 q 660 143 699 222 q 550 23 621 65 q 382 -19 478 -19 m 632 0 l 632 201 l 618 201 l 618 750 l 742 750 l 742 0 l 632 0 z "},"ự":{"ha":840,"x_min":83,"x_max":878,"o":"m 770 875 l 869 875 q 865 767 878 812 q 811 695 851 722 q 731 672 776 673 q 644 676 686 670 l 644 750 q 674 751 659 751 q 705 754 690 751 q 763 800 754 764 q 770 875 772 835 m 356 -267 l 356 -140 l 492 -140 l 492 -267 l 356 -267 m 382 -19 q 258 3 310 -19 q 172 65 206 26 q 119 149 138 103 q 91 244 99 196 q 83 335 83 293 l 83 750 l 208 750 l 208 374 q 218 272 208 322 q 251 183 228 223 q 314 121 274 144 q 412 98 353 98 q 497 114 458 98 q 562 161 535 130 q 603 242 589 193 q 618 355 618 290 l 699 330 q 660 143 699 222 q 550 23 621 65 q 382 -19 478 -19 m 632 0 l 632 201 l 618 201 l 618 750 l 742 750 l 742 0 l 632 0 z "},"ừ":{"ha":840,"x_min":83,"x_max":878,"o":"m 769 874 l 869 874 q 864 766 878 811 q 810 694 851 721 q 730 671 775 672 q 643 675 685 669 l 643 749 q 674 750 658 750 q 704 753 689 750 q 763 799 753 763 q 769 874 772 835 m 372 865 l 281 1094 l 381 1094 l 472 865 l 372 865 m 382 -19 q 258 3 310 -19 q 172 65 206 26 q 119 149 138 103 q 91 244 99 196 q 83 335 83 293 l 83 750 l 208 750 l 208 374 q 218 272 208 322 q 251 183 228 223 q 314 121 274 144 q 412 98 353 98 q 497 114 458 98 q 562 161 535 130 q 603 242 589 193 q 618 355 618 290 l 699 330 q 660 143 699 222 q 550 23 621 65 q 382 -19 478 -19 m 632 0 l 632 201 l 618 201 l 618 750 l 742 750 l 742 0 l 632 0 z "},"ử":{"ha":840,"x_min":83,"x_max":878,"o":"m 769 875 l 869 875 q 864 767 878 812 q 810 695 851 722 q 730 672 775 673 q 643 676 685 670 l 643 750 q 674 751 658 751 q 704 754 689 751 q 763 800 753 764 q 769 875 772 835 m 341 1037 l 304 1100 q 380 1141 336 1131 q 463 1138 423 1152 q 527 1076 503 1123 q 543 1006 545 1040 q 523 944 540 972 q 479 898 506 917 q 422 870 452 878 l 389 925 q 450 972 430 942 q 451 1035 469 1001 q 420 1061 440 1057 q 380 1059 401 1066 q 341 1037 358 1051 m 382 -19 q 258 3 310 -19 q 172 65 206 26 q 119 149 138 103 q 91 244 99 196 q 83 335 83 293 l 83 750 l 208 750 l 208 374 q 218 272 208 322 q 251 183 228 223 q 314 121 274 144 q 412 98 353 98 q 497 114 458 98 q 562 161 535 130 q 603 242 589 193 q 618 355 618 290 l 699 330 q 660 143 699 222 q 550 23 621 65 q 382 -19 478 -19 m 632 0 l 632 201 l 618 201 l 618 750 l 742 750 l 742 0 l 632 0 z "},"ữ":{"ha":840,"x_min":83,"x_max":878,"o":"m 769 875 l 869 875 q 864 767 878 812 q 810 695 851 722 q 730 672 775 673 q 643 676 685 670 l 643 750 q 674 751 658 751 q 704 754 689 751 q 763 800 753 764 q 769 875 772 835 m 532 867 q 473 880 501 867 q 418 909 444 892 q 368 939 392 926 q 324 951 344 951 q 291 930 299 951 q 291 881 283 908 l 208 881 q 219 998 191 950 q 315 1047 248 1047 q 375 1034 347 1047 q 430 1004 403 1021 q 481 975 457 988 q 524 962 504 962 q 557 983 548 962 q 557 1034 566 1005 l 640 1034 q 629 916 658 966 q 532 867 601 867 m 382 -19 q 258 3 310 -19 q 172 65 206 26 q 119 149 138 103 q 91 244 99 196 q 83 335 83 293 l 83 750 l 208 750 l 208 374 q 218 272 208 322 q 251 183 228 223 q 314 121 274 144 q 412 98 353 98 q 497 114 458 98 q 562 161 535 130 q 603 242 589 193 q 618 355 618 290 l 699 330 q 660 143 699 222 q 550 23 621 65 q 382 -19 478 -19 m 632 0 l 632 201 l 618 201 l 618 750 l 742 750 l 742 0 l 632 0 z "},"ű":{"ha":840,"x_min":83,"x_max":742,"o":"m 590 865 l 490 865 l 581 1094 l 681 1094 l 590 865 m 322 865 l 221 865 l 312 1094 l 413 1094 l 322 865 m 382 -19 q 258 3 310 -19 q 172 65 206 26 q 119 149 138 103 q 91 244 99 196 q 83 335 83 293 l 83 750 l 208 750 l 208 374 q 218 272 208 322 q 251 183 228 223 q 314 121 274 144 q 412 98 353 98 q 497 114 458 98 q 562 161 535 130 q 603 242 589 193 q 618 355 618 290 l 699 330 q 660 143 699 222 q 550 23 621 65 q 382 -19 478 -19 m 632 0 l 632 201 l 618 201 l 618 750 l 742 750 l 742 0 l 632 0 z "},"ū":{"ha":840,"x_min":83,"x_max":742,"o":"m 235 917 l 235 1018 l 590 1018 l 590 917 l 235 917 m 382 -19 q 258 3 310 -19 q 172 65 206 26 q 119 149 138 103 q 91 244 99 196 q 83 335 83 293 l 83 750 l 208 750 l 208 374 q 218 272 208 322 q 251 183 228 223 q 314 121 274 144 q 412 98 353 98 q 497 114 458 98 q 562 161 535 130 q 603 242 589 193 q 618 355 618 290 l 699 330 q 660 143 699 222 q 550 23 621 65 q 382 -19 478 -19 m 632 0 l 632 201 l 618 201 l 618 750 l 742 750 l 742 0 l 632 0 z "},"ų":{"ha":840,"x_min":83,"x_max":744,"o":"m 622 -334 q 551 -314 583 -334 q 502 -262 520 -294 q 483 -193 483 -230 q 510 -98 483 -147 q 582 -7 537 -50 q 681 69 626 37 l 742 0 q 665 -57 700 -24 q 608 -124 629 -90 q 586 -185 586 -158 q 601 -223 586 -208 q 635 -237 615 -237 q 665 -229 649 -237 q 694 -207 681 -221 l 744 -269 q 688 -317 721 -301 q 622 -334 656 -334 m 382 -19 q 258 3 310 -19 q 172 65 206 26 q 119 149 138 103 q 91 244 99 196 q 83 335 83 293 l 83 750 l 208 750 l 208 374 q 218 272 208 322 q 251 183 228 223 q 314 121 274 144 q 412 98 353 98 q 497 114 458 98 q 562 161 535 130 q 603 242 589 193 q 618 355 618 290 l 699 330 q 660 143 699 222 q 550 23 621 65 q 382 -19 478 -19 m 632 0 l 632 201 l 618 201 l 618 750 l 742 750 l 742 0 l 632 0 z "},"ů":{"ha":840,"x_min":83,"x_max":742,"o":"m 413 830 q 333 852 369 830 q 274 910 296 874 q 252 991 252 947 q 274 1072 252 1035 q 333 1130 296 1108 q 413 1152 369 1152 q 495 1130 458 1152 q 553 1072 531 1108 q 574 991 574 1035 q 553 910 574 947 q 495 852 531 874 q 413 830 458 830 m 413 915 q 468 937 446 915 q 490 991 490 960 q 468 1045 490 1023 q 413 1067 446 1067 q 359 1045 382 1067 q 337 991 337 1023 q 359 937 337 960 q 413 915 382 915 m 382 -19 q 258 3 310 -19 q 172 65 206 26 q 119 149 138 103 q 91 244 99 196 q 83 335 83 293 l 83 750 l 208 750 l 208 374 q 218 272 208 322 q 251 183 228 223 q 314 121 274 144 q 412 98 353 98 q 497 114 458 98 q 562 161 535 130 q 603 242 589 193 q 618 355 618 290 l 699 330 q 660 143 699 222 q 550 23 621 65 q 382 -19 478 -19 m 632 0 l 632 201 l 618 201 l 618 750 l 742 750 l 742 0 l 632 0 z "},"ũ":{"ha":840,"x_min":83,"x_max":742,"o":"m 382 -19 q 258 3 310 -19 q 172 65 206 26 q 119 149 138 103 q 91 244 99 196 q 83 335 83 293 l 83 750 l 208 750 l 208 374 q 218 272 208 322 q 251 183 228 223 q 314 121 274 144 q 412 98 353 98 q 497 114 458 98 q 562 161 535 130 q 603 242 589 193 q 618 355 618 290 l 699 330 q 660 143 699 222 q 550 23 621 65 q 382 -19 478 -19 m 632 0 l 632 201 l 618 201 l 618 750 l 742 750 l 742 0 l 632 0 m 536 867 q 477 880 506 867 q 422 909 449 892 q 372 939 396 926 q 328 951 349 951 q 295 930 303 951 q 295 881 288 908 l 212 881 q 224 998 195 950 q 319 1047 252 1047 q 379 1034 351 1047 q 434 1004 408 1021 q 485 975 461 988 q 528 962 508 962 q 561 983 552 962 q 561 1034 570 1005 l 644 1034 q 633 916 662 966 q 536 867 605 867 z "},"v":{"ha":726,"x_min":28,"x_max":699,"o":"m 300 0 l 28 750 l 153 750 l 363 158 l 573 750 l 699 750 l 426 0 l 300 0 z "},"w":{"ha":1082,"x_min":28,"x_max":1054,"o":"m 257 0 l 28 751 l 151 750 l 318 201 l 487 750 l 596 750 l 764 201 l 932 750 l 1054 750 l 825 0 l 722 0 l 541 570 l 360 0 l 257 0 z "},"ẃ":{"ha":1082,"x_min":28,"x_max":1054,"o":"m 599 865 l 498 865 l 589 1094 l 690 1094 l 599 865 m 257 0 l 28 751 l 151 750 l 318 201 l 487 750 l 596 750 l 764 201 l 932 750 l 1054 750 l 825 0 l 722 0 l 541 570 l 360 0 l 257 0 z "},"ŵ":{"ha":1082,"x_min":28,"x_max":1054,"o":"m 315 865 l 485 1063 l 594 1063 l 764 865 l 642 865 l 540 986 l 437 865 l 315 865 m 257 0 l 28 751 l 151 750 l 318 201 l 487 750 l 596 750 l 764 201 l 932 750 l 1054 750 l 825 0 l 722 0 l 541 570 l 360 0 l 257 0 z "},"ẅ":{"ha":1082,"x_min":28,"x_max":1054,"o":"m 615 886 l 615 1011 l 740 1011 l 740 886 l 615 886 m 342 886 l 342 1011 l 467 1011 l 467 886 l 342 886 m 257 0 l 28 751 l 151 750 l 318 201 l 487 750 l 596 750 l 764 201 l 932 750 l 1054 750 l 825 0 l 722 0 l 541 570 l 360 0 l 257 0 z "},"ẁ":{"ha":1082,"x_min":28,"x_max":1054,"o":"m 484 865 l 393 1094 l 494 1094 l 585 865 l 484 865 m 257 0 l 28 751 l 151 750 l 318 201 l 487 750 l 596 750 l 764 201 l 932 750 l 1054 750 l 825 0 l 722 0 l 541 570 l 360 0 l 257 0 z "},"x":{"ha":744,"x_min":14,"x_max":731,"o":"m 14 0 l 301 379 l 20 750 l 167 750 l 373 475 l 576 750 l 724 750 l 443 379 l 731 0 l 583 0 l 373 283 l 162 0 l 14 0 z "},"y":{"ha":747,"x_min":21,"x_max":730,"o":"m 201 -333 l 347 61 l 349 -56 l 21 750 l 151 750 l 408 102 l 363 102 l 604 750 l 730 750 l 322 -333 l 201 -333 z "},"ý":{"ha":747,"x_min":21,"x_max":730,"o":"m 427 865 l 326 865 l 417 1094 l 518 1094 l 427 865 m 201 -333 l 347 61 l 349 -56 l 21 750 l 151 750 l 408 102 l 363 102 l 604 750 l 730 750 l 322 -333 l 201 -333 z "},"ŷ":{"ha":747,"x_min":21,"x_max":730,"o":"m 159 865 l 328 1063 l 438 1063 l 608 865 l 486 865 l 383 986 l 281 865 l 159 865 m 201 -333 l 347 61 l 349 -56 l 21 750 l 151 750 l 408 102 l 363 102 l 604 750 l 730 750 l 322 -333 l 201 -333 z "},"ÿ":{"ha":747,"x_min":21,"x_max":730,"o":"m 455 886 l 455 1011 l 580 1011 l 580 886 l 455 886 m 183 886 l 183 1011 l 308 1011 l 308 886 l 183 886 m 201 -333 l 347 61 l 349 -56 l 21 750 l 151 750 l 408 102 l 363 102 l 604 750 l 730 750 l 322 -333 l 201 -333 z "},"ỵ":{"ha":747,"x_min":21,"x_max":730,"o":"m 511 -267 l 511 -140 l 647 -140 l 647 -267 l 511 -267 m 201 -333 l 347 61 l 349 -56 l 21 750 l 151 750 l 408 102 l 363 102 l 604 750 l 730 750 l 322 -333 l 201 -333 z "},"ỳ":{"ha":747,"x_min":21,"x_max":730,"o":"m 335 865 l 244 1094 l 345 1094 l 436 865 l 335 865 m 201 -333 l 347 61 l 349 -56 l 21 750 l 151 750 l 408 102 l 363 102 l 604 750 l 730 750 l 322 -333 l 201 -333 z "},"ỷ":{"ha":747,"x_min":21,"x_max":730,"o":"m 299 1037 l 263 1100 q 338 1141 294 1131 q 422 1138 381 1152 q 485 1076 462 1123 q 501 1006 503 1040 q 481 944 499 972 q 437 898 464 917 q 380 870 410 878 l 347 925 q 408 972 388 942 q 410 1035 428 1001 q 378 1061 398 1057 q 338 1059 359 1066 q 299 1037 317 1051 m 201 -333 l 347 61 l 349 -56 l 21 750 l 151 750 l 408 102 l 363 102 l 604 750 l 730 750 l 322 -333 l 201 -333 z "},"ỹ":{"ha":747,"x_min":21,"x_max":730,"o":"m 201 -333 l 347 61 l 349 -56 l 21 750 l 151 750 l 408 102 l 363 102 l 604 750 l 730 750 l 322 -333 l 201 -333 m 490 867 q 431 880 460 867 q 376 909 403 892 q 326 939 350 926 q 282 951 303 951 q 249 930 257 951 q 249 881 242 908 l 166 881 q 178 998 149 950 q 274 1047 206 1047 q 333 1034 305 1047 q 389 1004 362 1021 q 439 975 415 988 q 483 962 463 962 q 515 983 506 962 q 515 1034 524 1005 l 599 1034 q 588 916 616 966 q 490 867 559 867 z "},"z":{"ha":738,"x_min":28,"x_max":682,"o":"m 28 0 l 28 22 l 483 638 l 65 638 l 65 750 l 682 750 l 682 726 l 228 113 l 658 113 l 658 0 l 28 0 z "},"ź":{"ha":738,"x_min":28,"x_max":682,"o":"m 438 865 l 338 865 l 428 1094 l 529 1094 l 438 865 m 28 0 l 28 22 l 483 638 l 65 638 l 65 750 l 682 750 l 682 726 l 228 113 l 658 113 l 658 0 l 28 0 z "},"ž":{"ha":738,"x_min":28,"x_max":682,"o":"m 158 1063 l 280 1063 l 383 941 l 485 1063 l 607 1063 l 438 865 l 328 865 l 158 1063 m 28 0 l 28 22 l 483 638 l 65 638 l 65 750 l 682 750 l 682 726 l 228 113 l 658 113 l 658 0 l 28 0 z "},"ż":{"ha":738,"x_min":28,"x_max":682,"o":"m 311 906 l 311 1042 l 447 1042 l 447 906 l 311 906 m 28 0 l 28 22 l 483 638 l 65 638 l 65 750 l 682 750 l 682 726 l 228 113 l 658 113 l 658 0 l 28 0 z "},"":{"ha":944,"x_min":42,"x_max":931,"o":"m 169 0 l 169 791 q 172 850 169 820 q 184 909 174 881 q 216 963 194 938 q 272 1003 242 991 q 334 1018 303 1015 q 394 1021 366 1021 l 490 1021 l 490 918 l 401 918 q 319 891 347 918 q 292 810 292 865 l 292 0 l 169 0 m 42 648 l 42 750 l 490 750 l 490 648 l 42 648 m 610 0 l 610 791 q 613 850 610 820 q 625 909 615 881 q 657 963 635 938 q 713 1003 683 991 q 775 1018 744 1015 q 835 1021 807 1021 l 931 1021 l 931 918 l 842 918 q 760 891 788 918 q 733 810 733 865 l 733 0 l 610 0 m 483 648 l 483 750 l 931 750 l 931 648 l 483 648 z "},"":{"ha":1338,"x_min":42,"x_max":1227,"o":"m 913 648 l 913 750 l 1114 750 l 1114 648 l 913 648 m 610 0 l 610 791 q 613 850 610 820 q 625 909 615 881 q 657 963 635 938 q 713 1003 683 991 q 775 1018 744 1015 q 835 1021 807 1021 l 931 1021 l 931 918 l 842 918 q 760 891 788 918 q 733 810 733 865 l 733 0 l 610 0 m 483 648 l 483 750 l 931 750 l 931 648 l 483 648 m 1103 0 l 1103 1021 l 1227 1021 l 1227 0 l 1103 0 m 169 0 l 169 791 q 172 850 169 820 q 184 909 174 881 q 216 963 194 938 q 272 1003 242 991 q 334 1018 303 1015 q 394 1021 366 1021 l 490 1021 l 490 918 l 401 918 q 319 891 347 918 q 292 810 292 865 l 292 0 l 169 0 m 42 648 l 42 750 l 490 750 l 490 648 l 42 648 z "},"ﬁ":{"ha":870,"x_min":42,"x_max":759,"o":"m 169 0 l 169 791 q 172 850 169 820 q 184 909 174 881 q 216 963 194 938 q 272 1003 242 991 q 334 1018 303 1015 q 394 1021 366 1021 l 490 1021 l 490 918 l 401 918 q 319 891 347 918 q 292 810 292 865 l 292 0 l 169 0 m 42 648 l 42 750 l 490 750 l 490 648 l 42 648 m 635 883 l 635 1010 l 759 1010 l 759 883 l 635 883 m 635 0 l 635 750 l 759 750 l 759 0 l 635 0 z "},"ﬂ":{"ha":897,"x_min":42,"x_max":786,"o":"m 472 648 l 472 750 l 673 750 l 673 648 l 472 648 m 169 0 l 169 791 q 172 850 169 820 q 184 909 174 881 q 216 963 194 938 q 272 1003 242 991 q 334 1018 303 1015 q 394 1021 366 1021 l 490 1021 l 490 918 l 401 918 q 319 891 347 918 q 292 810 292 865 l 292 0 l 169 0 m 42 648 l 42 750 l 490 750 l 490 648 l 42 648 m 663 0 l 663 1021 l 786 1021 l 786 0 l 663 0 z "},"":{"ha":1060,"x_min":14,"x_max":1004,"o":"m 516 0 q 384 -11 449 -13 q 269 16 319 -8 q 192 90 218 40 q 168 180 169 135 q 166 283 166 226 l 166 958 l 290 958 l 290 289 q 291 210 290 243 q 305 154 292 178 q 384 102 330 110 q 516 106 439 94 l 516 0 m 14 648 l 14 750 l 516 750 l 516 648 l 14 648 m 1004 0 q 873 -11 938 -13 q 757 16 808 -8 q 680 90 706 40 q 656 180 658 135 q 654 283 654 226 l 654 958 l 778 958 l 778 289 q 779 210 778 243 q 793 154 780 178 q 873 102 818 110 q 1004 106 927 94 l 1004 0 m 502 648 l 502 750 l 1004 750 l 1004 648 l 502 648 z "},"ª":{"ha":440,"x_min":56,"x_max":384,"o":"m 182 375 q 88 409 120 375 q 56 488 56 442 q 77 558 56 530 q 143 600 99 585 q 229 618 178 611 q 335 633 280 626 l 307 609 q 291 677 309 656 q 226 699 273 699 q 175 686 199 699 q 142 644 151 674 l 69 666 q 123 742 83 714 q 227 771 162 771 q 315 754 277 771 q 370 701 353 738 q 382 661 380 681 q 384 616 384 640 l 384 385 l 315 385 l 315 469 l 326 455 q 268 394 302 414 q 182 375 233 375 m 197 438 q 267 461 241 438 q 299 506 292 483 q 306 545 305 523 q 306 578 306 567 l 332 569 q 242 555 278 560 q 181 542 206 549 q 146 522 159 534 q 133 489 133 509 q 149 453 133 467 q 197 438 165 438 z "},"º":{"ha":482,"x_min":56,"x_max":426,"o":"m 241 375 q 106 431 156 375 q 56 574 56 486 q 107 716 56 662 q 241 771 158 771 q 376 716 326 771 q 426 574 426 660 q 376 430 426 485 q 241 375 325 375 m 240 449 q 318 483 292 449 q 344 574 344 518 q 318 664 344 630 q 240 698 292 698 q 164 664 188 698 q 139 573 139 629 q 164 483 139 517 q 240 449 190 449 z "},"А":{"ha":897,"x_min":28,"x_max":869,"o":"m 28 0 l 363 1000 l 535 1000 l 869 0 l 741 0 l 428 928 l 467 928 l 156 0 l 28 0 m 189 234 l 189 350 l 708 350 l 708 234 l 189 234 z "},"Б":{"ha":855,"x_min":97,"x_max":813,"o":"m 97 0 l 97 1000 l 732 1000 l 732 883 l 221 883 l 221 617 l 492 617 q 527 616 507 617 q 566 612 547 615 q 700 559 645 602 q 784 451 756 517 q 813 308 813 386 q 785 166 813 231 q 701 58 756 101 q 566 5 646 15 q 527 1 547 3 q 492 0 507 0 l 97 0 m 221 117 l 488 117 q 518 119 501 117 q 551 123 535 120 q 655 192 623 138 q 687 308 687 247 q 655 425 687 372 q 551 494 623 479 q 518 498 535 497 q 488 499 501 499 l 221 499 l 221 117 z "},"В":{"ha":860,"x_min":97,"x_max":819,"o":"m 97 0 l 97 1000 l 487 1000 q 640 963 576 1000 q 737 866 703 926 q 771 737 771 806 q 729 594 771 656 q 617 510 688 533 l 615 544 q 765 450 712 519 q 819 286 819 381 q 783 135 819 199 q 680 35 747 71 q 522 0 613 0 l 97 0 m 222 118 l 498 118 q 597 139 553 118 q 666 197 641 159 q 692 287 692 234 q 669 378 692 338 q 606 442 647 418 q 512 466 565 466 l 222 466 l 222 118 m 222 583 l 485 583 q 566 602 530 583 q 623 656 601 621 q 644 737 644 690 q 600 842 644 801 q 485 883 556 883 l 222 883 l 222 583 z "},"Г":{"ha":743,"x_min":97,"x_max":729,"o":"m 97 0 l 97 1000 l 729 1000 l 729 883 l 221 883 l 221 0 l 97 0 z "},"Ѓ":{"ha":743,"x_min":97,"x_max":729,"o":"m 378 1115 l 277 1115 l 368 1344 l 469 1344 l 378 1115 m 97 0 l 97 1000 l 729 1000 l 729 883 l 221 883 l 221 0 l 97 0 z "},"Ґ":{"ha":757,"x_min":97,"x_max":743,"o":"m 97 0 l 97 1000 l 619 1000 l 619 1139 l 743 1139 l 743 883 l 221 883 l 221 0 l 97 0 z "},"Д":{"ha":1031,"x_min":49,"x_max":976,"o":"m 49 -167 l 49 117 q 138 145 103 117 q 192 220 172 173 q 221 328 211 268 q 238 451 231 388 q 252 626 247 542 q 263 802 258 711 q 274 1001 268 893 l 903 1000 l 903 117 l 976 117 l 976 -167 l 852 -167 l 852 0 l 172 0 l 172 -167 l 49 -167 m 265 117 l 779 117 l 779 883 l 389 883 q 381 729 385 803 q 372 580 377 655 q 358 421 366 505 q 341 286 350 343 q 314 189 331 230 q 265 117 297 149 z "},"Е":{"ha":799,"x_min":97,"x_max":729,"o":"m 97 0 l 97 1000 l 729 1000 l 729 883 l 221 883 l 221 569 l 646 569 l 646 452 l 221 452 l 221 117 l 729 117 l 729 0 l 97 0 z "},"Ѐ":{"ha":799,"x_min":97,"x_max":729,"o":"m 382 1115 l 291 1344 l 392 1344 l 483 1115 l 382 1115 m 97 0 l 97 1000 l 729 1000 l 729 883 l 221 883 l 221 569 l 646 569 l 646 452 l 221 452 l 221 117 l 729 117 l 729 0 l 97 0 z "},"Ё":{"ha":799,"x_min":97,"x_max":729,"o":"m 476 1136 l 476 1261 l 601 1261 l 601 1136 l 476 1136 m 203 1136 l 203 1261 l 328 1261 l 328 1136 l 203 1136 m 97 0 l 97 1000 l 729 1000 l 729 883 l 221 883 l 221 569 l 646 569 l 646 452 l 221 452 l 221 117 l 729 117 l 729 0 l 97 0 z "},"Ж":{"ha":1249,"x_min":14,"x_max":1235,"o":"m 14 0 l 435 515 l 49 1000 l 201 1000 l 563 538 l 563 1000 l 686 1000 l 686 538 l 1047 1000 l 1199 1000 l 814 515 l 1235 0 l 1078 0 l 686 482 l 686 0 l 563 0 l 563 482 l 170 0 l 14 0 z "},"З":{"ha":853,"x_min":49,"x_max":804,"o":"m 428 -21 q 250 9 326 -21 q 124 89 174 40 q 49 194 74 138 l 158 262 q 210 181 175 218 q 300 120 245 143 q 433 97 356 97 q 566 122 513 97 q 646 189 619 147 q 673 288 673 232 q 642 385 673 351 q 558 434 610 419 q 442 450 506 448 q 372 453 393 452 q 343 453 350 453 q 329 453 335 453 l 329 572 q 356 572 335 572 q 398 572 376 572 q 433 573 420 572 q 581 620 526 578 q 636 738 636 663 q 580 860 636 816 q 435 903 524 903 q 291 864 350 903 q 196 762 231 824 l 101 843 q 236 970 149 920 q 438 1021 322 1021 q 561 1004 502 1021 q 667 952 621 987 q 740 866 713 918 q 767 742 767 813 q 735 605 767 665 q 649 513 702 545 q 763 432 722 488 q 804 286 804 376 q 757 124 804 192 q 624 17 709 55 q 428 -21 540 -21 z "},"И":{"ha":966,"x_min":97,"x_max":869,"o":"m 869 0 l 744 0 l 744 782 l 222 0 l 97 0 l 97 1000 l 222 1000 l 222 219 l 744 1000 l 869 1000 l 869 0 z "},"Й":{"ha":966,"x_min":97,"x_max":869,"o":"m 97 0 l 97 1000 l 222 1000 l 222 219 l 744 1000 l 869 1000 l 869 0 l 744 0 l 744 782 l 222 0 l 97 0 m 488 1088 q 393 1113 435 1088 q 324 1182 350 1139 q 299 1277 299 1224 l 399 1277 q 425 1214 399 1240 q 488 1188 451 1188 q 552 1214 526 1188 q 578 1277 578 1240 l 678 1277 q 652 1182 678 1224 q 584 1113 627 1139 q 488 1088 540 1088 z "},"Ѝ":{"ha":966,"x_min":97,"x_max":869,"o":"m 97 0 l 97 1000 l 222 1000 l 222 219 l 744 1000 l 869 1000 l 869 0 l 744 0 l 744 782 l 222 0 l 97 0 m 449 1115 l 358 1344 l 458 1344 l 549 1115 l 449 1115 z "},"К":{"ha":849,"x_min":97,"x_max":849,"o":"m 97 0 l 97 1000 l 221 1000 l 221 531 l 658 1000 l 814 1000 l 360 515 l 849 0 l 690 0 l 221 489 l 221 0 l 97 0 z "},"Ќ":{"ha":849,"x_min":97,"x_max":849,"o":"m 97 0 l 97 1000 l 221 1000 l 221 531 l 658 1000 l 814 1000 l 360 515 l 849 0 l 690 0 l 221 489 l 221 0 l 97 0 m 489 1115 l 388 1115 l 479 1344 l 580 1344 l 489 1115 z "},"Л":{"ha":982,"x_min":28,"x_max":885,"o":"m 28 0 l 28 108 q 89 111 65 104 q 129 141 113 118 q 156 208 144 164 q 179 323 168 252 q 203 491 194 406 q 220 662 213 576 q 233 833 228 748 q 241 1000 238 918 l 885 1000 l 885 0 l 761 0 l 761 883 l 358 883 q 350 748 354 819 q 338 598 345 676 q 322 438 331 520 q 297 269 312 355 q 269 144 285 201 q 224 49 253 87 q 148 -3 195 10 q 28 0 101 -17 z "},"М":{"ha":1174,"x_min":97,"x_max":1077,"o":"m 97 0 l 97 1000 l 210 1000 l 588 203 l 963 1000 l 1077 1000 l 1077 1 l 960 1 l 960 728 l 620 0 l 554 0 l 215 728 l 215 0 l 97 0 z "},"Н":{"ha":968,"x_min":97,"x_max":871,"o":"m 97 0 l 97 1000 l 221 1000 l 221 559 l 747 559 l 747 1000 l 871 1000 l 871 0 l 747 0 l 747 442 l 221 442 l 221 0 l 97 0 z "},"О":{"ha":1017,"x_min":42,"x_max":975,"o":"m 508 -21 q 255 45 359 -21 q 96 228 151 111 q 42 500 42 346 q 96 772 42 654 q 255 955 151 889 q 508 1021 359 1021 q 763 955 658 1021 q 921 772 867 889 q 975 500 975 654 q 921 228 975 346 q 763 45 867 111 q 508 -21 658 -21 m 508 97 q 695 148 620 97 q 807 290 769 199 q 844 500 844 381 q 807 710 844 620 q 695 851 769 801 q 508 903 620 902 q 323 853 397 903 q 211 711 249 802 q 173 500 174 620 q 210 290 172 381 q 322 149 247 200 q 508 97 397 98 z "},"П":{"ha":975,"x_min":97,"x_max":878,"o":"m 97 0 l 97 1000 l 878 1000 l 878 0 l 754 0 l 754 883 l 221 883 l 221 0 l 97 0 z "},"Р":{"ha":855,"x_min":97,"x_max":813,"o":"m 97 0 l 97 1000 l 492 1000 q 527 999 507 1000 q 566 994 547 998 q 702 939 647 982 q 785 830 758 896 q 813 685 813 765 q 785 540 813 606 q 702 431 757 474 q 566 375 647 388 q 527 371 547 372 q 492 369 507 369 l 221 369 l 221 0 l 97 0 m 221 487 l 488 487 q 518 488 501 487 q 551 493 535 490 q 629 534 599 504 q 673 603 659 563 q 687 685 687 643 q 673 766 687 726 q 629 836 659 806 q 551 876 599 866 q 518 882 535 881 q 488 883 501 883 l 221 883 l 221 487 z "},"С":{"ha":1004,"x_min":42,"x_max":949,"o":"m 508 -21 q 255 45 359 -21 q 96 228 151 111 q 42 500 42 346 q 96 772 42 654 q 255 955 151 889 q 508 1021 359 1021 q 794 933 682 1021 q 949 695 906 844 l 823 662 q 714 838 792 774 q 508 903 635 903 q 322 852 397 903 q 210 711 248 801 q 172 500 173 620 q 209 290 172 381 q 322 148 247 199 q 508 97 397 97 q 714 162 635 97 q 823 338 792 227 l 949 305 q 794 68 906 156 q 508 -21 682 -21 z "},"Т":{"ha":833,"x_min":14,"x_max":819,"o":"m 355 0 l 355 883 l 14 883 l 14 1000 l 819 1000 l 819 883 l 478 883 l 478 0 l 355 0 z "},"У":{"ha":872,"x_min":21,"x_max":854,"o":"m 253 0 l 373 248 l 21 1000 l 159 1000 l 438 380 l 722 1000 l 854 1000 l 388 0 l 253 0 z "},"Ў":{"ha":872,"x_min":21,"x_max":854,"o":"m 438 1088 q 343 1113 386 1088 q 274 1182 300 1139 q 249 1277 249 1225 l 349 1277 q 375 1214 349 1240 q 438 1188 401 1188 q 502 1214 476 1188 q 528 1277 528 1240 l 628 1277 q 602 1182 628 1225 q 534 1113 577 1139 q 438 1088 491 1088 m 253 0 l 373 248 l 21 1000 l 159 1000 l 438 380 l 722 1000 l 854 1000 l 388 0 l 253 0 z "},"Ф":{"ha":1000,"x_min":42,"x_max":958,"o":"m 438 0 l 438 136 q 290 143 361 123 q 163 214 219 163 q 74 344 107 264 q 42 530 42 424 q 74 717 42 637 q 163 848 107 797 q 290 920 219 899 q 438 927 361 940 l 438 1000 l 561 1000 l 561 927 q 710 920 638 940 q 837 848 781 899 q 926 717 893 797 q 958 530 958 637 q 926 344 958 424 q 837 214 893 264 q 710 143 781 163 q 561 136 638 123 l 561 0 l 438 0 m 438 252 l 438 813 q 324 805 374 823 q 239 746 274 786 q 187 651 205 706 q 169 530 169 595 q 187 410 169 465 q 239 317 205 356 q 324 260 274 278 q 438 252 374 243 m 561 252 q 676 261 626 243 q 760 317 726 278 q 813 409 795 355 q 831 527 831 464 q 813 647 831 591 q 760 743 795 703 q 676 803 726 784 q 561 813 626 823 l 561 252 z "},"Х":{"ha":865,"x_min":14,"x_max":851,"o":"m 14 0 l 358 506 l 23 1000 l 174 1000 l 433 610 l 691 1000 l 842 1000 l 508 506 l 851 0 l 700 0 l 433 401 l 165 0 l 14 0 z "},"Ч":{"ha":912,"x_min":97,"x_max":815,"o":"m 690 0 l 690 461 l 718 417 q 603 363 673 383 q 449 342 533 342 q 243 391 320 342 q 132 525 166 440 q 97 720 97 610 l 97 1000 l 222 1000 l 222 761 q 233 643 222 698 q 271 548 244 589 q 346 484 298 507 q 467 462 394 462 q 620 490 556 462 q 712 549 683 517 l 690 467 l 690 1000 l 815 1000 l 815 0 l 690 0 z "},"Ц":{"ha":1010,"x_min":97,"x_max":997,"o":"m 873 -139 l 873 0 l 97 0 l 97 1000 l 221 1000 l 221 113 l 765 113 l 765 986 l 889 986 l 889 113 l 997 113 l 997 -139 l 873 -139 z "},"Ш":{"ha":1278,"x_min":97,"x_max":1181,"o":"m 97 0 l 97 1000 l 221 1000 l 221 117 l 577 117 l 577 1000 l 701 1000 l 701 117 l 1057 117 l 1057 1000 l 1181 1000 l 1181 0 l 97 0 z "},"Щ":{"ha":1302,"x_min":97,"x_max":1288,"o":"m 1165 -139 l 1165 0 l 1067 0 l 1067 113 l 1288 113 l 1288 -139 l 1165 -139 m 97 0 l 97 1000 l 221 1000 l 221 117 l 577 117 l 577 1000 l 701 1000 l 701 117 l 1057 117 l 1057 1000 l 1181 1000 l 1181 0 l 97 0 z "},"Џ":{"ha":1035,"x_min":97,"x_max":938,"o":"m 456 -167 l 456 0 l 97 0 l 97 1000 l 221 1000 l 221 117 l 814 117 l 814 1000 l 938 1000 l 938 0 l 579 0 l 579 -167 l 456 -167 z "},"Ь":{"ha":868,"x_min":97,"x_max":813,"o":"m 97 0 l 97 1000 l 220 1000 l 220 631 l 492 631 q 526 630 506 631 q 565 625 547 628 q 701 569 646 613 q 784 461 756 526 q 813 315 813 395 q 785 170 813 236 q 702 61 757 105 q 565 6 647 18 q 526 1 547 3 q 492 0 506 0 l 97 0 m 220 117 l 488 117 q 518 119 501 117 q 550 124 535 120 q 628 164 598 135 q 672 234 658 194 q 686 315 686 274 q 672 397 686 357 q 628 467 658 437 q 550 507 598 497 q 518 512 535 511 q 488 513 501 513 l 220 513 l 220 117 z "},"Ъ":{"ha":877,"x_min":-7,"x_max":841,"o":"m 125 0 l 125 898 l -7 898 l -7 1000 l 249 1000 l 249 631 l 520 631 q 555 630 535 631 q 594 625 575 628 q 730 569 674 613 q 813 461 785 526 q 841 315 841 395 q 813 170 841 236 q 730 61 785 105 q 594 6 675 18 q 555 1 575 3 q 520 0 535 0 l 125 0 m 249 117 l 516 117 q 546 119 529 117 q 578 124 563 120 q 657 164 626 135 q 701 234 687 194 q 715 315 715 274 q 701 397 715 357 q 657 467 687 437 q 578 507 626 497 q 546 512 563 511 q 516 513 529 513 l 249 513 l 249 117 z "},"Ы":{"ha":1132,"x_min":97,"x_max":1035,"o":"m 97 0 l 97 1000 l 220 1000 l 220 631 l 492 631 q 526 630 506 631 q 565 625 547 628 q 701 569 646 613 q 784 461 756 526 q 813 315 813 395 q 785 170 813 236 q 702 61 757 105 q 565 6 647 18 q 526 1 547 3 q 492 0 506 0 l 97 0 m 220 117 l 488 117 q 518 119 501 117 q 550 124 535 120 q 628 164 598 135 q 672 234 658 194 q 686 315 686 274 q 672 397 686 357 q 628 467 658 437 q 550 507 598 497 q 518 512 535 511 q 488 513 501 513 l 220 513 l 220 117 m 911 0 l 911 1000 l 1035 1000 l 1035 0 l 911 0 z "},"Љ":{"ha":1518,"x_min":14,"x_max":1463,"o":"m 747 0 l 747 1000 l 870 1000 l 870 631 l 1142 631 q 1176 630 1156 631 q 1215 625 1197 628 q 1351 569 1296 613 q 1434 461 1406 526 q 1463 315 1463 395 q 1435 170 1463 236 q 1352 61 1407 105 q 1215 6 1297 18 q 1176 1 1197 3 q 1142 0 1156 0 l 747 0 m 870 117 l 1138 117 q 1168 119 1151 117 q 1200 124 1185 120 q 1278 164 1248 135 q 1322 234 1308 194 q 1336 315 1336 274 q 1322 397 1336 357 q 1278 467 1308 437 q 1200 507 1248 497 q 1168 512 1185 511 q 1138 513 1151 513 l 870 513 l 870 117 m 14 0 l 14 108 q 75 111 51 104 q 115 141 99 118 q 142 208 131 164 q 165 323 154 252 q 190 491 180 406 q 207 662 199 576 q 219 833 214 748 q 227 1000 224 918 l 871 1000 l 871 0 l 747 0 l 747 883 l 344 883 q 336 748 340 819 q 324 598 331 676 q 308 438 317 520 q 283 269 298 355 q 255 144 272 201 q 210 49 239 87 q 134 -3 181 10 q 14 0 88 -17 z "},"Њ":{"ha":1490,"x_min":97,"x_max":1435,"o":"m 97 0 l 97 1000 l 221 1000 l 221 630 l 782 630 l 782 513 l 221 513 l 221 0 l 97 0 m 719 0 l 719 1000 l 842 1000 l 842 631 l 1114 631 q 1149 630 1128 631 q 1188 625 1169 628 q 1323 569 1268 613 q 1407 461 1378 526 q 1435 315 1435 395 q 1407 170 1435 236 q 1324 61 1379 105 q 1188 6 1269 18 q 1149 1 1169 3 q 1114 0 1128 0 l 719 0 m 842 117 l 1110 117 q 1140 119 1123 117 q 1172 124 1157 120 q 1250 164 1220 135 q 1294 234 1281 194 q 1308 315 1308 274 q 1294 397 1308 357 q 1250 467 1281 437 q 1172 507 1220 497 q 1140 512 1157 511 q 1110 513 1123 513 l 842 513 l 842 117 z "},"Ѕ":{"ha":875,"x_min":49,"x_max":826,"o":"m 452 -21 q 261 15 346 -21 q 120 118 176 51 q 49 277 65 185 l 176 297 q 277 150 201 203 q 458 97 354 97 q 580 118 526 97 q 667 178 635 139 q 699 272 699 218 q 687 330 699 306 q 656 370 676 353 q 611 399 636 388 q 559 419 586 411 l 304 494 q 224 526 263 507 q 154 574 185 545 q 106 643 124 603 q 88 740 88 684 q 134 891 88 828 q 259 988 180 954 q 438 1020 338 1021 q 618 984 538 1019 q 750 884 697 949 q 820 728 802 819 l 689 705 q 643 810 678 766 q 553 878 607 854 q 436 903 500 902 q 326 883 375 903 q 247 827 276 863 q 218 745 218 792 q 244 671 218 699 q 309 627 271 643 q 385 600 348 610 l 575 545 q 650 520 608 536 q 733 475 693 504 q 800 399 774 447 q 826 279 826 351 q 798 151 826 207 q 717 57 769 94 q 598 -1 666 19 q 452 -21 530 -21 z "},"Є":{"ha":998,"x_min":54,"x_max":956,"o":"m 516 -21 q 265 49 368 -21 q 108 236 161 118 q 56 500 54 354 q 112 773 58 656 q 268 956 166 890 q 516 1021 371 1021 q 803 931 688 1021 q 956 676 919 841 l 831 658 q 723 836 804 771 q 522 902 642 901 q 350 860 422 903 q 238 739 278 817 q 189 559 198 661 l 552 559 l 552 442 l 190 442 q 210 324 194 381 q 266 215 227 267 q 378 127 310 155 q 522 97 445 99 q 716 159 635 96 q 828 328 797 222 l 949 297 q 861 124 922 194 q 713 16 801 53 q 516 -21 626 -21 z "},"Э":{"ha":984,"x_min":42,"x_max":944,"o":"m 482 -21 q 285 16 373 -21 q 137 124 197 53 q 49 297 76 194 l 170 328 q 283 159 202 222 q 476 97 363 96 q 620 127 553 99 q 732 215 688 155 q 788 324 772 267 q 808 442 804 381 l 446 442 l 446 559 l 809 559 q 760 739 801 661 q 648 860 719 817 q 476 902 577 903 q 275 836 356 901 q 167 658 194 771 l 42 676 q 195 931 79 841 q 482 1021 311 1021 q 730 956 628 1021 q 886 773 832 890 q 942 500 941 656 q 891 236 944 354 q 734 49 838 118 q 482 -21 630 -21 z "},"І":{"ha":346,"x_min":111,"x_max":235,"o":"m 111 0 l 111 1000 l 235 1000 l 235 0 l 111 0 z "},"Ї":{"ha":346,"x_min":-26,"x_max":372,"o":"m 247 1136 l 247 1261 l 372 1261 l 372 1136 l 247 1136 m -26 1136 l -26 1261 l 99 1261 l 99 1136 l -26 1136 m 111 0 l 111 1000 l 235 1000 l 235 0 l 111 0 z "},"Ј":{"ha":661,"x_min":0,"x_max":549,"o":"m 278 -20 q 100 37 173 -20 q 0 190 27 94 l 123 219 q 177 133 134 168 q 275 97 219 97 q 349 115 311 97 q 406 173 386 133 q 422 234 420 201 q 424 314 424 268 l 424 1000 l 549 1000 l 549 314 q 549 237 549 271 q 542 172 549 203 q 517 109 535 141 q 416 11 479 43 q 278 -20 353 -20 z "},"Ћ":{"ha":912,"x_min":0,"x_max":815,"o":"m 0 888 l 0 1000 l 438 1000 l 438 888 l 0 888 m 222 1000 l 222 539 l 194 583 q 309 638 240 617 q 463 658 379 658 q 669 609 592 658 q 781 476 747 561 q 815 280 815 390 l 815 0 l 690 0 l 690 239 q 679 357 690 303 q 641 452 668 412 q 566 516 614 493 q 444 538 519 538 q 293 511 356 538 q 200 451 230 483 l 222 533 l 222 0 l 97 0 l 97 1000 l 222 1000 z "},"Ю":{"ha":1288,"x_min":97,"x_max":1246,"o":"m 97 0 l 97 1000 l 221 1000 l 221 562 l 467 562 l 467 438 l 221 438 l 221 0 l 97 0 m 838 -21 q 663 19 739 -21 q 535 129 586 58 q 457 295 483 200 q 431 500 431 390 q 457 706 431 611 q 535 871 483 800 q 663 981 586 942 q 838 1020 739 1020 q 1014 981 938 1020 q 1142 871 1090 942 q 1219 706 1193 800 q 1246 500 1246 611 q 1219 292 1246 388 q 1142 127 1193 197 q 1014 18 1090 56 q 838 -21 938 -21 m 838 97 q 959 128 908 97 q 1045 215 1011 160 q 1097 343 1080 270 q 1115 500 1115 417 q 1098 657 1115 584 q 1047 785 1081 730 q 960 871 1013 840 q 838 902 908 902 q 717 871 769 902 q 631 785 665 840 q 580 657 597 730 q 562 500 563 584 q 579 343 562 417 q 630 215 596 270 q 717 128 665 160 q 838 97 769 97 z "},"Я":{"ha":890,"x_min":56,"x_max":792,"o":"m 792 0 l 669 0 l 669 369 l 361 369 l 314 377 q 137 484 197 399 q 76 685 76 569 q 105 830 76 765 q 188 939 133 896 q 324 994 243 982 q 363 999 343 998 q 397 1000 383 1000 l 792 1000 l 792 0 m 197 0 l 56 0 l 272 444 l 394 407 l 197 0 m 669 487 l 669 883 l 401 883 q 372 882 389 883 q 339 876 355 881 q 261 836 291 866 q 217 766 231 806 q 203 685 203 726 q 217 603 203 643 q 261 534 231 563 q 339 493 291 504 q 372 488 355 490 q 401 487 389 487 l 669 487 z "},"Ђ":{"ha":911,"x_min":0,"x_max":856,"o":"m 104 0 l 104 888 l 0 888 l 0 1000 l 438 1000 l 438 888 l 215 888 l 215 655 q 333 742 260 714 q 498 771 406 771 q 763 676 669 771 q 856 391 856 581 q 817 185 856 274 q 700 49 779 97 q 497 0 620 0 l 497 125 q 630 159 578 125 q 706 253 681 192 q 731 395 731 314 q 701 543 731 487 q 616 625 672 599 q 484 651 561 651 q 327 613 388 651 q 244 501 267 575 q 232 424 235 465 q 228 345 228 383 l 228 0 l 104 0 z "},"Ү":{"ha":798,"x_min":0,"x_max":798,"o":"m 337 0 l 337 416 l 0 1000 l 144 1000 l 399 558 l 654 1000 l 798 1000 l 462 416 l 462 0 l 337 0 z "},"Һ":{"ha":912,"x_min":97,"x_max":815,"o":"m 222 1000 l 222 539 l 194 583 q 309 638 240 617 q 463 658 379 658 q 669 609 592 658 q 781 476 747 561 q 815 280 815 390 l 815 0 l 690 0 l 690 239 q 679 357 690 303 q 641 452 668 412 q 566 516 614 493 q 444 538 519 538 q 293 511 356 538 q 200 451 230 483 l 222 533 l 222 0 l 97 0 l 97 1000 l 222 1000 z "},"Ө":{"ha":1044,"x_min":42,"x_max":975,"o":"m 146 438 l 146 562 l 889 562 l 889 438 l 146 438 m 508 -21 q 255 45 359 -21 q 96 228 151 111 q 42 500 42 346 q 96 772 42 654 q 255 955 151 889 q 508 1021 359 1021 q 763 955 658 1021 q 921 772 867 889 q 975 500 975 654 q 921 228 975 346 q 763 45 867 111 q 508 -21 658 -21 m 508 97 q 695 148 620 97 q 807 290 769 199 q 844 500 844 381 q 807 710 844 620 q 695 851 769 801 q 508 903 620 902 q 323 853 397 903 q 211 711 249 802 q 173 500 174 620 q 210 290 172 381 q 322 149 247 200 q 508 97 397 98 z "},"а":{"ha":781,"x_min":56,"x_max":698,"o":"m 310 -21 q 170 10 226 -21 q 84 92 113 41 q 56 203 56 142 q 78 305 56 262 q 142 377 101 349 q 240 423 183 406 q 359 448 293 438 q 494 468 426 459 q 621 485 562 477 l 576 460 q 536 608 578 560 q 392 656 494 656 q 273 625 324 656 q 201 524 222 594 l 83 560 q 188 715 110 658 q 393 771 266 771 q 568 734 495 771 q 674 624 642 698 q 694 549 690 590 q 698 464 698 508 l 698 0 l 588 0 l 588 180 l 614 163 q 495 26 572 72 q 310 -21 419 -21 m 329 83 q 445 107 396 83 q 524 170 494 131 q 563 256 553 209 q 574 333 573 290 q 575 399 575 376 l 618 380 q 499 364 558 372 q 389 348 441 356 q 295 327 337 339 q 238 302 265 317 q 195 263 211 287 q 178 203 178 239 q 194 145 178 173 q 243 100 210 117 q 329 83 276 83 z "},"б":{"ha":817,"x_min":55,"x_max":762,"o":"m 402 -22 q 221 25 296 -21 q 104 158 146 70 q 58 374 63 247 q 59 504 55 433 q 75 640 64 575 q 102 748 85 706 q 155 842 121 799 q 233 914 190 885 q 331 960 276 944 q 444 986 385 977 q 563 1003 503 996 q 677 1021 623 1010 l 690 910 q 599 895 651 901 q 491 882 547 890 q 384 861 435 874 q 297 824 333 847 q 214 726 242 791 q 178 581 185 661 q 290 678 222 647 q 437 710 359 710 q 610 663 538 710 q 723 534 683 616 q 762 347 762 452 q 717 153 762 236 q 592 24 673 69 q 402 -22 511 -22 m 410 96 q 575 164 519 96 q 631 344 631 231 q 573 525 631 459 q 409 592 515 592 q 245 525 302 592 q 189 344 189 459 q 246 162 189 228 q 410 96 303 96 z "},"в":{"ha":755,"x_min":97,"x_max":713,"o":"m 97 0 l 97 750 l 416 750 q 477 747 444 750 q 538 736 510 744 q 637 670 598 720 q 676 545 676 621 q 664 472 676 503 q 627 417 651 440 q 604 399 617 407 q 579 385 592 390 q 628 367 603 381 q 691 306 668 345 q 713 207 713 267 q 676 81 713 131 q 575 13 640 31 q 515 2 548 5 q 452 0 483 0 l 97 0 m 222 101 l 445 101 q 480 103 460 101 q 517 110 501 106 q 569 149 553 121 q 585 211 585 178 q 561 283 585 256 q 496 318 536 311 q 464 323 481 322 q 434 324 447 324 l 222 324 l 222 101 m 222 426 l 408 426 q 449 428 427 426 q 486 437 470 431 q 533 476 518 449 q 548 536 548 503 q 532 600 548 572 q 482 638 515 627 q 432 647 460 646 q 397 648 405 648 l 222 648 l 222 426 z "},"г":{"ha":653,"x_min":97,"x_max":618,"o":"m 97 0 l 97 750 l 618 750 l 618 633 l 221 633 l 221 0 l 97 0 z "},"ѓ":{"ha":653,"x_min":97,"x_max":618,"o":"m 364 865 l 263 865 l 354 1094 l 455 1094 l 364 865 m 97 0 l 97 750 l 618 750 l 618 633 l 221 633 l 221 0 l 97 0 z "},"ґ":{"ha":653,"x_min":97,"x_max":618,"o":"m 97 0 l 97 750 l 494 750 l 494 889 l 618 889 l 618 633 l 221 633 l 221 0 l 97 0 z "},"д":{"ha":847,"x_min":42,"x_max":806,"o":"m 42 -167 l 42 102 q 132 143 105 102 q 176 280 159 185 q 194 408 187 340 q 206 559 201 476 q 216 750 211 643 l 733 750 l 733 102 l 806 102 l 806 -167 l 688 -167 l 688 0 l 160 0 l 160 -167 l 42 -167 m 232 102 l 609 102 l 609 648 l 328 648 q 322 545 326 599 q 314 438 319 491 q 304 336 310 384 q 290 251 298 289 q 269 163 281 199 q 232 102 258 127 z "},"е":{"ha":820,"x_min":56,"x_max":769,"o":"m 422 -21 q 230 28 312 -21 q 101 165 147 77 q 56 370 56 253 q 101 583 56 493 q 227 722 146 673 q 417 771 308 771 q 609 719 530 771 q 729 570 689 667 q 763 340 769 474 l 638 340 l 638 385 q 582 591 636 523 q 421 660 528 660 q 247 586 306 660 q 187 375 187 513 q 247 169 187 242 q 417 97 306 97 q 546 131 491 97 q 632 228 601 165 l 751 188 q 619 34 707 88 q 422 -21 531 -21 m 145 340 l 145 440 l 699 440 l 699 340 l 145 340 z "}}}
